G75*
%MOIN*%
%OFA0B0*%
%FSLAX25Y25*%
%IPPOS*%
%LPD*%
%AMOC8*
5,1,8,0,0,1.08239X$1,22.5*
%
%ADD10R,0.05131X0.04737*%
%ADD11R,0.03654X0.03556*%
%ADD12C,0.08800*%
%ADD13R,0.05524X0.08674*%
%ADD14R,0.03162X0.06115*%
D10*
X0022154Y0078333D03*
X0028846Y0078333D03*
X0028846Y0088333D03*
X0022154Y0088333D03*
X0057154Y0088333D03*
X0063846Y0088333D03*
X0079154Y0088333D03*
X0085846Y0088333D03*
X0085846Y0078333D03*
X0079154Y0078333D03*
X0063846Y0078333D03*
X0057154Y0078333D03*
X0114154Y0078333D03*
X0120846Y0078333D03*
X0120846Y0088333D03*
X0114154Y0088333D03*
X0136154Y0088333D03*
X0142846Y0088333D03*
X0142846Y0078333D03*
X0136154Y0078333D03*
X0171154Y0078333D03*
X0177846Y0078333D03*
X0177846Y0088333D03*
X0171154Y0088333D03*
X0193154Y0088333D03*
X0199846Y0088333D03*
X0199846Y0078333D03*
X0193154Y0078333D03*
X0228154Y0078333D03*
X0234846Y0078333D03*
X0250154Y0078333D03*
X0256846Y0078333D03*
X0256846Y0088333D03*
X0250154Y0088333D03*
X0234846Y0088333D03*
X0228154Y0088333D03*
X0228154Y0120333D03*
X0234846Y0120333D03*
X0250154Y0120333D03*
X0256846Y0120333D03*
X0256846Y0130333D03*
X0250154Y0130333D03*
X0234846Y0130333D03*
X0228154Y0130333D03*
X0199846Y0130333D03*
X0193154Y0130333D03*
X0193154Y0120333D03*
X0199846Y0120333D03*
X0177846Y0120333D03*
X0171154Y0120333D03*
X0171154Y0130333D03*
X0177846Y0130333D03*
X0142846Y0130333D03*
X0136154Y0130333D03*
X0136154Y0120333D03*
X0142846Y0120333D03*
X0120846Y0120333D03*
X0114154Y0120333D03*
X0114154Y0130333D03*
X0120846Y0130333D03*
X0085846Y0130333D03*
X0079154Y0130333D03*
X0063846Y0130333D03*
X0057154Y0130333D03*
X0057154Y0120333D03*
X0063846Y0120333D03*
X0079154Y0120333D03*
X0085846Y0120333D03*
X0028846Y0120333D03*
X0022154Y0120333D03*
X0022154Y0130333D03*
X0028846Y0130333D03*
X0028846Y0202333D03*
X0022154Y0202333D03*
X0022154Y0212333D03*
X0028846Y0212333D03*
X0057154Y0212333D03*
X0063846Y0212333D03*
X0063846Y0202333D03*
X0057154Y0202333D03*
X0079154Y0202333D03*
X0085846Y0202333D03*
X0085846Y0212333D03*
X0079154Y0212333D03*
X0114154Y0212333D03*
X0120846Y0212333D03*
X0120846Y0202333D03*
X0114154Y0202333D03*
X0136154Y0202333D03*
X0142846Y0202333D03*
X0142846Y0212333D03*
X0136154Y0212333D03*
X0171154Y0212333D03*
X0177846Y0212333D03*
X0177846Y0202333D03*
X0171154Y0202333D03*
X0193154Y0202333D03*
X0199846Y0202333D03*
X0199846Y0212333D03*
X0193154Y0212333D03*
X0228154Y0212333D03*
X0234846Y0212333D03*
X0234846Y0202333D03*
X0228154Y0202333D03*
X0250154Y0202333D03*
X0256846Y0202333D03*
X0256846Y0212333D03*
X0250154Y0212333D03*
X0285154Y0212333D03*
X0291846Y0212333D03*
X0291846Y0202333D03*
X0285154Y0202333D03*
X0307154Y0202333D03*
X0313846Y0202333D03*
X0313846Y0212333D03*
X0307154Y0212333D03*
X0342154Y0212333D03*
X0348846Y0212333D03*
X0348846Y0202333D03*
X0342154Y0202333D03*
X0342154Y0244333D03*
X0348846Y0244333D03*
X0348846Y0254333D03*
X0342154Y0254333D03*
X0313846Y0254333D03*
X0307154Y0254333D03*
X0291846Y0254333D03*
X0285154Y0254333D03*
X0285154Y0244333D03*
X0291846Y0244333D03*
X0307154Y0244333D03*
X0313846Y0244333D03*
X0256846Y0244333D03*
X0250154Y0244333D03*
X0234846Y0244333D03*
X0228154Y0244333D03*
X0228154Y0254333D03*
X0234846Y0254333D03*
X0250154Y0254333D03*
X0256846Y0254333D03*
X0199846Y0254333D03*
X0193154Y0254333D03*
X0193154Y0244333D03*
X0199846Y0244333D03*
X0177846Y0244333D03*
X0171154Y0244333D03*
X0171154Y0254333D03*
X0177846Y0254333D03*
X0142846Y0254333D03*
X0136154Y0254333D03*
X0136154Y0244333D03*
X0142846Y0244333D03*
X0120846Y0244333D03*
X0114154Y0244333D03*
X0114154Y0254333D03*
X0120846Y0254333D03*
X0085846Y0254333D03*
X0079154Y0254333D03*
X0063846Y0254333D03*
X0057154Y0254333D03*
X0057154Y0244333D03*
X0063846Y0244333D03*
X0079154Y0244333D03*
X0085846Y0244333D03*
X0028846Y0244333D03*
X0022154Y0244333D03*
X0022154Y0254333D03*
X0028846Y0254333D03*
X0285154Y0130333D03*
X0291846Y0130333D03*
X0307154Y0130333D03*
X0313846Y0130333D03*
X0313846Y0120333D03*
X0307154Y0120333D03*
X0291846Y0120333D03*
X0285154Y0120333D03*
X0285154Y0088333D03*
X0291846Y0088333D03*
X0307154Y0088333D03*
X0313846Y0088333D03*
X0313846Y0078333D03*
X0307154Y0078333D03*
X0291846Y0078333D03*
X0285154Y0078333D03*
X0342154Y0078333D03*
X0348846Y0078333D03*
X0348846Y0088333D03*
X0342154Y0088333D03*
X0342154Y0120333D03*
X0348846Y0120333D03*
X0348846Y0130333D03*
X0342154Y0130333D03*
D11*
X0334348Y0124270D03*
X0330116Y0124270D03*
X0325884Y0124270D03*
X0321652Y0124270D03*
X0321652Y0116396D03*
X0325884Y0116396D03*
X0330116Y0116396D03*
X0334348Y0116396D03*
X0334348Y0092270D03*
X0330116Y0092270D03*
X0325884Y0092270D03*
X0321652Y0092270D03*
X0321652Y0084396D03*
X0325884Y0084396D03*
X0330116Y0084396D03*
X0334348Y0084396D03*
X0277348Y0084396D03*
X0273116Y0084396D03*
X0268884Y0084396D03*
X0264652Y0084396D03*
X0264652Y0092270D03*
X0268884Y0092270D03*
X0273116Y0092270D03*
X0277348Y0092270D03*
X0277348Y0116396D03*
X0273116Y0116396D03*
X0268884Y0116396D03*
X0264652Y0116396D03*
X0264652Y0124270D03*
X0268884Y0124270D03*
X0273116Y0124270D03*
X0277348Y0124270D03*
X0220348Y0124270D03*
X0216116Y0124270D03*
X0211884Y0124270D03*
X0207652Y0124270D03*
X0207652Y0116396D03*
X0211884Y0116396D03*
X0216116Y0116396D03*
X0220348Y0116396D03*
X0220348Y0092270D03*
X0216116Y0092270D03*
X0211884Y0092270D03*
X0207652Y0092270D03*
X0207652Y0084396D03*
X0211884Y0084396D03*
X0216116Y0084396D03*
X0220348Y0084396D03*
X0163348Y0084396D03*
X0159116Y0084396D03*
X0154884Y0084396D03*
X0150652Y0084396D03*
X0150652Y0092270D03*
X0154884Y0092270D03*
X0159116Y0092270D03*
X0163348Y0092270D03*
X0163348Y0116396D03*
X0159116Y0116396D03*
X0154884Y0116396D03*
X0150652Y0116396D03*
X0150652Y0124270D03*
X0154884Y0124270D03*
X0159116Y0124270D03*
X0163348Y0124270D03*
X0106348Y0124270D03*
X0102116Y0124270D03*
X0097884Y0124270D03*
X0093652Y0124270D03*
X0093652Y0116396D03*
X0097884Y0116396D03*
X0102116Y0116396D03*
X0106348Y0116396D03*
X0106348Y0092270D03*
X0102116Y0092270D03*
X0097884Y0092270D03*
X0093652Y0092270D03*
X0093652Y0084396D03*
X0097884Y0084396D03*
X0102116Y0084396D03*
X0106348Y0084396D03*
X0049348Y0084396D03*
X0045116Y0084396D03*
X0040884Y0084396D03*
X0036652Y0084396D03*
X0036652Y0092270D03*
X0040884Y0092270D03*
X0045116Y0092270D03*
X0049348Y0092270D03*
X0049348Y0116396D03*
X0045116Y0116396D03*
X0040884Y0116396D03*
X0036652Y0116396D03*
X0036652Y0124270D03*
X0040884Y0124270D03*
X0045116Y0124270D03*
X0049348Y0124270D03*
X0049348Y0208396D03*
X0045116Y0208396D03*
X0040884Y0208396D03*
X0036652Y0208396D03*
X0036652Y0216270D03*
X0040884Y0216270D03*
X0045116Y0216270D03*
X0049348Y0216270D03*
X0049348Y0240396D03*
X0045116Y0240396D03*
X0040884Y0240396D03*
X0036652Y0240396D03*
X0036652Y0248270D03*
X0040884Y0248270D03*
X0045116Y0248270D03*
X0049348Y0248270D03*
X0093652Y0248270D03*
X0097884Y0248270D03*
X0102116Y0248270D03*
X0106348Y0248270D03*
X0106348Y0240396D03*
X0102116Y0240396D03*
X0097884Y0240396D03*
X0093652Y0240396D03*
X0093652Y0216270D03*
X0097884Y0216270D03*
X0102116Y0216270D03*
X0106348Y0216270D03*
X0106348Y0208396D03*
X0102116Y0208396D03*
X0097884Y0208396D03*
X0093652Y0208396D03*
X0150652Y0208396D03*
X0154884Y0208396D03*
X0159116Y0208396D03*
X0163348Y0208396D03*
X0163348Y0216270D03*
X0159116Y0216270D03*
X0154884Y0216270D03*
X0150652Y0216270D03*
X0150652Y0240396D03*
X0154884Y0240396D03*
X0159116Y0240396D03*
X0163348Y0240396D03*
X0163348Y0248270D03*
X0159116Y0248270D03*
X0154884Y0248270D03*
X0150652Y0248270D03*
X0207652Y0248270D03*
X0211884Y0248270D03*
X0216116Y0248270D03*
X0220348Y0248270D03*
X0220348Y0240396D03*
X0216116Y0240396D03*
X0211884Y0240396D03*
X0207652Y0240396D03*
X0207652Y0216270D03*
X0211884Y0216270D03*
X0216116Y0216270D03*
X0220348Y0216270D03*
X0220348Y0208396D03*
X0216116Y0208396D03*
X0211884Y0208396D03*
X0207652Y0208396D03*
X0264652Y0208396D03*
X0268884Y0208396D03*
X0273116Y0208396D03*
X0277348Y0208396D03*
X0277348Y0216270D03*
X0273116Y0216270D03*
X0268884Y0216270D03*
X0264652Y0216270D03*
X0264652Y0240396D03*
X0268884Y0240396D03*
X0273116Y0240396D03*
X0277348Y0240396D03*
X0277348Y0248270D03*
X0273116Y0248270D03*
X0268884Y0248270D03*
X0264652Y0248270D03*
X0321652Y0248270D03*
X0325884Y0248270D03*
X0330116Y0248270D03*
X0334348Y0248270D03*
X0334348Y0240396D03*
X0330116Y0240396D03*
X0325884Y0240396D03*
X0321652Y0240396D03*
X0321652Y0216270D03*
X0325884Y0216270D03*
X0330116Y0216270D03*
X0334348Y0216270D03*
X0334348Y0208396D03*
X0330116Y0208396D03*
X0325884Y0208396D03*
X0321652Y0208396D03*
D12*
X0306000Y0177333D03*
X0293000Y0177333D03*
X0293000Y0155333D03*
X0306000Y0155333D03*
X0350000Y0155333D03*
X0350000Y0177333D03*
X0249000Y0177333D03*
X0236000Y0177333D03*
X0236000Y0155333D03*
X0249000Y0155333D03*
X0192000Y0155333D03*
X0179000Y0155333D03*
X0179000Y0177333D03*
X0192000Y0177333D03*
X0135000Y0177333D03*
X0122000Y0177333D03*
X0122000Y0155333D03*
X0135000Y0155333D03*
X0078000Y0155333D03*
X0065000Y0155333D03*
X0065000Y0177333D03*
X0078000Y0177333D03*
X0021000Y0177333D03*
X0021000Y0155333D03*
X0021000Y0053333D03*
X0065000Y0053333D03*
X0078000Y0053333D03*
X0122000Y0053333D03*
X0135000Y0053333D03*
X0179000Y0053333D03*
X0192000Y0053333D03*
X0236000Y0053333D03*
X0249000Y0053333D03*
X0293000Y0053333D03*
X0306000Y0053333D03*
X0350000Y0053333D03*
X0350000Y0279333D03*
X0306000Y0279333D03*
X0293000Y0279333D03*
X0249000Y0279333D03*
X0236000Y0279333D03*
X0192000Y0279333D03*
X0179000Y0279333D03*
X0135000Y0279333D03*
X0122000Y0279333D03*
X0078000Y0279333D03*
X0065000Y0279333D03*
X0021000Y0279333D03*
D13*
X0031976Y0048865D03*
X0054024Y0048865D03*
X0088976Y0048865D03*
X0111024Y0048865D03*
X0145976Y0048865D03*
X0168024Y0048865D03*
X0202976Y0048865D03*
X0225024Y0048865D03*
X0259976Y0048865D03*
X0282024Y0048865D03*
X0316976Y0048865D03*
X0339024Y0048865D03*
X0339024Y0159802D03*
X0339024Y0172865D03*
X0316976Y0172865D03*
X0316976Y0159802D03*
X0282024Y0159802D03*
X0259976Y0159802D03*
X0259976Y0172865D03*
X0282024Y0172865D03*
X0225024Y0172865D03*
X0225024Y0159802D03*
X0202976Y0159802D03*
X0202976Y0172865D03*
X0168024Y0172865D03*
X0168024Y0159802D03*
X0145976Y0159802D03*
X0145976Y0172865D03*
X0111024Y0172865D03*
X0111024Y0159802D03*
X0088976Y0159802D03*
X0088976Y0172865D03*
X0054024Y0172865D03*
X0054024Y0159802D03*
X0031976Y0159802D03*
X0031976Y0172865D03*
X0031976Y0283802D03*
X0054024Y0283802D03*
X0088976Y0283802D03*
X0111024Y0283802D03*
X0145976Y0283802D03*
X0168024Y0283802D03*
X0202976Y0283802D03*
X0225024Y0283802D03*
X0259976Y0283802D03*
X0282024Y0283802D03*
X0316976Y0283802D03*
X0339024Y0283802D03*
D14*
X0333906Y0269333D03*
X0329969Y0269333D03*
X0326031Y0269333D03*
X0322094Y0269333D03*
X0276906Y0269333D03*
X0272969Y0269333D03*
X0269031Y0269333D03*
X0265094Y0269333D03*
X0219906Y0269333D03*
X0215969Y0269333D03*
X0212031Y0269333D03*
X0208094Y0269333D03*
X0162906Y0269333D03*
X0158969Y0269333D03*
X0155031Y0269333D03*
X0151094Y0269333D03*
X0105906Y0269333D03*
X0101969Y0269333D03*
X0098031Y0269333D03*
X0094094Y0269333D03*
X0048906Y0269333D03*
X0044969Y0269333D03*
X0041031Y0269333D03*
X0037094Y0269333D03*
X0037094Y0187333D03*
X0041031Y0187333D03*
X0044969Y0187333D03*
X0048906Y0187333D03*
X0094094Y0187333D03*
X0098031Y0187333D03*
X0101969Y0187333D03*
X0105906Y0187333D03*
X0151094Y0187333D03*
X0155031Y0187333D03*
X0158969Y0187333D03*
X0162906Y0187333D03*
X0208094Y0187333D03*
X0212031Y0187333D03*
X0215969Y0187333D03*
X0219906Y0187333D03*
X0265094Y0187333D03*
X0269031Y0187333D03*
X0272969Y0187333D03*
X0276906Y0187333D03*
X0322094Y0187333D03*
X0326031Y0187333D03*
X0329969Y0187333D03*
X0333906Y0187333D03*
X0333906Y0145333D03*
X0329969Y0145333D03*
X0326031Y0145333D03*
X0322094Y0145333D03*
X0276906Y0145333D03*
X0272969Y0145333D03*
X0269031Y0145333D03*
X0265094Y0145333D03*
X0219906Y0145333D03*
X0215969Y0145333D03*
X0212031Y0145333D03*
X0208094Y0145333D03*
X0162906Y0145333D03*
X0158969Y0145333D03*
X0155031Y0145333D03*
X0151094Y0145333D03*
X0105906Y0145333D03*
X0101969Y0145333D03*
X0098031Y0145333D03*
X0094094Y0145333D03*
X0048906Y0145333D03*
X0044969Y0145333D03*
X0041031Y0145333D03*
X0037094Y0145333D03*
X0037094Y0063333D03*
X0041031Y0063333D03*
X0044969Y0063333D03*
X0048906Y0063333D03*
X0094094Y0063333D03*
X0098031Y0063333D03*
X0101969Y0063333D03*
X0105906Y0063333D03*
X0151094Y0063333D03*
X0155031Y0063333D03*
X0158969Y0063333D03*
X0162906Y0063333D03*
X0208094Y0063333D03*
X0212031Y0063333D03*
X0215969Y0063333D03*
X0219906Y0063333D03*
X0265094Y0063333D03*
X0269031Y0063333D03*
X0272969Y0063333D03*
X0276906Y0063333D03*
X0322094Y0063333D03*
X0326031Y0063333D03*
X0329969Y0063333D03*
X0333906Y0063333D03*
M02*
