%
M48
M72
T01C0.0800
%
T01
X3700Y7017
X8100Y7017
X9400Y7017
X13800Y7017
X15100Y7017
X19500Y7017
X20800Y7017
X25200Y7017
X26500Y7017
X30900Y7017
X32200Y7017
X36600Y7017
X36600Y17217
X36600Y19417
X32200Y19417
X30900Y19417
X30900Y17217
X32200Y17217
X26500Y17217
X25200Y17217
X25200Y19417
X26500Y19417
X20800Y19417
X19500Y19417
X19500Y17217
X20800Y17217
X15100Y17217
X13800Y17217
X13800Y19417
X15100Y19417
X9400Y19417
X8100Y19417
X8100Y17217
X9400Y17217
X3700Y17217
X3700Y19417
X3700Y29617
X8100Y29617
X9400Y29617
X13800Y29617
X15100Y29617
X19500Y29617
X20800Y29617
X25200Y29617
X26500Y29617
X30900Y29617
X32200Y29617
X36600Y29617
M30
