%
M48
M72
T01C0.0800
%
T01
X2100Y5333
X6500Y5333
X7800Y5333
X12200Y5333
X13500Y5333
X17900Y5333
X19200Y5333
X23600Y5333
X24900Y5333
X29300Y5333
X30600Y5333
X35000Y5333
X35000Y15533
X35000Y17733
X30600Y17733
X29300Y17733
X29300Y15533
X30600Y15533
X24900Y15533
X23600Y15533
X23600Y17733
X24900Y17733
X19200Y17733
X17900Y17733
X17900Y15533
X19200Y15533
X13500Y15533
X12200Y15533
X12200Y17733
X13500Y17733
X7800Y17733
X6500Y17733
X6500Y15533
X7800Y15533
X2100Y15533
X2100Y17733
X2100Y27933
X6500Y27933
X7800Y27933
X12200Y27933
X13500Y27933
X17900Y27933
X19200Y27933
X23600Y27933
X24900Y27933
X29300Y27933
X30600Y27933
X35000Y27933
M30
