solid FingerMoldIceCubeProdutctionSingle
facet normal -9.698851102232869e-17 -1.0 -1.7127574480525345e-15
  outer loop
    vertex 25.0 2.8199664825478976e-14 8.889676022888182
    vertex 2.8199664825478975e-15 4.511946372076636e-14 0.0
    vertex 25.000000000000007 4.3239486065734295e-14 0.0
  endloop
endfacet
facet normal -9.698851102232869e-17 -1.0 -1.7127574480525345e-15
  outer loop
    vertex 2.8199664825478975e-15 4.511946372076636e-14 0.0
    vertex 25.0 2.8199664825478976e-14 8.889676022888182
    vertex 9.999999999999998 3.3839597790574766e-14 7.289676022888198
  endloop
endfacet
facet normal -9.698851102232869e-17 -1.0 -1.7127574480525345e-15
  outer loop
    vertex 2.8199664825478975e-15 4.511946372076636e-14 0.0
    vertex 9.999999999999998 3.3839597790574766e-14 7.289676022888198
    vertex 2.8199664825478975e-15 3.3839597790574766e-14 7.289676022888182
  endloop
endfacet
facet normal -9.698851102232869e-17 -1.0 -1.7127574480525345e-15
  outer loop
    vertex 9.999999999999998 3.3839597790574766e-14 7.289676022888198
    vertex 25.0 2.8199664825478976e-14 8.889676022888182
    vertex 12.189089 2.8199664825478976e-14 8.889676022888194
  endloop
endfacet
facet normal -9.698851102232869e-17 -1.0 -1.7127574480525345e-15
  outer loop
    vertex 9.999999999999998 3.3839597790574766e-14 7.289676022888198
    vertex 12.189089 2.8199664825478976e-14 8.889676022888194
    vertex 9.999999999999998 2.8199664825478976e-14 8.889676022888198
  endloop
endfacet
facet normal -1.0 -3.8606908879854586e-16 -6.068427412147003e-31
  outer loop
    vertex 9.999999999999996 7.304305276870772 8.889676022888194
    vertex 9.999999999999998 3.3839597790574766e-14 7.289676022888198
    vertex 9.999999999999998 2.8199664825478976e-14 8.889676022888198
  endloop
endfacet
facet normal -1.0 -3.8606908879854586e-16 -6.068427412147003e-31
  outer loop
    vertex 9.999999999999998 3.3839597790574766e-14 7.289676022888198
    vertex 9.999999999999996 7.304305276870772 8.889676022888194
    vertex 9.999999999999996 7.304305276870772 7.289676022888195
  endloop
endfacet
facet normal 4.481332720470632e-16 -1.0485620228573923e-15 1.0
  outer loop
    vertex 9.999999999999998 2.8199664825478976e-14 8.889676022888198
    vertex 15.823381423950186 7.304445943832448 8.889676022888194
    vertex 9.999999999999996 7.304305276870772 8.889676022888194
  endloop
endfacet
facet normal 4.481332720470632e-16 -1.0485620228573923e-15 1.0
  outer loop
    vertex 15.823381423950186 7.304445943832448 8.889676022888194
    vertex 9.999999999999998 2.8199664825478976e-14 8.889676022888198
    vertex 12.189089 2.8199664825478976e-14 8.889676022888194
  endloop
endfacet
facet normal 4.481332720470632e-16 -1.0485620228573923e-15 1.0
  outer loop
    vertex 15.823381423950186 7.304445943832448 8.889676022888194
    vertex 12.189089 2.8199664825478976e-14 8.889676022888194
    vertex 25.0 2.8199664825478976e-14 8.889676022888182
  endloop
endfacet
facet normal 4.481332720470632e-16 -1.0485620228573923e-15 1.0
  outer loop
    vertex 15.823381423950186 7.304445943832448 8.889676022888194
    vertex 25.0 2.8199664825478976e-14 8.889676022888182
    vertex 16.83098340034486 7.459289751052899 8.889676022888194
  endloop
endfacet
facet normal 4.481332720470632e-16 -1.0485620228573923e-15 1.0
  outer loop
    vertex 16.83098340034486 7.459289751052899 8.889676022888194
    vertex 25.0 2.8199664825478976e-14 8.889676022888182
    vertex 17.789049625396725 7.807637414932301 8.889676022888194
  endloop
endfacet
facet normal 4.481332720470632e-16 -1.0485620228573923e-15 1.0
  outer loop
    vertex 17.789049625396725 7.807637414932301 8.889676022888194
    vertex 25.0 2.8199664825478976e-14 8.889676022888182
    vertex 18.660799503326412 8.336116514205992 8.889676022888196
  endloop
endfacet
facet normal 4.481332720470632e-16 -1.0485620228573923e-15 1.0
  outer loop
    vertex 18.660799503326412 8.336116514205992 8.889676022888196
    vertex 25.0 2.8199664825478976e-14 8.889676022888182
    vertex 19.412765026092522 9.024436674118094 8.889676022888196
  endloop
endfacet
facet normal 4.481332720470632e-16 -1.0485620228573923e-15 1.0
  outer loop
    vertex 19.412765026092522 9.024436674118094 8.889676022888196
    vertex 25.0 2.8199664825478976e-14 8.889676022888182
    vertex 20.016077214851975 9.846173963546793 8.889676022888196
  endloop
endfacet
facet normal 4.481332720470632e-16 -1.0485620228573923e-15 1.0
  outer loop
    vertex 20.016077214851975 9.846173963546793 8.889676022888196
    vertex 25.0 2.8199664825478976e-14 8.889676022888182
    vertex 20.44757419824601 10.76977988243109 8.8896760228882
  endloop
endfacet
facet normal 4.481332720470632e-16 -1.0485620228573923e-15 1.0
  outer loop
    vertex 20.44757419824601 10.76977988243109 8.8896760228882
    vertex 25.0 2.8199664825478976e-14 8.889676022888182
    vertex 20.690690159797676 11.75979610443119 8.8896760228882
  endloop
endfacet
facet normal 4.481332720470632e-16 -1.0485620228573923e-15 1.0
  outer loop
    vertex 20.690690159797676 11.75979610443119 8.8896760228882
    vertex 25.0 2.8199664825478976e-14 8.889676022888182
    vertex 20.736091613769524 12.778214654922516 8.889676022888201
  endloop
endfacet
facet normal 4.481332720470632e-16 -1.0485620228573923e-15 1.0
  outer loop
    vertex 20.736091613769524 12.778214654922516 8.889676022888201
    vertex 25.0 2.8199664825478976e-14 8.889676022888182
    vertex 20.736091613769524 17.57478400230411 8.889676022888208
  endloop
endfacet
facet normal 4.481332720470632e-16 -1.0485620228573923e-15 1.0
  outer loop
    vertex 9.999999999999996 23.115694723129316 8.889676022888214
    vertex 25.0 29.574305276870767 8.889676022888215
    vertex 9.999999999999993 29.574305276870767 8.889676022888223
  endloop
endfacet
facet normal 4.481332720470632e-16 -1.0485620228573923e-15 1.0
  outer loop
    vertex 25.0 29.574305276870767 8.889676022888215
    vertex 9.999999999999996 23.115694723129316 8.889676022888214
    vertex 15.292604923248286 23.155986509323167 8.889676022888214
  endloop
endfacet
facet normal 4.481332720470632e-16 -1.0485620228573923e-15 1.0
  outer loop
    vertex 25.0 29.574305276870767 8.889676022888215
    vertex 15.292604923248286 23.155986509323167 8.889676022888214
    vertex 16.366649866104122 23.03655024528507 8.889676022888214
  endloop
endfacet
facet normal 4.481332720470632e-16 -1.0485620228573923e-15 1.0
  outer loop
    vertex 25.0 29.574305276870767 8.889676022888215
    vertex 16.366649866104122 23.03655024528507 8.889676022888214
    vertex 17.39676380157471 22.70989581108098 8.889676022888214
  endloop
endfacet
facet normal 4.481332720470632e-16 -1.0485620228573923e-15 1.0
  outer loop
    vertex 25.0 29.574305276870767 8.889676022888215
    vertex 17.39676380157471 22.70989581108098 8.889676022888214
    vertex 18.343370079994212 22.18857594490055 8.889676022888214
  endloop
endfacet
facet normal 4.481332720470632e-16 -1.0485620228573923e-15 1.0
  outer loop
    vertex 25.0 29.574305276870767 8.889676022888215
    vertex 18.343370079994212 22.18857594490055 8.889676022888214
    vertex 19.170099198818214 21.492618284225514 8.88967602288821
  endloop
endfacet
facet normal 4.481332720470632e-16 -1.0485620228573923e-15 1.0
  outer loop
    vertex 25.0 29.574305276870767 8.889676022888215
    vertex 19.170099198818214 21.492618284225514 8.88967602288821
    vertex 19.845188334584247 20.648762426376404 8.88967602288821
  endloop
endfacet
facet normal 4.481332720470632e-16 -1.0485620228573923e-15 1.0
  outer loop
    vertex 25.0 29.574305276870767 8.889676022888215
    vertex 19.845188334584247 20.648762426376404 8.88967602288821
    vertex 20.342700302600864 19.689429483413743 8.889676022888208
  endloop
endfacet
facet normal 4.481332720470632e-16 -1.0485620228573923e-15 1.0
  outer loop
    vertex 25.0 29.574305276870767 8.889676022888215
    vertex 20.342700302600864 19.689429483413743 8.889676022888208
    vertex 20.643520593643185 18.651477060318047 8.889676022888208
  endloop
endfacet
facet normal 4.481332720470632e-16 -1.0485620228573923e-15 1.0
  outer loop
    vertex 25.0 29.574305276870767 8.889676022888215
    vertex 20.643520593643185 18.651477060318047 8.889676022888208
    vertex 20.736091613769524 17.57478400230411 8.889676022888208
  endloop
endfacet
facet normal 4.481332720470632e-16 -1.0485620228573923e-15 1.0
  outer loop
    vertex 25.0 29.574305276870767 8.889676022888215
    vertex 20.736091613769524 17.57478400230411 8.889676022888208
    vertex 25.0 2.8199664825478976e-14 8.889676022888182
  endloop
endfacet
facet normal -1.0 -5.457765372062689e-16 4.4061976289810807e-16
  outer loop
    vertex 9.999999999999993 29.574305276870767 8.889676022888223
    vertex 9.999999999999996 23.115694723129316 7.289676022888213
    vertex 9.999999999999996 23.115694723129316 8.889676022888214
  endloop
endfacet
facet normal -1.0 -5.457765372062689e-16 4.4061976289810807e-16
  outer loop
    vertex 9.999999999999996 23.115694723129316 7.289676022888213
    vertex 9.999999999999993 29.574305276870767 8.889676022888223
    vertex 9.999999999999991 29.574305276870774 7.289676022888213
  endloop
endfacet
facet normal -1.0 -1.4271085437995454e-17 1.1579593826952034e-17
  outer loop
    vertex 2.482320532647432e-15 29.574305276870774 7.289676022888213
    vertex 2.8199664825478975e-15 4.511946372076636e-14 0.0
    vertex 2.8199664825478975e-15 3.3839597790574766e-14 7.289676022888182
  endloop
endfacet
facet normal -1.0 -1.4271085437995454e-17 1.1579593826952034e-17
  outer loop
    vertex 2.8199664825478975e-15 4.511946372076636e-14 0.0
    vertex 2.482320532647432e-15 29.574305276870774 7.289676022888213
    vertex 2.3134975576971993e-15 29.574305276870774 2.994852049653752e-14
  endloop
endfacet
facet normal -2.02474080663025e-16 8.41496300487068e-16 -1.0
  outer loop
    vertex 25.000000000000007 29.574305276870774 1.9824816463386263e-14
    vertex 2.8199664825478975e-15 4.511946372076636e-14 0.0
    vertex 2.3134975576971993e-15 29.574305276870774 2.994852049653752e-14
  endloop
endfacet
facet normal -2.02474080663025e-16 8.41496300487068e-16 -1.0
  outer loop
    vertex 2.8199664825478975e-15 4.511946372076636e-14 0.0
    vertex 25.000000000000007 29.574305276870774 1.9824816463386263e-14
    vertex 25.000000000000007 4.3239486065734295e-14 0.0
  endloop
endfacet
facet normal 1.0 -8.748074036469436e-31 9.516544164109071e-16
  outer loop
    vertex 25.000000000000007 4.3239486065734295e-14 0.0
    vertex 25.0 29.574305276870767 8.889676022888215
    vertex 25.0 2.8199664825478976e-14 8.889676022888182
  endloop
endfacet
facet normal 1.0 -8.748074036469436e-31 9.516544164109071e-16
  outer loop
    vertex 25.0 29.574305276870767 8.889676022888215
    vertex 25.000000000000007 4.3239486065734295e-14 0.0
    vertex 25.000000000000007 29.574305276870774 1.9824816463386263e-14
  endloop
endfacet
facet normal 9.944904609190015e-17 1.0 4.3190621816352963e-16
  outer loop
    vertex 2.3134975576971993e-15 29.574305276870774 2.994852049653752e-14
    vertex 25.0 29.574305276870767 8.889676022888215
    vertex 25.000000000000007 29.574305276870774 1.9824816463386263e-14
  endloop
endfacet
facet normal 9.944904609190015e-17 1.0 4.3190621816352963e-16
  outer loop
    vertex 25.0 29.574305276870767 8.889676022888215
    vertex 2.3134975576971993e-15 29.574305276870774 2.994852049653752e-14
    vertex 9.999999999999991 29.574305276870774 7.289676022888213
  endloop
endfacet
facet normal 9.944904609190015e-17 1.0 4.3190621816352963e-16
  outer loop
    vertex 9.999999999999991 29.574305276870774 7.289676022888213
    vertex 2.3134975576971993e-15 29.574305276870774 2.994852049653752e-14
    vertex 2.482320532647432e-15 29.574305276870774 7.289676022888213
  endloop
endfacet
facet normal 9.944904609190015e-17 1.0 4.3190621816352963e-16
  outer loop
    vertex 25.0 29.574305276870767 8.889676022888215
    vertex 9.999999999999991 29.574305276870774 7.289676022888213
    vertex 9.999999999999993 29.574305276870767 8.889676022888223
  endloop
endfacet
facet normal -0.8879882014739061 -0.2573575784677946 0.3811089487906712
  outer loop
    vertex 20.204538598656644 19.634205064773585 2.553886266113307
    vertex 20.497240543365468 18.62426444053656 2.5538862661133055
    vertex 20.643520593643185 18.65147706031802 2.9130967572937263
  endloop
endfacet
facet normal -0.4792821168343189 0.7905972580910473 0.3811097322054797
  outer loop
    vertex 18.66079950332641 8.336116514205987 2.913096757293714
    vertex 18.5715719461441 8.455182752609298 2.5538862661132926
    vertex 17.789049625396725 7.807637414932301 2.913096757293714
  endloop
endfacet
facet normal -0.4792820953620201 0.7905972529912038 0.381109769788383
  outer loop
    vertex 17.789049625396725 7.807637414932301 2.913096757293714
    vertex 18.5715719461441 8.455182752609298 2.5538862661132926
    vertex 17.724752187728875 7.941817007064867 2.5538862661132926
  endloop
endfacet
facet normal -0.5954050076758974 -0.707282528470176 0.3811093042098283
  outer loop
    vertex 19.1700991988182 21.49261828422549 2.9130967572937307
    vertex 18.259165167808522 22.065905771255544 2.5538862661133095
    vertex 19.063583016395558 21.388730249404958 2.553886266113308
  endloop
endfacet
facet normal -0.9963243288921699 -0.08566114438628057 -7.369418141218313e-18
  outer loop
    vertex 20.643520593643185 18.65147706031802 2.9130967572937263
    vertex 20.73609161376952 17.57478400230411 2.913096757293725
    vertex 20.73609161376952 17.57478400230411 5.689676022888208
  endloop
endfacet
facet normal 1.0 0.0 0.0
  outer loop
    vertex 9.999999999999993 23.070065698623683 2.7026756719360656
    vertex 9.999999999999993 7.3043052768707835 2.913096757293712
    vertex 9.999999999999993 7.349934778213561 2.702675671936047
  endloop
endfacet
facet normal 1.0 0.0 0.0
  outer loop
    vertex 9.999999999999993 23.115694723129327 2.913096757293732
    vertex 9.999999999999993 7.3043052768707835 2.913096757293712
    vertex 9.999999999999993 23.070065698623683 2.7026756719360656
  endloop
endfacet
facet normal -0.9990077749825194 0.04453611483364757 4.1865995730947135e-17
  outer loop
    vertex 20.73609161376952 12.778214654922516 8.889676022888201
    vertex 20.69069015979766 11.759796104431196 2.913096757293718
    vertex 20.69069015979766 11.759796104431196 8.8896760228882
  endloop
endfacet
facet normal -0.9990077749825194 0.04453611483364757 4.1865995730947135e-17
  outer loop
    vertex 20.69069015979766 11.759796104431196 2.913096757293718
    vertex 20.73609161376952 12.778214654922516 8.889676022888201
    vertex 20.73609161376952 12.778214654922516 2.913096757293719
  endloop
endfacet
facet normal -0.721934811629229 -0.5775518008111664 0.3811089675376959
  outer loop
    vertex 19.063583016395558 21.388730249404958 2.553886266113308
    vertex 19.72045320272445 20.567648134231604 2.553886266113308
    vertex 19.845188334584233 20.64876242637637 2.913096757293729
  endloop
endfacet
facet normal -0.11052104705122207 -0.9938737838169903 8.261448811165329e-19
  outer loop
    vertex 16.366649866104122 23.03655024528507 5.6896760228882135
    vertex 15.292604923248284 23.155986509323146 8.889676022888214
    vertex 15.292604923248284 23.155986509323146 2.913096757293732
  endloop
endfacet
facet normal -0.11052104705122207 -0.9938737838169903 8.261448811165329e-19
  outer loop
    vertex 15.292604923248284 23.155986509323146 8.889676022888214
    vertex 16.366649866104122 23.03655024528507 5.6896760228882135
    vertex 16.366649866104122 23.03655024528507 8.889676022888214
  endloop
endfacet
facet normal -0.906002287690641 0.4232727899349607 6.145481376404421e-16
  outer loop
    vertex 20.447574198245995 10.769779882431084 8.8896760228882
    vertex 20.016077214851972 9.846173963546786 2.9130967572937165
    vertex 20.016077214851972 9.846173963546786 8.889676022888196
  endloop
endfacet
facet normal -0.906002287690641 0.4232727899349607 6.145481376404421e-16
  outer loop
    vertex 20.016077214851972 9.846173963546786 2.9130967572937165
    vertex 20.447574198245995 10.769779882431084 8.8896760228882
    vertex 20.447574198245995 10.769779882431084 2.9130967572937165
  endloop
endfacet
facet normal -0.9711468549534455 0.23848225534414794 2.261351514919293e-16
  outer loop
    vertex 20.69069015979766 11.759796104431196 8.8896760228882
    vertex 20.447574198245995 10.769779882431084 2.9130967572937165
    vertex 20.447574198245995 10.769779882431084 8.8896760228882
  endloop
endfacet
facet normal -0.9711468549534455 0.23848225534414794 2.261351514919293e-16
  outer loop
    vertex 20.447574198245995 10.769779882431084 2.9130967572937165
    vertex 20.69069015979766 11.759796104431196 8.8896760228882
    vertex 20.69069015979766 11.759796104431196 2.913096757293718
  endloop
endfacet
facet normal -0.7219347899221508 -0.5775516385585345 0.38110925454311917
  outer loop
    vertex 19.1700991988182 21.49261828422549 2.9130967572937307
    vertex 19.063583016395558 21.388730249404958 2.553886266113308
    vertex 19.845188334584233 20.64876242637637 2.913096757293729
  endloop
endfacet
facet normal -0.8207277882956304 -0.42563103133899133 0.38110906927108085
  outer loop
    vertex 19.72045320272445 20.567648134231604 2.553886266113308
    vertex 20.204538598656644 19.634205064773585 2.553886266113307
    vertex 20.34270030260085 19.68942948341374 2.9130967572937276
  endloop
endfacet
facet normal -0.8207278000950008 -0.42563106586355204 0.38110900530304614
  outer loop
    vertex 19.845188334584233 20.64876242637637 2.913096757293729
    vertex 19.72045320272445 20.567648134231604 2.553886266113308
    vertex 20.34270030260085 19.68942948341374 2.9130967572937276
  endloop
endfacet
facet normal -0.31591956807601895 0.868878707656273 0.38110971896322265
  outer loop
    vertex 17.789049625396725 7.807637414932301 2.913096757293714
    vertex 17.724752187728875 7.941817007064867 2.5538862661132926
    vertex 16.830983400344845 7.45928975105291 2.913096757293714
  endloop
endfacet
facet normal -0.3159193532594994 0.8688786092825624 0.38111012131311844
  outer loop
    vertex 16.830983400344845 7.45928975105291 2.913096757293714
    vertex 17.724752187728875 7.941817007064867 2.5538862661132926
    vertex 16.794084310531606 7.603431425094655 2.5538862661132926
  endloop
endfacet
facet normal -0.1780948571737283 0.9067729457025413 0.38215840536380397
  outer loop
    vertex 16.830983400344845 7.45928975105291 2.913096757293714
    vertex 16.794084310531606 7.603431425094655 2.5538862661132926
    vertex 15.822328567504874 7.343085012435965 2.7187665418396123
  endloop
endfacet
facet normal -0.8879881658920742 -0.2573575171288691 0.38110907311804326
  outer loop
    vertex 20.34270030260085 19.68942948341374 2.9130967572937276
    vertex 20.204538598656644 19.634205064773585 2.553886266113307
    vertex 20.643520593643185 18.65147706031802 2.9130967572937263
  endloop
endfacet
facet normal -0.5954050107781446 -0.7072824795499224 0.3811093901519499
  outer loop
    vertex 18.343370079994198 22.18857594490055 2.9130967572937307
    vertex 18.259165167808522 22.065905771255544 2.5538862661133095
    vertex 19.1700991988182 21.49261828422549 2.9130967572937307
  endloop
endfacet
facet normal -0.8060751523394397 0.5918131874003392 3.7924214003625593e-16
  outer loop
    vertex 20.016077214851972 9.846173963546786 8.889676022888196
    vertex 19.41276502609252 9.024436674118066 2.913096757293715
    vertex 19.41276502609252 9.024436674118066 8.889676022888196
  endloop
endfacet
facet normal -0.8060751523394397 0.5918131874003392 3.7924214003625593e-16
  outer loop
    vertex 19.41276502609252 9.024436674118066 2.913096757293715
    vertex 20.016077214851972 9.846173963546786 8.889676022888196
    vertex 20.016077214851972 9.846173963546786 2.9130967572937165
  endloop
endfacet
facet normal -0.2794590579063169 -0.8812819903828515 0.38110981144671924
  outer loop
    vertex 16.366649866104122 23.03655024528507 2.913096757293732
    vertex 16.335791587829586 22.890995225906398 2.5538862661133113
    vertex 17.396763801574696 22.70989581108098 2.913096757293732
  endloop
endfacet
facet normal -0.2794589426518842 -0.8812822253786474 0.38110935255324047
  outer loop
    vertex 17.396763801574696 22.70989581108098 2.913096757293732
    vertex 16.335791587829586 22.890995225906398 2.5538862661133113
    vertex 17.338105440139763 22.57315655708317 2.5538862661133095
  endloop
endfacet
facet normal -0.1378156137313172 -0.9137822032863098 0.38211116388961724
  outer loop
    vertex 16.366649866104122 23.03655024528507 2.913096757293732
    vertex 15.292142391204823 23.117313585281398 2.7186931089172677
    vertex 16.335791587829586 22.890995225906398 2.5538862661133113
  endloop
endfacet
facet normal -0.10841681075870452 -0.9749511863399668 0.19420602307653326
  outer loop
    vertex 15.292604923248284 23.155986509323146 2.913096757293732
    vertex 15.292142391204823 23.117313585281398 2.7186931089172677
    vertex 16.366649866104122 23.03655024528507 2.913096757293732
  endloop
endfacet
facet normal -0.09218334862115701 -0.8279364393113596 0.5531938924982975
  outer loop
    vertex 15.292142391204823 23.117313585281398 2.7186931089172677
    vertex 15.292199134826653 23.007189950943037 2.5538862661133113
    vertex 16.335791587829586 22.890995225906398 2.5538862661133113
  endloop
endfacet
facet normal -0.01812211362508824 -0.9998329671437857 0.0023720898408771825
  outer loop
    vertex 20.73609161376952 17.57478400230411 2.913096757293725
    vertex 20.587313294410702 17.57662840843203 2.553886266113304
    vertex 20.697388291358937 17.57502408981325 2.7186106160888914
  endloop
endfacet
facet normal -0.9211318186275209 -0.07919630528543434 0.3811090630529434
  outer loop
    vertex 20.643520593643185 18.65147706031802 2.9130967572937263
    vertex 20.587313294410702 17.57662840843203 2.553886266113304
    vertex 20.73609161376952 17.57478400230411 2.913096757293725
  endloop
endfacet
facet normal -0.9211318465583795 -0.0791962828237409 0.3811090002123434
  outer loop
    vertex 20.643520593643185 18.65147706031802 2.9130967572937263
    vertex 20.497240543365468 18.62426444053656 2.5538862661133055
    vertex 20.587313294410702 17.57662840843203 2.553886266113304
  endloop
endfacet
facet normal -0.4459991197682874 -0.809839782311544 0.3811093178492282
  outer loop
    vertex 17.396763801574696 22.70989581108098 2.913096757293732
    vertex 17.338105440139763 22.57315655708317 2.5538862661133095
    vertex 18.343370079994198 22.18857594490055 2.9130967572937307
  endloop
endfacet
facet normal -0.44599913325623697 -0.8098397315388 0.38110940995447756
  outer loop
    vertex 18.343370079994198 22.18857594490055 2.9130967572937307
    vertex 17.338105440139763 22.57315655708317 2.5538862661133095
    vertex 18.259165167808522 22.065905771255544 2.5538862661133095
  endloop
endfacet
facet normal -0.9604751453871522 -0.27836575776041306 -1.5288945131306714e-17
  outer loop
    vertex 20.34270030260085 19.68942948341374 2.9130967572937276
    vertex 20.643520593643185 18.65147706031802 2.9130967572937263
    vertex 20.643520593643185 18.65147706031802 5.689676022888208
  endloop
endfacet
facet normal -0.9963243288921699 -0.08566114438628056 4.11521426650934e-18
  outer loop
    vertex 20.643520593643185 18.65147706031802 8.889676022888208
    vertex 20.73609161376952 17.57478400230411 5.689676022888208
    vertex 20.73609161376952 17.57478400230411 8.889676022888208
  endloop
endfacet
facet normal -0.9963243288921699 -0.08566114438628056 4.11521426650934e-18
  outer loop
    vertex 20.73609161376952 17.57478400230411 5.689676022888208
    vertex 20.643520593643185 18.65147706031802 8.889676022888208
    vertex 20.643520593643185 18.65147706031802 2.9130967572937263
  endloop
endfacet
facet normal -0.9963243288921699 -0.08566114438628056 4.11521426650934e-18
  outer loop
    vertex 20.643520593643185 18.65147706031802 2.9130967572937263
    vertex 20.643520593643185 18.65147706031802 8.889676022888208
    vertex 20.643520593643185 18.65147706031802 5.689676022888208
  endloop
endfacet
facet normal -0.11052104705122208 -0.9938737838169903 7.387587121916475e-18
  outer loop
    vertex 16.366649866104122 23.03655024528507 5.6896760228882135
    vertex 15.292604923248284 23.155986509323146 2.913096757293732
    vertex 16.366649866104122 23.03655024528507 2.913096757293732
  endloop
endfacet
facet normal -0.3022715594007218 -0.9532218547523216 6.595315659618438e-17
  outer loop
    vertex 17.396763801574696 22.70989581108098 5.6896760228882135
    vertex 16.366649866104122 23.03655024528507 5.6896760228882135
    vertex 16.366649866104122 23.03655024528507 2.913096757293732
  endloop
endfacet
facet normal -0.3022715594007218 -0.9532218547523216 6.595315659618438e-17
  outer loop
    vertex 16.366649866104122 23.03655024528507 5.6896760228882135
    vertex 17.396763801574696 22.70989581108098 5.6896760228882135
    vertex 17.396763801574696 22.70989581108098 8.889676022888214
  endloop
endfacet
facet normal -0.3022715594007218 -0.9532218547523216 6.595315659618438e-17
  outer loop
    vertex 16.366649866104122 23.03655024528507 5.6896760228882135
    vertex 17.396763801574696 22.70989581108098 8.889676022888214
    vertex 16.366649866104122 23.03655024528507 8.889676022888214
  endloop
endfacet
facet normal -0.30227155940072126 -0.9532218547523218 0.0
  outer loop
    vertex 17.396763801574696 22.70989581108098 5.6896760228882135
    vertex 16.366649866104122 23.03655024528507 2.913096757293732
    vertex 17.396763801574696 22.70989581108098 2.913096757293732
  endloop
endfacet
facet normal -0.48240633445230063 -0.8759475603483894 2.683626559591878e-16
  outer loop
    vertex 18.343370079994198 22.18857594490055 5.6896760228882135
    vertex 17.396763801574696 22.70989581108098 5.6896760228882135
    vertex 17.396763801574696 22.70989581108098 2.913096757293732
  endloop
endfacet
facet normal -0.48240633445230063 -0.8759475603483894 2.683626559591878e-16
  outer loop
    vertex 17.396763801574696 22.70989581108098 5.6896760228882135
    vertex 18.343370079994198 22.18857594490055 5.6896760228882135
    vertex 18.343370079994198 22.18857594490055 8.889676022888214
  endloop
endfacet
facet normal -0.48240633445230063 -0.8759475603483894 2.683626559591878e-16
  outer loop
    vertex 17.396763801574696 22.70989581108098 5.6896760228882135
    vertex 18.343370079994198 22.18857594490055 8.889676022888214
    vertex 17.396763801574696 22.70989581108098 8.889676022888214
  endloop
endfacet
facet normal -0.4824063344523006 -0.8759475603483894 1.6764308008687067e-17
  outer loop
    vertex 18.343370079994198 22.18857594490055 5.6896760228882135
    vertex 17.396763801574696 22.70989581108098 2.913096757293732
    vertex 18.343370079994198 22.18857594490055 2.9130967572937307
  endloop
endfacet
facet normal -0.6440083517939378 -0.7650184591365465 3.644432418270779e-16
  outer loop
    vertex 19.1700991988182 21.49261828422549 5.689676022888212
    vertex 18.343370079994198 22.18857594490055 5.6896760228882135
    vertex 18.343370079994198 22.18857594490055 2.9130967572937307
  endloop
endfacet
facet normal -0.6440083517939378 -0.7650184591365465 3.644432418270779e-16
  outer loop
    vertex 18.343370079994198 22.18857594490055 5.6896760228882135
    vertex 19.1700991988182 21.49261828422549 5.689676022888212
    vertex 19.1700991988182 21.49261828422549 8.88967602288821
  endloop
endfacet
facet normal -0.6440083517939378 -0.7650184591365465 3.644432418270779e-16
  outer loop
    vertex 18.343370079994198 22.18857594490055 5.6896760228882135
    vertex 19.1700991988182 21.49261828422549 8.88967602288821
    vertex 18.343370079994198 22.18857594490055 8.889676022888214
  endloop
endfacet
facet normal -0.6440083517939378 -0.7650184591365464 1.919515974447246e-17
  outer loop
    vertex 19.1700991988182 21.49261828422549 5.689676022888212
    vertex 18.343370079994198 22.18857594490055 2.9130967572937307
    vertex 19.1700991988182 21.49261828422549 2.9130967572937307
  endloop
endfacet
facet normal -0.7808668009717896 -0.6246975581352018 4.270557115441319e-16
  outer loop
    vertex 19.1700991988182 21.49261828422549 8.88967602288821
    vertex 19.845188334584233 20.64876242637637 5.689676022888211
    vertex 19.845188334584233 20.64876242637637 8.88967602288821
  endloop
endfacet
facet normal -0.7808668009717896 -0.6246975581352018 4.270557115441319e-16
  outer loop
    vertex 19.845188334584233 20.64876242637637 5.689676022888211
    vertex 19.1700991988182 21.49261828422549 8.88967602288821
    vertex 19.1700991988182 21.49261828422549 2.9130967572937307
  endloop
endfacet
facet normal -0.7808668009717896 -0.6246975581352018 4.270557115441319e-16
  outer loop
    vertex 19.1700991988182 21.49261828422549 2.9130967572937307
    vertex 19.1700991988182 21.49261828422549 8.88967602288821
    vertex 19.1700991988182 21.49261828422549 5.689676022888212
  endloop
endfacet
facet normal -0.7808668009717894 -0.6246975581352018 1.880557882276666e-17
  outer loop
    vertex 19.1700991988182 21.49261828422549 2.9130967572937307
    vertex 19.845188334584233 20.64876242637637 2.913096757293729
    vertex 19.845188334584233 20.64876242637637 5.689676022888211
  endloop
endfacet
facet normal -0.8877242507983688 -0.4603755581527703 3.3870088929241854e-16
  outer loop
    vertex 19.845188334584233 20.64876242637637 8.88967602288821
    vertex 20.34270030260085 19.68942948341374 5.689676022888209
    vertex 20.34270030260085 19.68942948341374 8.889676022888208
  endloop
endfacet
facet normal -0.8877242507983688 -0.4603755581527703 3.3870088929241854e-16
  outer loop
    vertex 20.34270030260085 19.68942948341374 5.689676022888209
    vertex 19.845188334584233 20.64876242637637 8.88967602288821
    vertex 19.845188334584233 20.64876242637637 2.913096757293729
  endloop
endfacet
facet normal -0.8877242507983688 -0.4603755581527703 3.3870088929241854e-16
  outer loop
    vertex 19.845188334584233 20.64876242637637 2.913096757293729
    vertex 19.845188334584233 20.64876242637637 8.88967602288821
    vertex 19.845188334584233 20.64876242637637 5.689676022888211
  endloop
endfacet
facet normal -0.8877242507983684 -0.46037555815277165 0.0
  outer loop
    vertex 19.845188334584233 20.64876242637637 2.913096757293729
    vertex 20.34270030260085 19.68942948341374 2.9130967572937276
    vertex 20.34270030260085 19.68942948341374 5.689676022888209
  endloop
endfacet
facet normal -0.9604751453871522 -0.27836575776041306 2.8458730354085723e-18
  outer loop
    vertex 20.34270030260085 19.68942948341374 8.889676022888208
    vertex 20.643520593643185 18.65147706031802 5.689676022888208
    vertex 20.643520593643185 18.65147706031802 8.889676022888208
  endloop
endfacet
facet normal -0.9604751453871522 -0.27836575776041306 2.8458730354085723e-18
  outer loop
    vertex 20.643520593643185 18.65147706031802 5.689676022888208
    vertex 20.34270030260085 19.68942948341374 8.889676022888208
    vertex 20.34270030260085 19.68942948341374 2.9130967572937276
  endloop
endfacet
facet normal -0.9604751453871522 -0.27836575776041306 2.8458730354085723e-18
  outer loop
    vertex 20.34270030260085 19.68942948341374 2.9130967572937276
    vertex 20.34270030260085 19.68942948341374 8.889676022888208
    vertex 20.34270030260085 19.68942948341374 5.689676022888209
  endloop
endfacet
facet normal -0.6752012431416713 0.737633568419945 6.688103971540167e-16
  outer loop
    vertex 18.66079950332641 8.336116514205987 8.889676022888196
    vertex 19.41276502609252 9.024436674118066 2.913096757293715
    vertex 18.66079950332641 8.336116514205987 2.913096757293714
  endloop
endfacet
facet normal -0.6752012431416713 0.737633568419945 6.688103971540167e-16
  outer loop
    vertex 19.41276502609252 9.024436674118066 2.913096757293715
    vertex 18.66079950332641 8.336116514205987 8.889676022888196
    vertex 19.41276502609252 9.024436674118066 8.889676022888196
  endloop
endfacet
facet normal -0.5184063412193691 0.8551344136353929 1.0455168272973803e-15
  outer loop
    vertex 17.789049625396725 7.807637414932301 8.889676022888194
    vertex 18.66079950332641 8.336116514205987 2.913096757293714
    vertex 17.789049625396725 7.807637414932301 2.913096757293714
  endloop
endfacet
facet normal -0.5184063412193691 0.8551344136353929 1.0455168272973803e-15
  outer loop
    vertex 18.66079950332641 8.336116514205987 2.913096757293714
    vertex 17.789049625396725 7.807637414932301 8.889676022888194
    vertex 18.66079950332641 8.336116514205987 8.889676022888196
  endloop
endfacet
facet normal -0.3417083606637634 0.9398060418259098 1.0503437007529626e-15
  outer loop
    vertex 16.830983400344845 7.459289751052899 8.889676022888194
    vertex 17.789049625396725 7.807637414932301 2.913096757293714
    vertex 16.830983400344845 7.45928975105291 2.913096757293714
  endloop
endfacet
facet normal -0.3417083606637634 0.9398060418259098 1.0503437007529626e-15
  outer loop
    vertex 17.789049625396725 7.807637414932301 2.913096757293714
    vertex 16.830983400344845 7.459289751052899 8.889676022888194
    vertex 17.789049625396725 7.807637414932301 8.889676022888194
  endloop
endfacet
facet normal -0.15189247514800822 0.9883970234644638 9.692933463069451e-16
  outer loop
    vertex 15.823381423950185 7.304445943832448 8.889676022888194
    vertex 16.830983400344845 7.45928975105291 2.913096757293714
    vertex 15.823381423950185 7.304445943832448 2.913096757293712
  endloop
endfacet
facet normal -0.15189247514800822 0.9883970234644638 9.692933463069451e-16
  outer loop
    vertex 16.830983400344845 7.45928975105291 2.913096757293714
    vertex 15.823381423950185 7.304445943832448 8.889676022888194
    vertex 16.830983400344845 7.459289751052899 8.889676022888194
  endloop
endfacet
facet normal 0.0 -1.0 0.0
  outer loop
    vertex 9.999999999999993 23.115694723129327 5.689676022888208
    vertex 2.2299999999999955 23.115694723129327 7.2896760228882025
    vertex 2.2299999999999955 23.115694723129327 5.689676022888205
  endloop
endfacet
facet normal 0.0 -1.0 0.0
  outer loop
    vertex 2.2299999999999955 23.115694723129327 7.2896760228882025
    vertex 9.999999999999993 23.115694723129327 5.689676022888208
    vertex 9.999999999999993 23.115694723129327 7.289676022888208
  endloop
endfacet
facet normal 0.0 1.0 0.0
  outer loop
    vertex 2.230000000000001 7.304305276870772 5.689676022888202
    vertex 9.999999999999993 7.304305276870772 7.289676022888199
    vertex 9.999999999999993 7.304305276870772 5.689676022888201
  endloop
endfacet
facet normal 0.0 1.0 0.0
  outer loop
    vertex 9.999999999999993 7.304305276870772 7.289676022888199
    vertex 2.230000000000001 7.304305276870772 5.689676022888202
    vertex 2.230000000000001 7.304305276870772 7.289676022888199
  endloop
endfacet
facet normal 1.5327087110328443e-16 3.878290574892672e-16 1.0
  outer loop
    vertex 9.999999999999993 7.304305276870772 5.689676022888201
    vertex 3.5799999999999956 11.71000000000004 5.689676022888199
    vertex 2.230000000000001 7.304305276870772 5.689676022888202
  endloop
endfacet
facet normal 1.5327087110328443e-16 3.878290574892672e-16 1.0
  outer loop
    vertex 3.5799999999999956 11.71000000000004 5.689676022888199
    vertex 9.999999999999993 7.304305276870772 5.689676022888201
    vertex 9.999999999999993 11.71000000000004 5.689676022888199
  endloop
endfacet
facet normal 1.5327087110328443e-16 3.878290574892672e-16 1.0
  outer loop
    vertex 2.230000000000001 7.304305276870772 5.689676022888202
    vertex 3.5799999999999956 11.860000000000028 5.689676022888199
    vertex 2.2299999999999955 11.860000000000028 5.689676022888201
  endloop
endfacet
facet normal 1.5327087110328443e-16 3.878290574892672e-16 1.0
  outer loop
    vertex 3.5799999999999956 11.860000000000028 5.689676022888199
    vertex 2.230000000000001 7.304305276870772 5.689676022888202
    vertex 3.5799999999999956 11.71000000000004 5.689676022888199
  endloop
endfacet
facet normal -1.986343451446486e-16 7.30572895296982e-16 1.0
  outer loop
    vertex 3.5799999999999956 18.560000000000038 5.689676022888209
    vertex 2.2299999999999955 23.115694723129327 5.689676022888205
    vertex 2.2299999999999955 18.560000000000038 5.689676022888211
  endloop
endfacet
facet normal -1.986343451446486e-16 7.30572895296982e-16 1.0
  outer loop
    vertex 2.2299999999999955 23.115694723129327 5.689676022888205
    vertex 3.5799999999999956 18.560000000000038 5.689676022888209
    vertex 3.5799999999999956 18.71000000000005 5.689676022888209
  endloop
endfacet
facet normal -1.986343451446486e-16 7.30572895296982e-16 1.0
  outer loop
    vertex 2.2299999999999955 23.115694723129327 5.689676022888205
    vertex 3.5799999999999956 18.71000000000005 5.689676022888209
    vertex 9.999999999999993 23.115694723129327 5.689676022888208
  endloop
endfacet
facet normal -1.986343451446486e-16 7.30572895296982e-16 1.0
  outer loop
    vertex 9.999999999999993 23.115694723129327 5.689676022888208
    vertex 3.5799999999999956 18.71000000000005 5.689676022888209
    vertex 9.999999999999993 18.71000000000005 5.689676022888209
  endloop
endfacet
facet normal -1.986343451446486e-16 7.30572895296982e-16 1.0
  outer loop
    vertex 9.999999999999993 23.115694723129327 5.689676022888208
    vertex 9.999999999999993 18.71000000000005 5.689676022888209
    vertex 9.999999999999993 20.83784736156466 5.689676022888211
  endloop
endfacet
facet normal 1.0 0.0 0.0
  outer loop
    vertex 9.999999999999993 23.115694723129327 2.913096757293732
    vertex 9.999999999999993 11.71000000000004 5.3396760228882
    vertex 9.999999999999993 7.3043052768707835 2.913096757293712
  endloop
endfacet
facet normal 1.0 0.0 0.0
  outer loop
    vertex 9.999999999999993 11.71000000000004 5.3396760228882
    vertex 9.999999999999993 23.115694723129327 2.913096757293732
    vertex 9.999999999999993 18.71000000000005 5.33967602288821
  endloop
endfacet
facet normal 1.0 0.0 0.0
  outer loop
    vertex 9.999999999999993 18.71000000000005 5.33967602288821
    vertex 9.999999999999993 23.115694723129327 2.913096757293732
    vertex 9.999999999999993 18.71000000000005 5.689676022888209
  endloop
endfacet
facet normal 1.0 0.0 0.0
  outer loop
    vertex 9.999999999999993 18.71000000000005 5.689676022888209
    vertex 9.999999999999993 23.115694723129327 2.913096757293732
    vertex 9.999999999999993 20.83784736156466 5.689676022888211
  endloop
endfacet
facet normal 1.0 0.0 0.0
  outer loop
    vertex 9.999999999999993 20.83784736156466 5.689676022888211
    vertex 9.999999999999993 23.115694723129327 2.913096757293732
    vertex 9.999999999999993 23.115694723129327 5.689676022888208
  endloop
endfacet
facet normal 1.0 0.0 0.0
  outer loop
    vertex 9.999999999999993 7.3043052768707835 2.913096757293712
    vertex 9.999999999999993 11.71000000000004 5.689676022888199
    vertex 9.999999999999993 7.304305276870772 5.689676022888201
  endloop
endfacet
facet normal 1.0 0.0 0.0
  outer loop
    vertex 9.999999999999993 11.71000000000004 5.689676022888199
    vertex 9.999999999999993 7.3043052768707835 2.913096757293712
    vertex 9.999999999999993 11.71000000000004 5.3396760228882
  endloop
endfacet
facet normal 2.8691519444528044e-15 -7.365584096207197e-16 1.0
  outer loop
    vertex 9.999999999999993 11.71000000000004 5.3396760228882
    vertex 8.429999999999993 18.71000000000005 5.33967602288821
    vertex 8.429999999999993 11.71000000000004 5.33967602288821
  endloop
endfacet
facet normal 2.8691519444528044e-15 -7.365584096207197e-16 1.0
  outer loop
    vertex 8.429999999999993 18.71000000000005 5.33967602288821
    vertex 9.999999999999993 11.71000000000004 5.3396760228882
    vertex 9.999999999999993 18.71000000000005 5.33967602288821
  endloop
endfacet
facet normal -1.0 0.0 0.0
  outer loop
    vertex 8.429999999999993 18.71000000000005 5.33967602288821
    vertex 8.429999999999993 11.71000000000004 1.9333070228881988
    vertex 8.429999999999993 11.71000000000004 5.33967602288821
  endloop
endfacet
facet normal -1.0 0.0 0.0
  outer loop
    vertex 8.429999999999993 11.71000000000004 1.9333070228881988
    vertex 8.429999999999993 18.71000000000005 5.33967602288821
    vertex 8.429999999999993 18.71000000000005 1.9333070228881986
  endloop
endfacet
facet normal -1.0 0.0 0.0
  outer loop
    vertex 20.73609161376952 17.57478400230411 8.889676022888208
    vertex 20.73609161376952 12.778214654922516 2.913096757293719
    vertex 20.73609161376952 12.778214654922516 8.889676022888201
  endloop
endfacet
facet normal -1.0 0.0 0.0
  outer loop
    vertex 20.73609161376952 12.778214654922516 2.913096757293719
    vertex 20.73609161376952 17.57478400230411 8.889676022888208
    vertex 20.73609161376952 17.57478400230411 2.913096757293725
  endloop
endfacet
facet normal -1.0 0.0 0.0
  outer loop
    vertex 20.73609161376952 17.57478400230411 2.913096757293725
    vertex 20.73609161376952 17.57478400230411 8.889676022888208
    vertex 20.73609161376952 17.57478400230411 5.689676022888208
  endloop
endfacet
facet normal -0.024404634826810222 -0.22195512693660213 0.9747514223767653
  outer loop
    vertex 15.98253679275512 21.344929895401023 1.1786759809265426
    vertex 15.287374973297108 21.64154358863833 1.2288115934143364
    vertex 15.286373615264884 21.4214751338959 1.1786759809265441
  endloop
endfacet
facet normal -0.5779527171623253 -0.0465786600341452 0.8147398880342785
  outer loop
    vertex 19.360881388187405 17.583918533325242 1.3274658635864491
    vertex 19.29799652099609 18.36420031547549 1.3274658635864507
    vertex 19.221729576587666 17.58492251396182 1.2288130239258057
  endloop
endfacet
facet normal -0.06313184869316434 -0.5769976318880387 0.8143022181451917
  outer loop
    vertex 16.054715394973744 21.696813783645684 1.327465863586455
    vertex 15.28797149658202 21.78070660591128 1.327465863586455
    vertex 15.287374973297108 21.64154358863833 1.2288115934143364
  endloop
endfacet
facet normal -0.091990339695114 -0.37173579375562305 0.9237696017101096
  outer loop
    vertex 16.054715394973744 21.696813783645684 1.327465863586455
    vertex 15.287374973297108 21.64154358863833 1.2288115934143364
    vertex 15.98253679275512 21.344929895401023 1.1786759809265426
  endloop
endfacet
facet normal -0.11421514323615684 -0.36693902426211644 0.9232067230740417
  outer loop
    vertex 16.839252948760983 21.45261498451235 1.327465863586455
    vertex 16.054715394973744 21.696813783645684 1.327465863586455
    vertex 15.98253679275512 21.344929895401023 1.1786759809265426
  endloop
endfacet
facet normal -0.1142151694652414 -0.3669388866692572 0.9232067745169292
  outer loop
    vertex 16.839252948760983 21.45261498451235 1.327465863586455
    vertex 15.98253679275512 21.344929895401023 1.1786759809265426
    vertex 16.698971748352037 21.121928892135646 1.1786759809265426
  endloop
endfacet
facet normal -0.18446374212679842 -0.3371385525088688 0.9232067613773216
  outer loop
    vertex 17.560075998306267 21.058220109939608 1.3274658635864534
    vertex 16.839252948760983 21.45261498451235 1.327465863586455
    vertex 16.698971748352037 21.121928892135646 1.1786759809265426
  endloop
endfacet
facet normal -0.18446374457872988 -0.33713878553757953 0.9232066757894677
  outer loop
    vertex 17.560075998306267 21.058220109939608 1.3274658635864534
    vertex 16.698971748352037 21.121928892135646 1.1786759809265426
    vertex 17.357223272323605 20.761769971847585 1.1786759809265426
  endloop
endfacet
facet normal -0.24743926845964123 -0.2940463519447364 0.9232066677251362
  outer loop
    vertex 18.18876457214355 20.529180250167887 1.3274658635864534
    vertex 17.560075998306267 21.058220109939608 1.3274658635864534
    vertex 17.357223272323605 20.761769971847585 1.1786759809265426
  endloop
endfacet
facet normal -0.24743920169909742 -0.29404603781576333 0.923206785670125
  outer loop
    vertex 18.18876457214355 20.529180250167887 1.3274658635864534
    vertex 17.357223272323605 20.761769971847585 1.1786759809265426
    vertex 17.93133759498596 20.27865382194522 1.1786759809265426
  endloop
endfacet
facet normal -0.30065910558026976 -0.23936023763437778 0.9232067909581724
  outer loop
    vertex 18.700531363487237 19.88635273933415 1.327465863586452
    vertex 18.18876457214355 20.529180250167887 1.3274658635864534
    vertex 17.93133759498596 20.27865382194522 1.1786759809265426
  endloop
endfacet
facet normal -0.30065921941494217 -0.23936050076848026 0.9232066856628911
  outer loop
    vertex 18.700531363487237 19.88635273933415 1.327465863586452
    vertex 17.93133759498596 20.27865382194522 1.1786759809265426
    vertex 18.398680210113525 19.691627702713035 1.1786759809265412
  endloop
endfacet
facet normal -0.342025247859012 -0.17523735366918872 0.923206693923956
  outer loop
    vertex 19.07519936561584 19.155082187652628 1.327465863586452
    vertex 18.700531363487237 19.88635273933415 1.327465863586452
    vertex 18.398680210113525 19.691627702713035 1.1786759809265412
  endloop
endfacet
facet normal -0.3420251453343967 -0.17523720609716292 0.923206759917975
  outer loop
    vertex 19.07519936561584 19.155082187652628 1.327465863586452
    vertex 18.398680210113525 19.691627702713035 1.1786759809265412
    vertex 18.740824699401845 19.023835620880185 1.17867598092654
  endloop
endfacet
facet normal -0.36990614649096304 -0.10420524239478332 0.9232067537911812
  outer loop
    vertex 19.29799652099609 18.36420031547549 1.3274658635864507
    vertex 19.07519936561584 19.155082187652628 1.327465863586452
    vertex 18.740824699401845 19.023835620880185 1.17867598092654
  endloop
endfacet
facet normal -0.36990622703786025 -0.1042053196773259 0.9232067127948982
  outer loop
    vertex 19.29799652099609 18.36420031547549 1.3274658635864507
    vertex 18.740824699401845 19.023835620880185 1.17867598092654
    vertex 18.944281816482537 18.301607093811082 1.17867598092654
  endloop
endfacet
facet normal -0.3743809505287487 -0.0803073114008346 0.9237909068705755
  outer loop
    vertex 19.29799652099609 18.36420031547549 1.3274658635864507
    vertex 18.944281816482537 18.301607093811082 1.17867598092654
    vertex 19.221729576587666 17.58492251396182 1.2288130239258057
  endloop
endfacet
facet normal -0.22223224937254152 -0.017835901907177088 0.9748306047421665
  outer loop
    vertex 19.221729576587666 17.58492251396182 1.2288130239258057
    vertex 18.944281816482537 18.301607093811082 1.17867598092654
    vertex 19.001671075820912 17.586546859741258 1.1786759809265384
  endloop
endfacet
facet normal -5.482850899137706e-06 0.22210150162016537 0.9750235499453365
  outer loop
    vertex 15.778661727905263 8.81884642601018 1.2287944272766247
    vertex 15.771445751190177 9.038865766525323 1.1786759809265286
    vertex 11.734420776367179 9.038766107559267 1.1786759809265286
  endloop
endfacet
facet normal -0.006637068422669144 0.10458624595074054 0.9944936734241622
  outer loop
    vertex 15.778661727905263 8.81884642601018 1.2287944272766247
    vertex 11.734420776367179 9.038766107559267 1.1786759809265286
    vertex 11.63531494140624 8.939657888412533 1.1884373143921043
  endloop
endfacet
facet normal -0.0008323643080412746 0.2910424990274094 0.9567097631620256
  outer loop
    vertex 15.778661727905263 8.81884642601018 1.2287944272766247
    vertex 11.63531494140624 8.939657888412533 1.1884373143921043
    vertex 11.540017127990712 8.844358644485505 1.217345567108169
  endloop
endfacet
facet normal 0.0004525046033680604 0.4710369870735374 0.8821133442184561
  outer loop
    vertex 15.778661727905263 8.81884642601018 1.2287944272766247
    vertex 11.540017127990712 8.844358644485505 1.217345567108169
    vertex 11.452190399169913 8.756530485153252 1.264289708496108
  endloop
endfacet
facet normal -0.0028309512661174973 0.6360679990383122 0.7716278159283313
  outer loop
    vertex 15.778661727905263 8.81884642601018 1.2287944272766247
    vertex 11.452190399169913 8.756530485153252 1.264289708496108
    vertex 11.375209808349602 8.679547510147154 1.3274658635864394
  endloop
endfacet
facet normal -1.4201459354389895e-05 0.5783215874376122 0.8158088877316543
  outer loop
    vertex 15.7831163406372 8.679655752182068 1.3274658635864394
    vertex 15.778661727905263 8.81884642601018 1.2287944272766247
    vertex 11.375209808349602 8.679547510147154 1.3274658635864394
  endloop
endfacet
facet normal -0.10910422978896739 0.7012742885865396 0.7044931789659847
  outer loop
    vertex 16.470291614532467 8.78656645774847 1.3274658635864394
    vertex 15.7831163406372 8.679655752182068 1.3274658635864394
    vertex 15.819305419921864 7.453236303329524 2.5538862661132926
  endloop
endfacet
facet normal -0.10802305744210677 0.7010786692416439 0.7048543953152488
  outer loop
    vertex 16.794084310531606 7.603431425094655 2.5538862661132926
    vertex 16.470291614532467 8.78656645774847 1.3274658635864394
    vertex 15.819305419921864 7.453236303329524 2.5538862661132926
  endloop
endfacet
facet normal -0.23956857661333072 0.6663625004621297 0.7060934180951702
  outer loop
    vertex 17.188154458999627 9.044650278091456 1.3274658635864394
    vertex 16.470291614532467 8.78656645774847 1.3274658635864394
    vertex 16.794084310531606 7.603431425094655 2.5538862661132926
  endloop
endfacet
facet normal -0.2422763012454259 0.6663368151280521 0.7051931952733519
  outer loop
    vertex 17.724752187728875 7.941817007064867 2.5538862661132926
    vertex 17.188154458999627 9.044650278091456 1.3274658635864394
    vertex 16.794084310531606 7.603431425094655 2.5538862661132926
  endloop
endfacet
facet normal -0.3672013545034679 0.606025211003272 0.705617891552686
  outer loop
    vertex 17.840579986572255 9.43996640205389 1.3274658635864394
    vertex 17.188154458999627 9.044650278091456 1.3274658635864394
    vertex 17.724752187728875 7.941817007064867 2.5538862661132926
  endloop
endfacet
facet normal -0.36736861110648555 0.6059909551943524 0.7055602495863328
  outer loop
    vertex 18.5715719461441 8.455182752609298 2.5538862661132926
    vertex 17.840579986572255 9.43996640205389 1.3274658635864394
    vertex 17.724752187728875 7.941817007064867 2.5538862661132926
  endloop
endfacet
facet normal -0.48042067914957565 0.5215314951738786 0.7051247198809294
  outer loop
    vertex 18.5715719461441 8.455182752609298 2.5538862661132926
    vertex 18.401654005050656 9.95681258201603 1.3274658635864407
    vertex 17.840579986572255 9.43996640205389 1.3274658635864394
  endloop
endfacet
facet normal -0.47822653400298626 0.5224451512915189 0.7059394067959888
  outer loop
    vertex 19.302032887935628 9.123819074630783 2.5538862661132944
    vertex 18.401654005050656 9.95681258201603 1.3274658635864407
    vertex 18.5715719461441 8.455182752609298 2.5538862661132926
  endloop
endfacet
facet normal -0.5747142559136569 0.41620043518668487 0.7046138813563254
  outer loop
    vertex 19.302032887935628 9.123819074630783 2.5538862661132944
    vertex 18.849090576171868 10.574659547805846 1.3274658635864407
    vertex 18.401654005050656 9.95681258201603 1.3274658635864407
  endloop
endfacet
facet normal -0.5706061777501997 0.4189340710701035 0.7063305416091937
  outer loop
    vertex 19.888091757893555 9.922056398391746 2.5538862661132957
    vertex 18.849090576171868 10.574659547805846 1.3274658635864407
    vertex 19.302032887935628 9.123819074630783 2.5538862661132944
  endloop
endfacet
facet normal -0.6463135907746722 0.294181596650886 0.7040851728107084
  outer loop
    vertex 19.888091757893555 9.922056398391746 2.5538862661132957
    vertex 19.165117084980007 11.268966159820618 1.327465863586442
    vertex 18.849090576171868 10.574659547805846 1.3274658635864407
  endloop
endfacet
facet normal -0.6409782996580704 0.29945690565344035 0.706733599755888
  outer loop
    vertex 20.307248890399922 10.819249353408846 2.5538862661132957
    vertex 19.165117084980007 11.268966159820618 1.327465863586442
    vertex 19.888091757893555 9.922056398391746 2.5538862661132957
  endloop
endfacet
facet normal -0.6923437480826459 0.16029242945961839 0.7035385359373053
  outer loop
    vertex 20.307248890399922 10.819249353408846 2.5538862661132957
    vertex 19.337180972099297 12.012153825759912 1.327465863586442
    vertex 19.165117084980007 11.268966159820618 1.327465863586442
  endloop
endfacet
facet normal -0.6866640425122872 0.16862250465559608 0.7071484594088835
  outer loop
    vertex 20.54341226816177 11.780953130722073 2.553886266113297
    vertex 19.337180972099297 12.012153825759912 1.327465863586442
    vertex 20.307248890399922 10.819249353408846 2.5538862661132957
  endloop
endfacet
facet normal -0.7105705527119331 0.02318429082078042 0.7032438967227481
  outer loop
    vertex 19.360881388187405 12.738542995452912 1.3274658635864436
    vertex 19.337180972099297 12.012153825759912 1.327465863586442
    vertex 20.54341226816177 11.780953130722073 2.553886266113297
  endloop
endfacet
facet normal -0.7072155320538839 0.03125046483417087 0.7063070151636541
  outer loop
    vertex 20.5873018503189 12.77419897079471 2.5538862661132984
    vertex 19.360881388187405 12.738542995452912 1.3274658635864436
    vertex 20.54341226816177 11.780953130722073 2.553886266113297
  endloop
endfacet
facet normal 0.007466358343692441 -0.9807578333321444 0.19508543218477753
  outer loop
    vertex 9.999999999999993 23.115694723129327 2.913096757293732
    vertex 15.292142391204823 23.117313585281398 2.7186931089172677
    vertex 15.292604923248284 23.155986509323146 2.913096757293732
  endloop
endfacet
facet normal 0.008083476264382071 -0.977254873831595 0.21191406037324756
  outer loop
    vertex 9.999999999999993 23.115694723129327 2.913096757293732
    vertex 9.999999999999993 23.070065698623683 2.7026756719360656
    vertex 15.292142391204823 23.117313585281398 2.7186931089172677
  endloop
endfacet
facet normal 0.005741582101752013 -0.8314474837103322 0.5555736819421218
  outer loop
    vertex 15.292142391204823 23.117313585281398 2.7186931089172677
    vertex 9.999999999999993 23.070065698623683 2.7026756719360656
    vertex 15.292199134826653 23.007189950943037 2.5538862661133113
  endloop
endfacet
facet normal 0.006263067464747388 -0.8216371818407973 0.5699764165319865
  outer loop
    vertex 9.999999999999993 23.070065698623683 2.7026756719360656
    vertex 10.148789405822745 22.967983446121263 2.5538862661133113
    vertex 15.292199134826653 23.007189950943037 2.5538862661133113
  endloop
endfacet
facet normal -0.7071051192701805 8.350080431465878e-07 0.7071084430985156
  outer loop
    vertex 20.5873018503189 12.77419897079471 2.5538862661132984
    vertex 19.360881388187405 17.583918533325242 1.3274658635864491
    vertex 19.360881388187405 12.738542995452912 1.3274658635864436
  endloop
endfacet
facet normal -0.7071051192701805 8.350080431465878e-07 0.7071084430985156
  outer loop
    vertex 19.360881388187405 17.583918533325242 1.3274658635864491
    vertex 20.5873018503189 12.77419897079471 2.5538862661132984
    vertex 20.587313294410702 17.57662840843203 2.553886266113304
  endloop
endfacet
facet normal -0.07847020085280641 -0.7047730382752541 0.7050797062023467
  outer loop
    vertex 16.335791587829586 22.890995225906398 2.5538862661133113
    vertex 15.292199134826653 23.007189950943037 2.5538862661133113
    vertex 15.28797149658202 21.78070660591128 1.327465863586455
  endloop
endfacet
facet normal -0.07718358726088807 -0.7054244092645748 0.7045701502840341
  outer loop
    vertex 16.335791587829586 22.890995225906398 2.5538862661133113
    vertex 15.28797149658202 21.78070660591128 1.327465863586455
    vertex 16.054715394973744 21.696813783645684 1.327465863586455
  endloop
endfacet
facet normal -0.2140118587957979 -0.6748928675792026 0.7062000719240181
  outer loop
    vertex 17.338105440139763 22.57315655708317 2.5538862661133095
    vertex 16.335791587829586 22.890995225906398 2.5538862661133113
    vertex 16.054715394973744 21.696813783645684 1.327465863586455
  endloop
endfacet
facet normal -0.2108604066888613 -0.6774312905771501 0.7047160672483527
  outer loop
    vertex 17.338105440139763 22.57315655708317 2.5538862661133095
    vertex 16.054715394973744 21.696813783645684 1.327465863586455
    vertex 16.839252948760983 21.45261498451235 1.327465863586455
  endloop
endfacet
facet normal -0.3417022978432636 -0.6204588227138892 0.7058827019874678
  outer loop
    vertex 18.259165167808522 22.065905771255544 2.5538862661133095
    vertex 17.338105440139763 22.57315655708317 2.5538862661133095
    vertex 16.839252948760983 21.45261498451235 1.327465863586455
  endloop
endfacet
facet normal -0.3403564081677194 -0.6220586520895034 0.7051244916890627
  outer loop
    vertex 18.259165167808522 22.065905771255544 2.5538862661133095
    vertex 16.839252948760983 21.45261498451235 1.327465863586455
    vertex 17.560075998306267 21.058220109939608 1.3274658635864534
  endloop
endfacet
facet normal -0.45636824484186556 -0.5421205430992178 0.7055730591864773
  outer loop
    vertex 19.063583016395558 21.388730249404958 2.553886266113308
    vertex 18.259165167808522 22.065905771255544 2.5538862661133095
    vertex 17.560075998306267 21.058220109939608 1.3274658635864534
  endloop
endfacet
facet normal -0.45629868658666084 -0.5422460429310013 0.705521606717299
  outer loop
    vertex 19.063583016395558 21.388730249404958 2.553886266113308
    vertex 17.560075998306267 21.058220109939608 1.3274658635864534
    vertex 18.18876457214355 20.529180250167887 1.3274658635864534
  endloop
endfacet
facet normal -0.5535862966051778 -0.4428720673368899 0.705270546800101
  outer loop
    vertex 19.72045320272445 20.567648134231604 2.553886266113308
    vertex 19.063583016395558 21.388730249404958 2.553886266113308
    vertex 18.18876457214355 20.529180250167887 1.3274658635864534
  endloop
endfacet
facet normal -0.5541397580504926 -0.4411608419895668 0.7059080960314862
  outer loop
    vertex 19.72045320272445 20.567648134231604 2.553886266113308
    vertex 18.18876457214355 20.529180250167887 1.3274658635864534
    vertex 18.700531363487237 19.88635273933415 1.327465863586452
  endloop
endfacet
facet normal -0.629602011765779 -0.3265128309563775 0.7049756577367307
  outer loop
    vertex 20.204538598656644 19.634205064773585 2.553886266113307
    vertex 19.72045320272445 20.567648134231604 2.553886266113308
    vertex 18.700531363487237 19.88635273933415 1.327465863586452
  endloop
endfacet
facet normal -0.6300472365603381 -0.3228060241533125 0.7062837605899009
  outer loop
    vertex 20.204538598656644 19.634205064773585 2.553886266113307
    vertex 18.700531363487237 19.88635273933415 1.327465863586452
    vertex 19.07519936561584 19.155082187652628 1.327465863586452
  endloop
endfacet
facet normal -0.6814734929034537 -0.1975052907600787 0.7046882563174608
  outer loop
    vertex 20.497240543365468 18.62426444053656 2.5538862661133055
    vertex 20.204538598656644 19.634205064773585 2.553886266113307
    vertex 19.07519936561584 19.155082187652628 1.327465863586452
  endloop
endfacet
facet normal -0.6810564531835903 -0.19185853888010623 0.706648716574069
  outer loop
    vertex 20.497240543365468 18.62426444053656 2.5538862661133055
    vertex 19.07519936561584 19.155082187652628 1.327465863586452
    vertex 19.29799652099609 18.36420031547549 1.3274658635864507
  endloop
endfacet
facet normal -0.7071859157322192 -0.06080182332263545 0.7044084176602561
  outer loop
    vertex 20.497240543365468 18.62426444053656 2.5538862661133055
    vertex 19.29799652099609 18.36420031547549 1.3274658635864507
    vertex 20.587313294410702 17.57662840843203 2.553886266113304
  endloop
endfacet
facet normal -0.7061266493460938 -0.05690851892249827 0.7057949954181499
  outer loop
    vertex 19.29799652099609 18.36420031547549 1.3274658635864507
    vertex 19.360881388187405 17.583918533325242 1.3274658635864491
    vertex 20.587313294410702 17.57662840843203 2.553886266113304
  endloop
endfacet
facet normal 0.7071067811865546 -8.245033441011385e-16 0.7071067811865406
  outer loop
    vertex 9.999999999999993 23.070065698623683 2.7026756719360656
    vertex 9.999999999999993 7.349934778213561 2.702675671936047
    vertex 10.148789405822745 7.453098497390798 2.5538862661132926
  endloop
endfacet
facet normal 0.7071067811865468 -8.402504401725653e-16 0.7071067811865483
  outer loop
    vertex 11.375209808349602 8.679547510147154 1.3274658635864394
    vertex 10.148789405822745 22.967983446121263 2.5538862661133113
    vertex 10.148789405822745 7.453098497390798 2.5538862661132926
  endloop
endfacet
facet normal 0.7071067811865468 -8.402504401725653e-16 0.7071067811865483
  outer loop
    vertex 10.148789405822745 22.967983446121263 2.5538862661133113
    vertex 11.375209808349602 8.679547510147154 1.3274658635864394
    vertex 11.375209808349602 21.750445566177415 1.327465863586455
  endloop
endfacet
facet normal 0.707106781186554 -8.349495350146613e-16 0.7071067811865411
  outer loop
    vertex 9.999999999999993 23.070065698623683 2.7026756719360656
    vertex 10.148789405822745 7.453098497390798 2.5538862661132926
    vertex 10.148789405822745 22.967983446121263 2.5538862661133113
  endloop
endfacet
facet normal -0.9807664915090055 -2.281409165629694e-16 0.1951847564056071
  outer loop
    vertex 20.73609161376952 17.57478400230411 2.913096757293725
    vertex 20.697384834289544 12.777175626754783 2.7186025098571953
    vertex 20.73609161376952 12.778214654922516 2.913096757293719
  endloop
endfacet
facet normal -0.9807682713369797 3.769280393005812e-07 0.1951758128932234
  outer loop
    vertex 20.697388291358937 17.57502408981325 2.7186106160888914
    vertex 20.697384834289544 12.777175626754783 2.7186025098571953
    vertex 20.73609161376952 17.57478400230411 2.913096757293725
  endloop
endfacet
facet normal -0.8314157239581564 -3.397299615487158e-07 0.5556508741602222
  outer loop
    vertex 20.697388291358937 17.57502408981325 2.7186106160888914
    vertex 20.5873018503189 12.77419897079471 2.5538862661132984
    vertex 20.697384834289544 12.777175626754783 2.7186025098571953
  endloop
endfacet
facet normal -0.8314469737504256 1.9813212488250757e-06 0.5556041125093778
  outer loop
    vertex 20.587313294410702 17.57662840843203 2.553886266113304
    vertex 20.5873018503189 12.77419897079471 2.5538862661132984
    vertex 20.697388291358937 17.57502408981325 2.7186106160888914
  endloop
endfacet
facet normal -0.8311612836370713 0.03672738406973484 0.5548171048572403
  outer loop
    vertex 20.697384834289544 12.777175626754783 2.7186025098571953
    vertex 20.5873018503189 12.77419897079471 2.5538862661132984
    vertex 20.54341226816177 11.780953130722073 2.553886266113297
  endloop
endfacet
facet normal -0.14901834314489362 0.9696944279991236 0.19361366096896043
  outer loop
    vertex 16.830983400344845 7.45928975105291 2.913096757293714
    vertex 15.822328567504874 7.343085012435965 2.7187665418396123
    vertex 15.823381423950185 7.304445943832448 2.913096757293712
  endloop
endfacet
facet normal -0.9798749334446912 0.04368316608874104 0.19477396080386525
  outer loop
    vertex 20.73609161376952 12.778214654922516 2.913096757293719
    vertex 20.697384834289544 12.777175626754783 2.7186025098571953
    vertex 20.69069015979766 11.759796104431196 2.913096757293718
  endloop
endfacet
facet normal -0.920706016217579 0.079115464304608 0.3821533396538902
  outer loop
    vertex 20.697384834289544 12.777175626754783 2.7186025098571953
    vertex 20.54341226816177 11.780953130722073 2.553886266113297
    vertex 20.69069015979766 11.759796104431196 2.913096757293718
  endloop
endfacet
facet normal -0.8978539832531485 0.2204838967492747 0.3811103200265117
  outer loop
    vertex 20.54341226816177 11.780953130722073 2.553886266113297
    vertex 20.447574198245995 10.769779882431084 2.9130967572937165
    vertex 20.69069015979766 11.759796104431196 2.913096757293718
  endloop
endfacet
facet normal -0.8978539433092748 0.22048392133916783 0.38111039990387213
  outer loop
    vertex 20.54341226816177 11.780953130722073 2.553886266113297
    vertex 20.307248890399922 10.819249353408846 2.5538862661132957
    vertex 20.447574198245995 10.769779882431084 2.9130967572937165
  endloop
endfacet
facet normal -0.8376258270677457 0.39132817384850094 0.3811105275133088
  outer loop
    vertex 20.307248890399922 10.819249353408846 2.5538862661132957
    vertex 20.016077214851972 9.846173963546786 2.9130967572937165
    vertex 20.447574198245995 10.769779882431084 2.9130967572937165
  endloop
endfacet
facet normal -0.8376258814183406 0.3913281536653873 0.38111042878277096
  outer loop
    vertex 20.307248890399922 10.819249353408846 2.5538862661132957
    vertex 19.888091757893555 9.922056398391746 2.5538862661132957
    vertex 20.016077214851972 9.846173963546786 2.9130967572937165
  endloop
endfacet
facet normal -0.7452402505070653 0.547148745066251 0.38111050864098905
  outer loop
    vertex 19.888091757893555 9.922056398391746 2.5538862661132957
    vertex 19.41276502609252 9.024436674118066 2.913096757293715
    vertex 20.016077214851972 9.846173963546786 2.9130967572937165
  endloop
endfacet
facet normal -0.745240097775927 0.547148769606609 0.38111077206620725
  outer loop
    vertex 19.888091757893555 9.922056398391746 2.5538862661132957
    vertex 19.302032887935628 9.123819074630783 2.5538862661132944
    vertex 19.41276502609252 9.024436674118066 2.913096757293715
  endloop
endfacet
facet normal -0.6242433701418976 0.6819638875926167 0.3811108380162534
  outer loop
    vertex 19.41276502609252 9.024436674118066 2.913096757293715
    vertex 19.302032887935628 9.123819074630783 2.5538862661132944
    vertex 18.66079950332641 8.336116514205987 2.913096757293714
  endloop
endfacet
facet normal -0.6242439730307588 0.681963909871295 0.38110981064232585
  outer loop
    vertex 18.66079950332641 8.336116514205987 2.913096757293714
    vertex 19.302032887935628 9.123819074630783 2.5538862661132944
    vertex 18.5715719461441 8.455182752609298 2.5538862661132926
  endloop
endfacet
facet normal -0.12691842612968543 0.8237111909272803 0.5526224633960561
  outer loop
    vertex 15.822328567504874 7.343085012435965 2.7187665418396123
    vertex 16.794084310531606 7.603431425094655 2.5538862661132926
    vertex 15.819305419921864 7.453236303329524 2.5538862661132926
  endloop
endfacet
facet normal -2.0207555173958693e-05 0.8315118077513892 0.5555070775081732
  outer loop
    vertex 15.822328567504874 7.343085012435965 2.7187665418396123
    vertex 15.819305419921864 7.453236303329524 2.5538862661132926
    vertex 10.148789405822745 7.453098497390798 2.5538862661132926
  endloop
endfacet
facet normal -0.0006064294131841732 0.822073312432349 0.5693813319998053
  outer loop
    vertex 15.822328567504874 7.343085012435965 2.7187665418396123
    vertex 10.148789405822745 7.453098497390798 2.5538862661132926
    vertex 9.999999999999993 7.349934778213561 2.702675671936047
  endloop
endfacet
facet normal 0.0006149352070801897 0.9808008085624437 0.1950112708997809
  outer loop
    vertex 15.823381423950185 7.304445943832448 2.913096757293712
    vertex 15.822328567504874 7.343085012435965 2.7187665418396123
    vertex 9.999999999999993 7.349934778213561 2.702675671936047
  endloop
endfacet
facet normal -2.3606885892174723e-05 0.9772863446350865 0.2119230993367782
  outer loop
    vertex 15.823381423950185 7.304445943832448 2.913096757293712
    vertex 9.999999999999993 7.349934778213561 2.702675671936047
    vertex 9.999999999999993 7.3043052768707835 2.913096757293712
  endloop
endfacet
facet normal 0.6343921854938503 -9.175619471124805e-16 0.7730113550164294
  outer loop
    vertex 11.452190399169913 21.674022874832193 1.2642897084961235
    vertex 11.375209808349602 21.750445566177415 1.327465863586455
    vertex 11.375209808349602 8.679547510147154 1.3274658635864394
  endloop
endfacet
facet normal 0.09801973302634205 -1.1356971965974347e-15 0.9951844713104425
  outer loop
    vertex 11.734420776367179 21.393837175369285 1.1786759809265426
    vertex 11.63531494140624 8.939657888412533 1.1884373143921043
    vertex 11.734420776367179 9.038766107559267 1.1786759809265286
  endloop
endfacet
facet normal 0.09801973302635371 -1.2296765033008543e-15 0.9951844713104412
  outer loop
    vertex 11.734420776367179 21.393837175369285 1.1786759809265426
    vertex 11.63531494140624 21.49222537040715 1.1884373143921199
    vertex 11.63531494140624 8.939657888412533 1.1884373143921043
  endloop
endfacet
facet normal 0.2902844663246499 -1.1823626246734026e-15 0.9569403997170427
  outer loop
    vertex 11.63531494140624 21.49222537040715 1.1884373143921199
    vertex 11.540017127990712 8.844358644485505 1.217345567108169
    vertex 11.63531494140624 8.939657888412533 1.1884373143921043
  endloop
endfacet
facet normal 0.4725969405706651 -0.0015466060480546803 0.8812773341990475
  outer loop
    vertex 11.63531494140624 21.49222537040715 1.1884373143921199
    vertex 11.452190399169913 8.756530485153252 1.264289708496108
    vertex 11.540017127990712 8.844358644485505 1.217345567108169
  endloop
endfacet
facet normal 0.6371127107250606 -0.0045703986170610176 0.770757098760074
  outer loop
    vertex 11.63531494140624 21.49222537040715 1.1884373143921199
    vertex 11.375209808349602 8.679547510147154 1.3274658635864394
    vertex 11.452190399169913 8.756530485153252 1.264289708496108
  endloop
endfacet
facet normal 0.29427578739436855 0.004396301292785691 0.9557104339120545
  outer loop
    vertex 11.63531494140624 21.49222537040715 1.1884373143921199
    vertex 11.540017127990712 21.586832246780432 1.2173455671081845
    vertex 11.375209808349602 8.679547510147154 1.3274658635864394
  endloop
endfacet
facet normal 0.47254098057425736 0.001485333691172709 0.8813074466165286
  outer loop
    vertex 11.540017127990712 21.586832246780432 1.2173455671081845
    vertex 11.452190399169913 21.674022874832193 1.2642897084961235
    vertex 11.375209808349602 8.679547510147154 1.3274658635864394
  endloop
endfacet
facet normal 0.0007622895956158726 -0.09796731877298503 0.9951893404609019
  outer loop
    vertex 15.286373615264884 21.4214751338959 1.1786759809265441
    vertex 11.63531494140624 21.49222537040715 1.1884373143921199
    vertex 11.734420776367179 21.393837175369285 1.1786759809265426
  endloop
endfacet
facet normal -0.0016974553296282132 -0.2221191904212091 0.9750180428546084
  outer loop
    vertex 15.287374973297108 21.64154358863833 1.2288115934143364
    vertex 11.63531494140624 21.49222537040715 1.1884373143921199
    vertex 15.286373615264884 21.4214751338959 1.1786759809265441
  endloop
endfacet
facet normal 0.0013213472810332057 -0.2910062174590828 0.9567202493109048
  outer loop
    vertex 15.287374973297108 21.64154358863833 1.2288115934143364
    vertex 11.540017127990712 21.586832246780432 1.2173455671081845
    vertex 11.63531494140624 21.49222537040715 1.1884373143921199
  endloop
endfacet
facet normal 0.004472830743359804 -0.5783383824372861 0.815784719877104
  outer loop
    vertex 15.28797149658202 21.78070660591128 1.327465863586455
    vertex 11.375209808349602 21.750445566177415 1.327465863586455
    vertex 15.287374973297108 21.64154358863833 1.2288115934143364
  endloop
endfacet
facet normal 0.0017509256003754462 -0.6360980802815218 0.7716062250407941
  outer loop
    vertex 15.287374973297108 21.64154358863833 1.2288115934143364
    vertex 11.375209808349602 21.750445566177415 1.327465863586455
    vertex 11.452190399169913 21.674022874832193 1.2642897084961235
  endloop
endfacet
facet normal 0.004174194112491896 -0.47079626430509863 0.8822320860294501
  outer loop
    vertex 15.287374973297108 21.64154358863833 1.2288115934143364
    vertex 11.452190399169913 21.674022874832193 1.2642897084961235
    vertex 11.540017127990712 21.586832246780432 1.2173455671081845
  endloop
endfacet
facet normal -0.08931943636644263 0.5741062864013892 0.8138943483042425
  outer loop
    vertex 16.470291614532467 8.78656645774847 1.3274658635864394
    vertex 15.778661727905263 8.81884642601018 1.2287944272766247
    vertex 15.7831163406372 8.679655752182068 1.3274658635864394
  endloop
endfacet
facet normal -0.22230918213673181 0.006902247608473687 0.9749517867646835
  outer loop
    vertex 19.221691727638234 12.73415370941167 1.2287949041137882
    vertex 19.001671075820912 12.727043352127104 1.1786759809265328
    vertex 18.980895519256585 12.05789943695073 1.1786759809265328
  endloop
endfacet
facet normal -0.578615916648697 0.01887891305644044 0.8153816331280682
  outer loop
    vertex 19.360881388187405 12.738542995452912 1.3274658635864436
    vertex 19.221691727638234 12.73415370941167 1.2287949041137882
    vertex 19.337180972099297 12.012153825759912 1.327465863586442
  endloop
endfacet
facet normal -0.37730764605025197 0.0658884420093982 0.9237411181936159
  outer loop
    vertex 19.337180972099297 12.012153825759912 1.327465863586442
    vertex 19.221691727638234 12.73415370941167 1.2287949041137882
    vertex 18.980895519256585 12.05789943695073 1.1786759809265328
  endloop
endfacet
facet normal -0.3744122310910422 0.08668446318347493 0.9232016491818138
  outer loop
    vertex 19.337180972099297 12.012153825759912 1.327465863586442
    vertex 18.980895519256585 12.05789943695073 1.1786759809265328
    vertex 19.165117084980007 11.268966159820618 1.327465863586442
  endloop
endfacet
facet normal -0.37441219492437133 0.08668447419984317 0.923201662815125
  outer loop
    vertex 19.165117084980007 11.268966159820618 1.327465863586442
    vertex 18.980895519256585 12.05789943695073 1.1786759809265328
    vertex 18.824979186058037 11.384457311630308 1.1786759809265315
  endloop
endfacet
facet normal -0.3497861595118448 0.15921164642111016 0.9232016541676221
  outer loop
    vertex 19.165117084980007 11.268966159820618 1.327465863586442
    vertex 18.824979186058037 11.384457311630308 1.1786759809265315
    vertex 18.849090576171868 10.574659547805846 1.3274658635864407
  endloop
endfacet
facet normal -0.34978603236392536 0.15921165867015766 0.9232017002294787
  outer loop
    vertex 18.849090576171868 10.574659547805846 1.3274658635864407
    vertex 18.824979186058037 11.384457311630308 1.1786759809265315
    vertex 18.538610696792595 10.755309305191084 1.17867598092653
  endloop
endfacet
facet normal -0.3112663004071225 0.22541492290362966 0.923201712933427
  outer loop
    vertex 18.849090576171868 10.574659547805846 1.3274658635864407
    vertex 18.538610696792595 10.755309305191084 1.17867598092653
    vertex 18.401654005050656 9.95681258201603 1.3274658635864407
  endloop
endfacet
facet normal -0.31126624413309756 0.2254149170532318 0.9232017333352226
  outer loop
    vertex 18.538610696792595 10.755309305191084 1.17867598092653
    vertex 18.133164525032033 10.19544526100164 1.17867598092653
    vertex 18.401654005050656 9.95681258201603 1.3274658635864407
  endloop
endfacet
facet normal -0.2603829339054956 0.2826645619790524 0.9232017510446766
  outer loop
    vertex 18.401654005050656 9.95681258201603 1.3274658635864407
    vertex 18.133164525032033 10.19544526100164 1.17867598092653
    vertex 17.840579986572255 9.43996640205389 1.3274658635864394
  endloop
endfacet
facet normal -0.260382839909787 0.2826645325706751 0.923201786559751
  outer loop
    vertex 18.133164525032033 10.19544526100164 1.17867598092653
    vertex 17.624745368957516 9.727103433609045 1.17867598092653
    vertex 17.840579986572255 9.43996640205389 1.3274658635864394
  endloop
endfacet
facet normal -0.199157028639027 0.3286866424198094 0.9232018029870102
  outer loop
    vertex 17.840579986572255 9.43996640205389 1.3274658635864394
    vertex 17.624745368957516 9.727103433609045 1.17867598092653
    vertex 17.188154458999627 9.044650278091456 1.3274658635864394
  endloop
endfacet
facet normal -0.19915712656743917 0.32868669628158664 0.9232017626851116
  outer loop
    vertex 17.624745368957516 9.727103433609045 1.17867598092653
    vertex 17.033547639846798 9.368886194229173 1.1786759809265286
    vertex 17.188154458999627 9.044650278091456 1.3274658635864394
  endloop
endfacet
facet normal -0.13002050937035614 0.3616534061361083 0.9232017552914555
  outer loop
    vertex 17.188154458999627 9.044650278091456 1.3274658635864394
    vertex 17.033547639846798 9.368886194229173 1.1786759809265286
    vertex 16.470291614532467 8.78656645774847 1.3274658635864394
  endloop
endfacet
facet normal -0.13002119728673264 0.36165398848689134 0.9232014302781643
  outer loop
    vertex 17.033547639846798 9.368886194229173 1.1786759809265286
    vertex 16.38305401802062 9.135021886825609 1.1786759809265286
    vertex 16.470291614532467 8.78656645774847 1.3274658635864394
  endloop
endfacet
facet normal -0.11470499304564238 0.36567834962672247 0.9236460952035015
  outer loop
    vertex 16.470291614532467 8.78656645774847 1.3274658635864394
    vertex 16.38305401802062 9.135021886825609 1.1786759809265286
    vertex 15.778661727905263 8.81884642601018 1.2287944272766247
  endloop
endfacet
facet normal -0.034727172861147855 0.22088480628376964 0.9746814483809844
  outer loop
    vertex 16.38305401802062 9.135021886825609 1.1786759809265286
    vertex 15.771445751190177 9.038865766525323 1.1786759809265286
    vertex 15.778661727905263 8.81884642601018 1.2287944272766247
  endloop
endfacet
facet normal -0.22210242303673308 -1.1320455813908649e-15 0.9750233400699762
  outer loop
    vertex 19.221691727638234 12.73415370941167 1.2287949041137882
    vertex 19.001671075820912 17.586546859741258 1.1786759809265384
    vertex 19.001671075820912 12.727043352127104 1.1786759809265328
  endloop
endfacet
facet normal -0.5783228319201016 -9.466653794085767e-16 0.8158080056483353
  outer loop
    vertex 19.360881388187405 17.583918533325242 1.3274658635864491
    vertex 19.221691727638234 12.73415370941167 1.2287949041137882
    vertex 19.360881388187405 12.738542995452912 1.3274658635864436
  endloop
endfacet
facet normal -0.5783568133170476 1.4654061809712588e-06 0.8157839153155708
  outer loop
    vertex 19.360881388187405 17.583918533325242 1.3274658635864491
    vertex 19.221729576587666 17.58492251396182 1.2288130239258057
    vertex 19.221691727638234 12.73415370941167 1.2287949041137882
  endloop
endfacet
facet normal -0.22214244369034872 -1.908814187406767e-06 0.9750142228232556
  outer loop
    vertex 19.221729576587666 17.58492251396182 1.2288130239258057
    vertex 19.001671075820912 17.586546859741258 1.1786759809265384
    vertex 19.221691727638234 12.73415370941167 1.2287949041137882
  endloop
endfacet
facet normal 0.00761262540187048 -0.9999710235474281 -2.5275842239440036e-19
  outer loop
    vertex 15.292604923248284 23.155986509323146 8.889676022888214
    vertex 9.999999999999993 23.115694723129327 2.913096757293732
    vertex 15.292604923248284 23.155986509323146 2.913096757293732
  endloop
endfacet
facet normal 0.00761262540187048 -0.9999710235474281 -2.5275842239440036e-19
  outer loop
    vertex 9.999999999999993 23.115694723129327 2.913096757293732
    vertex 15.292604923248284 23.155986509323146 8.889676022888214
    vertex 9.999999999999993 23.115694723129327 5.689676022888208
  endloop
endfacet
facet normal 0.00761262540187048 -0.9999710235474281 -2.5275842239440036e-19
  outer loop
    vertex 9.999999999999993 23.115694723129327 5.689676022888208
    vertex 15.292604923248284 23.155986509323146 8.889676022888214
    vertex 9.999999999999993 23.115694723129327 7.289676022888208
  endloop
endfacet
facet normal 0.00761262540187048 -0.9999710235474281 -2.5275842239440036e-19
  outer loop
    vertex 9.999999999999993 23.115694723129327 7.289676022888208
    vertex 15.292604923248284 23.155986509323146 8.889676022888214
    vertex 9.999999999999993 23.115694723129327 8.889676022888214
  endloop
endfacet
facet normal -1.725193527720318e-05 0.7071069803707304 0.7071065817918529
  outer loop
    vertex 10.148789405822745 7.453098497390798 2.5538862661132926
    vertex 15.7831163406372 8.679655752182068 1.3274658635864394
    vertex 11.375209808349602 8.679547510147154 1.3274658635864394
  endloop
endfacet
facet normal -1.725193527720318e-05 0.7071069803707304 0.7071065817918529
  outer loop
    vertex 15.7831163406372 8.679655752182068 1.3274658635864394
    vertex 10.148789405822745 7.453098497390798 2.5538862661132926
    vertex 15.819305419921864 7.453236303329524 2.5538862661132926
  endloop
endfacet
facet normal -2.876810114484382e-17 -1.1889025690431531e-15 1.0
  outer loop
    vertex 15.771445751190177 9.038865766525323 1.1786759809265286
    vertex 11.734420776367179 21.393837175369285 1.1786759809265426
    vertex 11.734420776367179 9.038766107559267 1.1786759809265286
  endloop
endfacet
facet normal -2.876810114484382e-17 -1.1889025690431531e-15 1.0
  outer loop
    vertex 11.734420776367179 21.393837175369285 1.1786759809265426
    vertex 15.771445751190177 9.038865766525323 1.1786759809265286
    vertex 15.286373615264884 21.4214751338959 1.1786759809265441
  endloop
endfacet
facet normal -2.876810114484382e-17 -1.1889025690431531e-15 1.0
  outer loop
    vertex 15.286373615264884 21.4214751338959 1.1786759809265441
    vertex 15.771445751190177 9.038865766525323 1.1786759809265286
    vertex 15.98253679275512 21.344929895401023 1.1786759809265426
  endloop
endfacet
facet normal -2.876810114484382e-17 -1.1889025690431531e-15 1.0
  outer loop
    vertex 15.98253679275512 21.344929895401023 1.1786759809265426
    vertex 15.771445751190177 9.038865766525323 1.1786759809265286
    vertex 16.38305401802062 9.135021886825609 1.1786759809265286
  endloop
endfacet
facet normal -2.876810114484382e-17 -1.1889025690431531e-15 1.0
  outer loop
    vertex 15.98253679275512 21.344929895401023 1.1786759809265426
    vertex 16.38305401802062 9.135021886825609 1.1786759809265286
    vertex 16.698971748352037 21.121928892135646 1.1786759809265426
  endloop
endfacet
facet normal -2.876810114484382e-17 -1.1889025690431531e-15 1.0
  outer loop
    vertex 16.698971748352037 21.121928892135646 1.1786759809265426
    vertex 16.38305401802062 9.135021886825609 1.1786759809265286
    vertex 17.033547639846798 9.368886194229173 1.1786759809265286
  endloop
endfacet
facet normal -2.876810114484382e-17 -1.1889025690431531e-15 1.0
  outer loop
    vertex 16.698971748352037 21.121928892135646 1.1786759809265426
    vertex 17.033547639846798 9.368886194229173 1.1786759809265286
    vertex 17.357223272323605 20.761769971847585 1.1786759809265426
  endloop
endfacet
facet normal -2.876810114484382e-17 -1.1889025690431531e-15 1.0
  outer loop
    vertex 17.357223272323605 20.761769971847585 1.1786759809265426
    vertex 17.033547639846798 9.368886194229173 1.1786759809265286
    vertex 17.624745368957516 9.727103433609045 1.17867598092653
  endloop
endfacet
facet normal -2.876810114484382e-17 -1.1889025690431531e-15 1.0
  outer loop
    vertex 17.357223272323605 20.761769971847585 1.1786759809265426
    vertex 17.624745368957516 9.727103433609045 1.17867598092653
    vertex 17.93133759498596 20.27865382194522 1.1786759809265426
  endloop
endfacet
facet normal -2.876810114484382e-17 -1.1889025690431531e-15 1.0
  outer loop
    vertex 17.93133759498596 20.27865382194522 1.1786759809265426
    vertex 17.624745368957516 9.727103433609045 1.17867598092653
    vertex 18.133164525032033 10.19544526100164 1.17867598092653
  endloop
endfacet
facet normal -2.876810114484382e-17 -1.1889025690431531e-15 1.0
  outer loop
    vertex 17.93133759498596 20.27865382194522 1.1786759809265426
    vertex 18.133164525032033 10.19544526100164 1.17867598092653
    vertex 18.398680210113525 19.691627702713035 1.1786759809265412
  endloop
endfacet
facet normal -2.876810114484382e-17 -1.1889025690431531e-15 1.0
  outer loop
    vertex 18.398680210113525 19.691627702713035 1.1786759809265412
    vertex 18.133164525032033 10.19544526100164 1.17867598092653
    vertex 18.538610696792595 10.755309305191084 1.17867598092653
  endloop
endfacet
facet normal -2.876810114484382e-17 -1.1889025690431531e-15 1.0
  outer loop
    vertex 18.398680210113525 19.691627702713035 1.1786759809265412
    vertex 18.538610696792595 10.755309305191084 1.17867598092653
    vertex 18.740824699401845 19.023835620880185 1.17867598092654
  endloop
endfacet
facet normal -2.876810114484382e-17 -1.1889025690431531e-15 1.0
  outer loop
    vertex 18.740824699401845 19.023835620880185 1.17867598092654
    vertex 18.538610696792595 10.755309305191084 1.17867598092653
    vertex 18.824979186058037 11.384457311630308 1.1786759809265315
  endloop
endfacet
facet normal -2.876810114484382e-17 -1.1889025690431531e-15 1.0
  outer loop
    vertex 18.740824699401845 19.023835620880185 1.17867598092654
    vertex 18.824979186058037 11.384457311630308 1.1786759809265315
    vertex 18.944281816482537 18.301607093811082 1.17867598092654
  endloop
endfacet
facet normal -2.876810114484382e-17 -1.1889025690431531e-15 1.0
  outer loop
    vertex 18.944281816482537 18.301607093811082 1.17867598092654
    vertex 18.824979186058037 11.384457311630308 1.1786759809265315
    vertex 18.980895519256585 12.05789943695073 1.1786759809265328
  endloop
endfacet
facet normal -2.876810114484382e-17 -1.1889025690431531e-15 1.0
  outer loop
    vertex 18.944281816482537 18.301607093811082 1.17867598092654
    vertex 18.980895519256585 12.05789943695073 1.1786759809265328
    vertex 19.001671075820912 17.586546859741258 1.1786759809265384
  endloop
endfacet
facet normal -2.876810114484382e-17 -1.1889025690431531e-15 1.0
  outer loop
    vertex 19.001671075820912 17.586546859741258 1.1786759809265384
    vertex 18.980895519256585 12.05789943695073 1.1786759809265328
    vertex 19.001671075820912 12.727043352127104 1.1786759809265328
  endloop
endfacet
facet normal 0.005418198627626247 -0.7070176002892353 0.7071751947041713
  outer loop
    vertex 11.375209808349602 21.750445566177415 1.327465863586455
    vertex 15.292199134826653 23.007189950943037 2.5538862661133113
    vertex 10.148789405822745 22.967983446121263 2.5538862661133113
  endloop
endfacet
facet normal 0.005418198627626247 -0.7070176002892353 0.7071751947041713
  outer loop
    vertex 15.292199134826653 23.007189950943037 2.5538862661133113
    vertex 11.375209808349602 21.750445566177415 1.327465863586455
    vertex 15.28797149658202 21.78070660591128 1.327465863586455
  endloop
endfacet
facet normal -2.4155546647411732e-05 0.9999999997082549 9.914284009928273e-16
  outer loop
    vertex 9.999999999999993 7.304305276870772 5.689676022888201
    vertex 15.823381423950185 7.304445943832448 2.913096757293712
    vertex 9.999999999999993 7.3043052768707835 2.913096757293712
  endloop
endfacet
facet normal -2.4155546647411732e-05 0.9999999997082549 9.914284009928273e-16
  outer loop
    vertex 15.823381423950185 7.304445943832448 2.913096757293712
    vertex 9.999999999999993 7.304305276870772 5.689676022888201
    vertex 15.823381423950185 7.304445943832448 8.889676022888194
  endloop
endfacet
facet normal -2.4155546647411732e-05 0.9999999997082549 9.914284009928273e-16
  outer loop
    vertex 15.823381423950185 7.304445943832448 8.889676022888194
    vertex 9.999999999999993 7.304305276870772 5.689676022888201
    vertex 9.999999999999993 7.304305276870772 7.289676022888199
  endloop
endfacet
facet normal -2.4155546647411732e-05 0.9999999997082549 9.914284009928273e-16
  outer loop
    vertex 15.823381423950185 7.304445943832448 8.889676022888194
    vertex 9.999999999999993 7.304305276870772 7.289676022888199
    vertex 9.999999999999993 7.304305276870772 8.889676022888194
  endloop
endfacet
facet normal -7.74716066634038e-17 1.7946052453575393e-33 1.0
  outer loop
    vertex 8.429999999999993 11.71000000000004 1.9333070228881988
    vertex 3.5799999999999956 18.71000000000005 1.9333070228881981
    vertex 3.5799999999999956 11.71000000000004 1.9333070228881986
  endloop
endfacet
facet normal -7.74716066634038e-17 1.7946052453575393e-33 1.0
  outer loop
    vertex 3.5799999999999956 18.71000000000005 1.9333070228881981
    vertex 8.429999999999993 11.71000000000004 1.9333070228881988
    vertex 8.429999999999993 18.71000000000005 1.9333070228881986
  endloop
endfacet
facet normal 1.0 0.0 0.0
  outer loop
    vertex 3.5799999999999956 18.71000000000005 1.9333070228881981
    vertex 3.5799999999999956 11.71000000000004 5.689676022888199
    vertex 3.5799999999999956 11.71000000000004 1.9333070228881986
  endloop
endfacet
facet normal 1.0 0.0 0.0
  outer loop
    vertex 3.5799999999999956 11.71000000000004 5.689676022888199
    vertex 3.5799999999999956 18.71000000000005 1.9333070228881981
    vertex 3.5799999999999956 11.860000000000028 5.689676022888199
  endloop
endfacet
facet normal 1.0 0.0 0.0
  outer loop
    vertex 3.5799999999999956 11.860000000000028 5.689676022888199
    vertex 3.5799999999999956 18.71000000000005 1.9333070228881981
    vertex 3.5799999999999956 18.560000000000038 5.689676022888209
  endloop
endfacet
facet normal 1.0 0.0 0.0
  outer loop
    vertex 3.5799999999999956 18.560000000000038 5.689676022888209
    vertex 3.5799999999999956 18.71000000000005 1.9333070228881981
    vertex 3.5799999999999956 18.71000000000005 5.689676022888209
  endloop
endfacet
facet normal 1.0 3.5599164452570077e-16 -8.812395257962214e-16
  outer loop
    vertex 2.2299999999999955 11.860000000000028 5.689676022888201
    vertex 2.230000000000001 7.304305276870772 7.289676022888199
    vertex 2.230000000000001 7.304305276870772 5.689676022888202
  endloop
endfacet
facet normal 1.0 3.5599164452570077e-16 -8.812395257962214e-16
  outer loop
    vertex 2.230000000000001 7.304305276870772 7.289676022888199
    vertex 2.2299999999999955 11.860000000000028 5.689676022888201
    vertex 2.2299999999999955 23.115694723129327 7.2896760228882025
  endloop
endfacet
facet normal 1.0 3.5599164452570077e-16 -8.812395257962214e-16
  outer loop
    vertex 2.2299999999999955 23.115694723129327 7.2896760228882025
    vertex 2.2299999999999955 11.860000000000028 5.689676022888201
    vertex 2.2299999999999955 18.560000000000038 5.689676022888211
  endloop
endfacet
facet normal 1.0 3.5599164452570077e-16 -8.812395257962214e-16
  outer loop
    vertex 2.2299999999999955 23.115694723129327 7.2896760228882025
    vertex 2.2299999999999955 18.560000000000038 5.689676022888211
    vertex 2.2299999999999955 23.115694723129327 5.689676022888205
  endloop
endfacet
facet normal 8.8123952579622185e-16 -1.4731168192414368e-15 1.0
  outer loop
    vertex 3.5799999999999956 11.860000000000028 5.689676022888199
    vertex 2.2299999999999955 18.560000000000038 5.689676022888211
    vertex 2.2299999999999955 11.860000000000028 5.689676022888201
  endloop
endfacet
facet normal 8.8123952579622185e-16 -1.4731168192414368e-15 1.0
  outer loop
    vertex 2.2299999999999955 18.560000000000038 5.689676022888211
    vertex 3.5799999999999956 11.860000000000028 5.689676022888199
    vertex 3.5799999999999956 18.560000000000038 5.689676022888209
  endloop
endfacet
facet normal 7.755355741161057e-16 1.0 -1.2900290619414383e-15
  outer loop
    vertex 3.5799999999999956 11.71000000000004 5.689676022888199
    vertex 8.429999999999993 11.71000000000004 1.9333070228881988
    vertex 3.5799999999999956 11.71000000000004 1.9333070228881986
  endloop
endfacet
facet normal 7.755355741161057e-16 1.0 -1.2900290619414383e-15
  outer loop
    vertex 8.429999999999993 11.71000000000004 1.9333070228881988
    vertex 3.5799999999999956 11.71000000000004 5.689676022888199
    vertex 8.429999999999993 11.71000000000004 5.33967602288821
  endloop
endfacet
facet normal 7.755355741161057e-16 1.0 -1.2900290619414383e-15
  outer loop
    vertex 8.429999999999993 11.71000000000004 5.33967602288821
    vertex 9.999999999999993 11.71000000000004 5.689676022888199
    vertex 9.999999999999993 11.71000000000004 5.3396760228882
  endloop
endfacet
facet normal 7.755355741161057e-16 1.0 -1.2900290619414383e-15
  outer loop
    vertex 9.999999999999993 11.71000000000004 5.689676022888199
    vertex 8.429999999999993 11.71000000000004 5.33967602288821
    vertex 3.5799999999999956 11.71000000000004 5.689676022888199
  endloop
endfacet
facet normal 0.0 -1.0 0.0
  outer loop
    vertex 9.999999999999993 18.71000000000005 5.689676022888209
    vertex 8.429999999999993 18.71000000000005 5.33967602288821
    vertex 9.999999999999993 18.71000000000005 5.33967602288821
  endloop
endfacet
facet normal 0.0 -1.0 0.0
  outer loop
    vertex 8.429999999999993 18.71000000000005 1.9333070228881986
    vertex 3.5799999999999956 18.71000000000005 5.689676022888209
    vertex 3.5799999999999956 18.71000000000005 1.9333070228881981
  endloop
endfacet
facet normal 0.0 -1.0 0.0
  outer loop
    vertex 3.5799999999999956 18.71000000000005 5.689676022888209
    vertex 8.429999999999993 18.71000000000005 1.9333070228881986
    vertex 8.429999999999993 18.71000000000005 5.33967602288821
  endloop
endfacet
facet normal 0.0 -1.0 0.0
  outer loop
    vertex 3.5799999999999956 18.71000000000005 5.689676022888209
    vertex 8.429999999999993 18.71000000000005 5.33967602288821
    vertex 9.999999999999993 18.71000000000005 5.689676022888209
  endloop
endfacet
facet normal -5.341293683375392e-16 -8.009922779205096e-16 1.0
  outer loop
    vertex 9.999999999999998 3.3839597790574766e-14 7.289676022888198
    vertex 2.230000000000001 7.304305276870772 7.289676022888199
    vertex 2.8199664825478975e-15 3.3839597790574766e-14 7.289676022888182
  endloop
endfacet
facet normal -5.341293683375392e-16 -8.009922779205096e-16 1.0
  outer loop
    vertex 2.230000000000001 7.304305276870772 7.289676022888199
    vertex 9.999999999999998 3.3839597790574766e-14 7.289676022888198
    vertex 9.999999999999996 7.304305276870772 7.289676022888195
  endloop
endfacet
facet normal -5.341293683375392e-16 -8.009922779205096e-16 1.0
  outer loop
    vertex 2.482320532647432e-15 29.574305276870774 7.289676022888213
    vertex 2.230000000000001 23.115694723129316 7.289676022888208
    vertex 9.999999999999991 29.574305276870774 7.289676022888213
  endloop
endfacet
facet normal -5.341293683375392e-16 -8.009922779205096e-16 1.0
  outer loop
    vertex 2.230000000000001 23.115694723129316 7.289676022888208
    vertex 2.482320532647432e-15 29.574305276870774 7.289676022888213
    vertex 2.8199664825478975e-15 3.3839597790574766e-14 7.289676022888182
  endloop
endfacet
facet normal -5.341293683375392e-16 -8.009922779205096e-16 1.0
  outer loop
    vertex 2.230000000000001 23.115694723129316 7.289676022888208
    vertex 2.8199664825478975e-15 3.3839597790574766e-14 7.289676022888182
    vertex 2.230000000000001 7.304305276870772 7.289676022888199
  endloop
endfacet
facet normal -5.341293683375392e-16 -8.009922779205096e-16 1.0
  outer loop
    vertex 9.999999999999991 29.574305276870774 7.289676022888213
    vertex 2.230000000000001 23.115694723129316 7.289676022888208
    vertex 9.999999999999996 23.115694723129316 7.289676022888213
  endloop
endfacet
endsolid FingerMoldIceCubeProdutctionSingle
