G75*
%MOIN*%
%OFA0B0*%
%FSLAX25Y25*%
%IPPOS*%
%LPD*%
%AMOC8*
5,1,8,0,0,1.08239X$1,22.5*
%
%ADD10C,0.08800*%
D10*
X0060462Y0058933D03*
X0104462Y0058933D03*
X0117462Y0058933D03*
X0161462Y0058933D03*
X0174462Y0058933D03*
X0218462Y0058933D03*
X0231462Y0058933D03*
X0275462Y0058933D03*
X0288462Y0058933D03*
X0332462Y0058933D03*
X0345462Y0058933D03*
X0389462Y0058933D03*
X0389462Y0120933D03*
X0345462Y0120933D03*
X0332462Y0120933D03*
X0288462Y0120933D03*
X0275462Y0120933D03*
X0231462Y0120933D03*
X0218462Y0120933D03*
X0174462Y0120933D03*
X0161462Y0120933D03*
X0117462Y0120933D03*
X0104462Y0120933D03*
X0060462Y0120933D03*
X0060462Y0182933D03*
X0104462Y0182933D03*
X0117462Y0182933D03*
X0161462Y0182933D03*
X0174462Y0182933D03*
X0218462Y0182933D03*
X0231462Y0182933D03*
X0275462Y0182933D03*
X0288462Y0182933D03*
X0332462Y0182933D03*
X0345462Y0182933D03*
X0389462Y0182933D03*
X0389462Y0244933D03*
X0345462Y0244933D03*
X0332462Y0244933D03*
X0288462Y0244933D03*
X0275462Y0244933D03*
X0231462Y0244933D03*
X0218462Y0244933D03*
X0174462Y0244933D03*
X0161462Y0244933D03*
X0117462Y0244933D03*
X0104462Y0244933D03*
X0060462Y0244933D03*
X0060462Y0306933D03*
X0104462Y0306933D03*
X0117462Y0306933D03*
X0161462Y0306933D03*
X0174462Y0306933D03*
X0218462Y0306933D03*
X0231462Y0306933D03*
X0275462Y0306933D03*
X0288462Y0306933D03*
X0332462Y0306933D03*
X0345462Y0306933D03*
X0389462Y0306933D03*
M02*
