G75*
%MOIN*%
%OFA0B0*%
%FSLAX25Y25*%
%IPPOS*%
%LPD*%
%AMOC8*
5,1,8,0,0,1.08239X$1,22.5*
%
%ADD10R,0.05131X0.04737*%
%ADD11R,0.03654X0.03556*%
%ADD12C,0.08800*%
%ADD13R,0.05524X0.08674*%
%ADD14R,0.03162X0.06115*%
%ADD15C,0.03300*%
%ADD16R,0.02178X0.03950*%
%ADD17R,0.03950X0.02178*%
%ADD18C,0.04737*%
%ADD19C,0.05000*%
%ADD20C,0.06706*%
D10*
X0061615Y0078933D03*
X0068308Y0078933D03*
X0068308Y0088933D03*
X0061615Y0088933D03*
X0061615Y0098933D03*
X0068308Y0098933D03*
X0096615Y0088933D03*
X0103308Y0088933D03*
X0103308Y0078933D03*
X0096615Y0078933D03*
X0118615Y0078933D03*
X0125308Y0078933D03*
X0125308Y0088933D03*
X0118615Y0088933D03*
X0118615Y0098933D03*
X0125308Y0098933D03*
X0153615Y0088933D03*
X0160308Y0088933D03*
X0160308Y0078933D03*
X0153615Y0078933D03*
X0175615Y0078933D03*
X0182308Y0078933D03*
X0182308Y0088933D03*
X0175615Y0088933D03*
X0175615Y0098933D03*
X0182308Y0098933D03*
X0210615Y0088933D03*
X0217308Y0088933D03*
X0217308Y0078933D03*
X0210615Y0078933D03*
X0232615Y0078933D03*
X0239308Y0078933D03*
X0239308Y0088933D03*
X0232615Y0088933D03*
X0232615Y0098933D03*
X0239308Y0098933D03*
X0267615Y0088933D03*
X0274308Y0088933D03*
X0274308Y0078933D03*
X0267615Y0078933D03*
X0289615Y0078933D03*
X0296308Y0078933D03*
X0296308Y0088933D03*
X0289615Y0088933D03*
X0289615Y0098933D03*
X0296308Y0098933D03*
X0324615Y0088933D03*
X0331308Y0088933D03*
X0331308Y0078933D03*
X0324615Y0078933D03*
X0346615Y0078933D03*
X0353308Y0078933D03*
X0353308Y0088933D03*
X0346615Y0088933D03*
X0346615Y0098933D03*
X0353308Y0098933D03*
X0381615Y0088933D03*
X0388308Y0088933D03*
X0388308Y0078933D03*
X0381615Y0078933D03*
X0381615Y0140933D03*
X0388308Y0140933D03*
X0388308Y0150933D03*
X0381615Y0150933D03*
X0353308Y0150933D03*
X0346615Y0150933D03*
X0346615Y0140933D03*
X0353308Y0140933D03*
X0353308Y0160933D03*
X0346615Y0160933D03*
X0331308Y0150933D03*
X0324615Y0150933D03*
X0324615Y0140933D03*
X0331308Y0140933D03*
X0296308Y0140933D03*
X0289615Y0140933D03*
X0289615Y0150933D03*
X0296308Y0150933D03*
X0296308Y0160933D03*
X0289615Y0160933D03*
X0274308Y0150933D03*
X0267615Y0150933D03*
X0267615Y0140933D03*
X0274308Y0140933D03*
X0239308Y0140933D03*
X0232615Y0140933D03*
X0232615Y0150933D03*
X0239308Y0150933D03*
X0239308Y0160933D03*
X0232615Y0160933D03*
X0217308Y0150933D03*
X0210615Y0150933D03*
X0210615Y0140933D03*
X0217308Y0140933D03*
X0182308Y0140933D03*
X0175615Y0140933D03*
X0175615Y0150933D03*
X0182308Y0150933D03*
X0182308Y0160933D03*
X0175615Y0160933D03*
X0160308Y0150933D03*
X0153615Y0150933D03*
X0153615Y0140933D03*
X0160308Y0140933D03*
X0125308Y0140933D03*
X0118615Y0140933D03*
X0118615Y0150933D03*
X0125308Y0150933D03*
X0125308Y0160933D03*
X0118615Y0160933D03*
X0103308Y0150933D03*
X0096615Y0150933D03*
X0096615Y0140933D03*
X0103308Y0140933D03*
X0068308Y0140933D03*
X0061615Y0140933D03*
X0061615Y0150933D03*
X0068308Y0150933D03*
X0068308Y0160933D03*
X0061615Y0160933D03*
X0061615Y0202933D03*
X0068308Y0202933D03*
X0068308Y0212933D03*
X0061615Y0212933D03*
X0061615Y0222933D03*
X0068308Y0222933D03*
X0096615Y0212933D03*
X0103308Y0212933D03*
X0103308Y0202933D03*
X0096615Y0202933D03*
X0118615Y0202933D03*
X0125308Y0202933D03*
X0125308Y0212933D03*
X0118615Y0212933D03*
X0118615Y0222933D03*
X0125308Y0222933D03*
X0153615Y0212933D03*
X0160308Y0212933D03*
X0160308Y0202933D03*
X0153615Y0202933D03*
X0175615Y0202933D03*
X0182308Y0202933D03*
X0182308Y0212933D03*
X0175615Y0212933D03*
X0175615Y0222933D03*
X0182308Y0222933D03*
X0210615Y0212933D03*
X0217308Y0212933D03*
X0217308Y0202933D03*
X0210615Y0202933D03*
X0232615Y0202933D03*
X0239308Y0202933D03*
X0239308Y0212933D03*
X0232615Y0212933D03*
X0232615Y0222933D03*
X0239308Y0222933D03*
X0267615Y0212933D03*
X0274308Y0212933D03*
X0274308Y0202933D03*
X0267615Y0202933D03*
X0289615Y0202933D03*
X0296308Y0202933D03*
X0296308Y0212933D03*
X0289615Y0212933D03*
X0289615Y0222933D03*
X0296308Y0222933D03*
X0324615Y0212933D03*
X0331308Y0212933D03*
X0331308Y0202933D03*
X0324615Y0202933D03*
X0346615Y0202933D03*
X0353308Y0202933D03*
X0353308Y0212933D03*
X0346615Y0212933D03*
X0346615Y0222933D03*
X0353308Y0222933D03*
X0381615Y0212933D03*
X0388308Y0212933D03*
X0388308Y0202933D03*
X0381615Y0202933D03*
X0381615Y0264933D03*
X0388308Y0264933D03*
X0388308Y0274933D03*
X0381615Y0274933D03*
X0353308Y0274933D03*
X0346615Y0274933D03*
X0346615Y0264933D03*
X0353308Y0264933D03*
X0353308Y0284933D03*
X0346615Y0284933D03*
X0331308Y0274933D03*
X0324615Y0274933D03*
X0324615Y0264933D03*
X0331308Y0264933D03*
X0296308Y0264933D03*
X0289615Y0264933D03*
X0289615Y0274933D03*
X0296308Y0274933D03*
X0296308Y0284933D03*
X0289615Y0284933D03*
X0274308Y0274933D03*
X0267615Y0274933D03*
X0267615Y0264933D03*
X0274308Y0264933D03*
X0239308Y0264933D03*
X0232615Y0264933D03*
X0232615Y0274933D03*
X0239308Y0274933D03*
X0239308Y0284933D03*
X0232615Y0284933D03*
X0217308Y0274933D03*
X0210615Y0274933D03*
X0210615Y0264933D03*
X0217308Y0264933D03*
X0182308Y0264933D03*
X0175615Y0264933D03*
X0175615Y0274933D03*
X0182308Y0274933D03*
X0182308Y0284933D03*
X0175615Y0284933D03*
X0160308Y0274933D03*
X0153615Y0274933D03*
X0153615Y0264933D03*
X0160308Y0264933D03*
X0125308Y0264933D03*
X0118615Y0264933D03*
X0118615Y0274933D03*
X0125308Y0274933D03*
X0125308Y0284933D03*
X0118615Y0284933D03*
X0103308Y0274933D03*
X0096615Y0274933D03*
X0096615Y0264933D03*
X0103308Y0264933D03*
X0068308Y0264933D03*
X0061615Y0264933D03*
X0061615Y0274933D03*
X0068308Y0274933D03*
X0068308Y0284933D03*
X0061615Y0284933D03*
X0061615Y0326933D03*
X0068308Y0326933D03*
X0068308Y0336933D03*
X0061615Y0336933D03*
X0061615Y0346933D03*
X0068308Y0346933D03*
X0096615Y0336933D03*
X0103308Y0336933D03*
X0103308Y0326933D03*
X0096615Y0326933D03*
X0118615Y0326933D03*
X0125308Y0326933D03*
X0125308Y0336933D03*
X0118615Y0336933D03*
X0118615Y0346933D03*
X0125308Y0346933D03*
X0153615Y0336933D03*
X0160308Y0336933D03*
X0160308Y0326933D03*
X0153615Y0326933D03*
X0175615Y0326933D03*
X0182308Y0326933D03*
X0182308Y0336933D03*
X0175615Y0336933D03*
X0175615Y0346933D03*
X0182308Y0346933D03*
X0210615Y0336933D03*
X0217308Y0336933D03*
X0217308Y0326933D03*
X0210615Y0326933D03*
X0232615Y0326933D03*
X0239308Y0326933D03*
X0239308Y0336933D03*
X0232615Y0336933D03*
X0232615Y0346933D03*
X0239308Y0346933D03*
X0267615Y0336933D03*
X0274308Y0336933D03*
X0274308Y0326933D03*
X0267615Y0326933D03*
X0289615Y0326933D03*
X0296308Y0326933D03*
X0296308Y0336933D03*
X0289615Y0336933D03*
X0289615Y0346933D03*
X0296308Y0346933D03*
X0324615Y0336933D03*
X0331308Y0336933D03*
X0331308Y0326933D03*
X0324615Y0326933D03*
X0346615Y0326933D03*
X0353308Y0326933D03*
X0353308Y0336933D03*
X0346615Y0336933D03*
X0346615Y0346933D03*
X0353308Y0346933D03*
X0381615Y0336933D03*
X0388308Y0336933D03*
X0388308Y0326933D03*
X0381615Y0326933D03*
D11*
X0373810Y0327996D03*
X0369578Y0327996D03*
X0365346Y0327996D03*
X0361113Y0327996D03*
X0361113Y0335870D03*
X0365346Y0335870D03*
X0369578Y0335870D03*
X0373810Y0335870D03*
X0316810Y0335870D03*
X0312578Y0335870D03*
X0308346Y0335870D03*
X0304113Y0335870D03*
X0304113Y0327996D03*
X0308346Y0327996D03*
X0312578Y0327996D03*
X0316810Y0327996D03*
X0259810Y0327996D03*
X0255578Y0327996D03*
X0251346Y0327996D03*
X0247113Y0327996D03*
X0247113Y0335870D03*
X0251346Y0335870D03*
X0255578Y0335870D03*
X0259810Y0335870D03*
X0202810Y0335870D03*
X0198578Y0335870D03*
X0194346Y0335870D03*
X0190113Y0335870D03*
X0190113Y0327996D03*
X0194346Y0327996D03*
X0198578Y0327996D03*
X0202810Y0327996D03*
X0145810Y0327996D03*
X0141578Y0327996D03*
X0137346Y0327996D03*
X0133113Y0327996D03*
X0133113Y0335870D03*
X0137346Y0335870D03*
X0141578Y0335870D03*
X0145810Y0335870D03*
X0088810Y0335870D03*
X0084578Y0335870D03*
X0080346Y0335870D03*
X0076113Y0335870D03*
X0076113Y0327996D03*
X0080346Y0327996D03*
X0084578Y0327996D03*
X0088810Y0327996D03*
X0088810Y0273870D03*
X0084578Y0273870D03*
X0080346Y0273870D03*
X0076113Y0273870D03*
X0076113Y0265996D03*
X0080346Y0265996D03*
X0084578Y0265996D03*
X0088810Y0265996D03*
X0133113Y0265996D03*
X0137346Y0265996D03*
X0141578Y0265996D03*
X0145810Y0265996D03*
X0145810Y0273870D03*
X0141578Y0273870D03*
X0137346Y0273870D03*
X0133113Y0273870D03*
X0190113Y0273870D03*
X0194346Y0273870D03*
X0198578Y0273870D03*
X0202810Y0273870D03*
X0202810Y0265996D03*
X0198578Y0265996D03*
X0194346Y0265996D03*
X0190113Y0265996D03*
X0247113Y0265996D03*
X0251346Y0265996D03*
X0255578Y0265996D03*
X0259810Y0265996D03*
X0259810Y0273870D03*
X0255578Y0273870D03*
X0251346Y0273870D03*
X0247113Y0273870D03*
X0304113Y0273870D03*
X0308346Y0273870D03*
X0312578Y0273870D03*
X0316810Y0273870D03*
X0316810Y0265996D03*
X0312578Y0265996D03*
X0308346Y0265996D03*
X0304113Y0265996D03*
X0361113Y0265996D03*
X0365346Y0265996D03*
X0369578Y0265996D03*
X0373810Y0265996D03*
X0373810Y0273870D03*
X0369578Y0273870D03*
X0365346Y0273870D03*
X0361113Y0273870D03*
X0361113Y0211870D03*
X0365346Y0211870D03*
X0369578Y0211870D03*
X0373810Y0211870D03*
X0373810Y0203996D03*
X0369578Y0203996D03*
X0365346Y0203996D03*
X0361113Y0203996D03*
X0316810Y0203996D03*
X0312578Y0203996D03*
X0308346Y0203996D03*
X0304113Y0203996D03*
X0304113Y0211870D03*
X0308346Y0211870D03*
X0312578Y0211870D03*
X0316810Y0211870D03*
X0259810Y0211870D03*
X0255578Y0211870D03*
X0251346Y0211870D03*
X0247113Y0211870D03*
X0247113Y0203996D03*
X0251346Y0203996D03*
X0255578Y0203996D03*
X0259810Y0203996D03*
X0259810Y0149870D03*
X0255578Y0149870D03*
X0251346Y0149870D03*
X0247113Y0149870D03*
X0247113Y0141996D03*
X0251346Y0141996D03*
X0255578Y0141996D03*
X0259810Y0141996D03*
X0304113Y0141996D03*
X0308346Y0141996D03*
X0312578Y0141996D03*
X0316810Y0141996D03*
X0316810Y0149870D03*
X0312578Y0149870D03*
X0308346Y0149870D03*
X0304113Y0149870D03*
X0361113Y0149870D03*
X0365346Y0149870D03*
X0369578Y0149870D03*
X0373810Y0149870D03*
X0373810Y0141996D03*
X0369578Y0141996D03*
X0365346Y0141996D03*
X0361113Y0141996D03*
X0361113Y0087870D03*
X0365346Y0087870D03*
X0369578Y0087870D03*
X0373810Y0087870D03*
X0373810Y0079996D03*
X0369578Y0079996D03*
X0365346Y0079996D03*
X0361113Y0079996D03*
X0316810Y0079996D03*
X0312578Y0079996D03*
X0308346Y0079996D03*
X0304113Y0079996D03*
X0304113Y0087870D03*
X0308346Y0087870D03*
X0312578Y0087870D03*
X0316810Y0087870D03*
X0259810Y0087870D03*
X0255578Y0087870D03*
X0251346Y0087870D03*
X0247113Y0087870D03*
X0247113Y0079996D03*
X0251346Y0079996D03*
X0255578Y0079996D03*
X0259810Y0079996D03*
X0202810Y0079996D03*
X0198578Y0079996D03*
X0194346Y0079996D03*
X0190113Y0079996D03*
X0190113Y0087870D03*
X0194346Y0087870D03*
X0198578Y0087870D03*
X0202810Y0087870D03*
X0145810Y0087870D03*
X0141578Y0087870D03*
X0137346Y0087870D03*
X0133113Y0087870D03*
X0133113Y0079996D03*
X0137346Y0079996D03*
X0141578Y0079996D03*
X0145810Y0079996D03*
X0088810Y0079996D03*
X0084578Y0079996D03*
X0080346Y0079996D03*
X0076113Y0079996D03*
X0076113Y0087870D03*
X0080346Y0087870D03*
X0084578Y0087870D03*
X0088810Y0087870D03*
X0088810Y0141996D03*
X0084578Y0141996D03*
X0080346Y0141996D03*
X0076113Y0141996D03*
X0076113Y0149870D03*
X0080346Y0149870D03*
X0084578Y0149870D03*
X0088810Y0149870D03*
X0133113Y0149870D03*
X0137346Y0149870D03*
X0141578Y0149870D03*
X0145810Y0149870D03*
X0145810Y0141996D03*
X0141578Y0141996D03*
X0137346Y0141996D03*
X0133113Y0141996D03*
X0190113Y0141996D03*
X0194346Y0141996D03*
X0198578Y0141996D03*
X0202810Y0141996D03*
X0202810Y0149870D03*
X0198578Y0149870D03*
X0194346Y0149870D03*
X0190113Y0149870D03*
X0190113Y0203996D03*
X0194346Y0203996D03*
X0198578Y0203996D03*
X0202810Y0203996D03*
X0202810Y0211870D03*
X0198578Y0211870D03*
X0194346Y0211870D03*
X0190113Y0211870D03*
X0145810Y0211870D03*
X0141578Y0211870D03*
X0137346Y0211870D03*
X0133113Y0211870D03*
X0133113Y0203996D03*
X0137346Y0203996D03*
X0141578Y0203996D03*
X0145810Y0203996D03*
X0088810Y0203996D03*
X0084578Y0203996D03*
X0080346Y0203996D03*
X0076113Y0203996D03*
X0076113Y0211870D03*
X0080346Y0211870D03*
X0084578Y0211870D03*
X0088810Y0211870D03*
D12*
X0104462Y0182933D03*
X0117462Y0182933D03*
X0161462Y0182933D03*
X0174462Y0182933D03*
X0218462Y0182933D03*
X0231462Y0182933D03*
X0275462Y0182933D03*
X0288462Y0182933D03*
X0332462Y0182933D03*
X0345462Y0182933D03*
X0389462Y0182933D03*
X0389462Y0120933D03*
X0345462Y0120933D03*
X0332462Y0120933D03*
X0288462Y0120933D03*
X0275462Y0120933D03*
X0231462Y0120933D03*
X0218462Y0120933D03*
X0174462Y0120933D03*
X0161462Y0120933D03*
X0117462Y0120933D03*
X0104462Y0120933D03*
X0060462Y0120933D03*
X0060462Y0182933D03*
X0060462Y0244933D03*
X0104462Y0244933D03*
X0117462Y0244933D03*
X0161462Y0244933D03*
X0174462Y0244933D03*
X0218462Y0244933D03*
X0231462Y0244933D03*
X0275462Y0244933D03*
X0288462Y0244933D03*
X0332462Y0244933D03*
X0345462Y0244933D03*
X0389462Y0244933D03*
X0389462Y0306933D03*
X0345462Y0306933D03*
X0332462Y0306933D03*
X0288462Y0306933D03*
X0275462Y0306933D03*
X0231462Y0306933D03*
X0218462Y0306933D03*
X0174462Y0306933D03*
X0161462Y0306933D03*
X0117462Y0306933D03*
X0104462Y0306933D03*
X0060462Y0306933D03*
X0060462Y0058933D03*
X0104462Y0058933D03*
X0117462Y0058933D03*
X0161462Y0058933D03*
X0174462Y0058933D03*
X0218462Y0058933D03*
X0231462Y0058933D03*
X0275462Y0058933D03*
X0288462Y0058933D03*
X0332462Y0058933D03*
X0345462Y0058933D03*
X0389462Y0058933D03*
D13*
X0378485Y0054465D03*
X0356438Y0054465D03*
X0321485Y0054465D03*
X0299438Y0054465D03*
X0264485Y0054465D03*
X0242438Y0054465D03*
X0207485Y0054465D03*
X0185438Y0054465D03*
X0150485Y0054465D03*
X0128438Y0054465D03*
X0093485Y0054465D03*
X0071438Y0054465D03*
X0071438Y0116465D03*
X0093485Y0116465D03*
X0128438Y0116465D03*
X0150485Y0116465D03*
X0185438Y0116465D03*
X0207485Y0116465D03*
X0242438Y0116465D03*
X0264485Y0116465D03*
X0299438Y0116465D03*
X0321485Y0116465D03*
X0356438Y0116465D03*
X0378485Y0116465D03*
X0378485Y0178465D03*
X0356438Y0178465D03*
X0321485Y0178465D03*
X0299438Y0178465D03*
X0264485Y0178465D03*
X0242438Y0178465D03*
X0207485Y0178465D03*
X0185438Y0178465D03*
X0150485Y0178465D03*
X0128438Y0178465D03*
X0093485Y0178465D03*
X0071438Y0178465D03*
X0071438Y0240465D03*
X0093485Y0240465D03*
X0128438Y0240465D03*
X0150485Y0240465D03*
X0185438Y0240465D03*
X0207485Y0240465D03*
X0242438Y0240465D03*
X0264485Y0240465D03*
X0299438Y0240465D03*
X0321485Y0240465D03*
X0356438Y0240465D03*
X0378485Y0240465D03*
X0378485Y0302465D03*
X0356438Y0302465D03*
X0321485Y0302465D03*
X0299438Y0302465D03*
X0264485Y0302465D03*
X0242438Y0302465D03*
X0207485Y0302465D03*
X0185438Y0302465D03*
X0150485Y0302465D03*
X0128438Y0302465D03*
X0093485Y0302465D03*
X0071438Y0302465D03*
D14*
X0076556Y0316933D03*
X0080493Y0316933D03*
X0084430Y0316933D03*
X0088367Y0316933D03*
X0133556Y0316933D03*
X0137493Y0316933D03*
X0141430Y0316933D03*
X0145367Y0316933D03*
X0190556Y0316933D03*
X0194493Y0316933D03*
X0198430Y0316933D03*
X0202367Y0316933D03*
X0247556Y0316933D03*
X0251493Y0316933D03*
X0255430Y0316933D03*
X0259367Y0316933D03*
X0304556Y0316933D03*
X0308493Y0316933D03*
X0312430Y0316933D03*
X0316367Y0316933D03*
X0361556Y0316933D03*
X0365493Y0316933D03*
X0369430Y0316933D03*
X0373367Y0316933D03*
X0373367Y0254933D03*
X0369430Y0254933D03*
X0365493Y0254933D03*
X0361556Y0254933D03*
X0316367Y0254933D03*
X0312430Y0254933D03*
X0308493Y0254933D03*
X0304556Y0254933D03*
X0259367Y0254933D03*
X0255430Y0254933D03*
X0251493Y0254933D03*
X0247556Y0254933D03*
X0202367Y0254933D03*
X0198430Y0254933D03*
X0194493Y0254933D03*
X0190556Y0254933D03*
X0145367Y0254933D03*
X0141430Y0254933D03*
X0137493Y0254933D03*
X0133556Y0254933D03*
X0088367Y0254933D03*
X0084430Y0254933D03*
X0080493Y0254933D03*
X0076556Y0254933D03*
X0076556Y0192933D03*
X0080493Y0192933D03*
X0084430Y0192933D03*
X0088367Y0192933D03*
X0133556Y0192933D03*
X0137493Y0192933D03*
X0141430Y0192933D03*
X0145367Y0192933D03*
X0190556Y0192933D03*
X0194493Y0192933D03*
X0198430Y0192933D03*
X0202367Y0192933D03*
X0247556Y0192933D03*
X0251493Y0192933D03*
X0255430Y0192933D03*
X0259367Y0192933D03*
X0304556Y0192933D03*
X0308493Y0192933D03*
X0312430Y0192933D03*
X0316367Y0192933D03*
X0361556Y0192933D03*
X0365493Y0192933D03*
X0369430Y0192933D03*
X0373367Y0192933D03*
X0373367Y0130933D03*
X0369430Y0130933D03*
X0365493Y0130933D03*
X0361556Y0130933D03*
X0316367Y0130933D03*
X0312430Y0130933D03*
X0308493Y0130933D03*
X0304556Y0130933D03*
X0259367Y0130933D03*
X0255430Y0130933D03*
X0251493Y0130933D03*
X0247556Y0130933D03*
X0202367Y0130933D03*
X0198430Y0130933D03*
X0194493Y0130933D03*
X0190556Y0130933D03*
X0145367Y0130933D03*
X0141430Y0130933D03*
X0137493Y0130933D03*
X0133556Y0130933D03*
X0088367Y0130933D03*
X0084430Y0130933D03*
X0080493Y0130933D03*
X0076556Y0130933D03*
X0076556Y0068933D03*
X0080493Y0068933D03*
X0084430Y0068933D03*
X0088367Y0068933D03*
X0133556Y0068933D03*
X0137493Y0068933D03*
X0141430Y0068933D03*
X0145367Y0068933D03*
X0190556Y0068933D03*
X0194493Y0068933D03*
X0198430Y0068933D03*
X0202367Y0068933D03*
X0247556Y0068933D03*
X0251493Y0068933D03*
X0255430Y0068933D03*
X0259367Y0068933D03*
X0304556Y0068933D03*
X0308493Y0068933D03*
X0312430Y0068933D03*
X0316367Y0068933D03*
X0361556Y0068933D03*
X0365493Y0068933D03*
X0369430Y0068933D03*
X0373367Y0068933D03*
D15*
X0057962Y0051933D03*
X0099962Y0098933D03*
X0114962Y0113933D03*
X0156962Y0098933D03*
X0171962Y0113933D03*
X0213962Y0098933D03*
X0228962Y0113933D03*
X0270962Y0098933D03*
X0285962Y0113933D03*
X0327962Y0098933D03*
X0342962Y0113933D03*
X0384962Y0098933D03*
X0342962Y0051933D03*
X0285962Y0051933D03*
X0228962Y0051933D03*
X0171962Y0051933D03*
X0114962Y0051933D03*
X0057962Y0113933D03*
X0099962Y0160933D03*
X0114962Y0175933D03*
X0156962Y0160933D03*
X0171962Y0175933D03*
X0213962Y0160933D03*
X0228962Y0175933D03*
X0270962Y0160933D03*
X0285962Y0175933D03*
X0327962Y0160933D03*
X0342962Y0175933D03*
X0384962Y0160933D03*
X0384962Y0222933D03*
X0342962Y0237933D03*
X0327962Y0222933D03*
X0285962Y0237933D03*
X0270962Y0222933D03*
X0228962Y0237933D03*
X0213962Y0222933D03*
X0171962Y0237933D03*
X0156962Y0222933D03*
X0114962Y0237933D03*
X0099962Y0222933D03*
X0057962Y0237933D03*
X0099962Y0284933D03*
X0114962Y0299933D03*
X0156962Y0284933D03*
X0171962Y0299933D03*
X0213962Y0284933D03*
X0228962Y0299933D03*
X0270962Y0284933D03*
X0285962Y0299933D03*
X0327962Y0284933D03*
X0342962Y0299933D03*
X0384962Y0284933D03*
X0384962Y0346933D03*
X0327962Y0346933D03*
X0270962Y0346933D03*
X0213962Y0346933D03*
X0156962Y0346933D03*
X0099962Y0346933D03*
X0057962Y0299933D03*
X0057962Y0175933D03*
D16*
X0081281Y0162567D03*
X0083643Y0162567D03*
X0083643Y0154299D03*
X0081281Y0154299D03*
X0138281Y0154299D03*
X0140643Y0154299D03*
X0140643Y0162567D03*
X0138281Y0162567D03*
X0138281Y0216299D03*
X0140643Y0216299D03*
X0140643Y0224567D03*
X0138281Y0224567D03*
X0083643Y0224567D03*
X0081281Y0224567D03*
X0081281Y0216299D03*
X0083643Y0216299D03*
X0083643Y0278299D03*
X0081281Y0278299D03*
X0081281Y0286567D03*
X0083643Y0286567D03*
X0138281Y0286567D03*
X0140643Y0286567D03*
X0140643Y0278299D03*
X0138281Y0278299D03*
X0195281Y0278299D03*
X0197643Y0278299D03*
X0197643Y0286567D03*
X0195281Y0286567D03*
X0252281Y0286567D03*
X0254643Y0286567D03*
X0254643Y0278299D03*
X0252281Y0278299D03*
X0309281Y0278299D03*
X0311643Y0278299D03*
X0311643Y0286567D03*
X0309281Y0286567D03*
X0366281Y0286567D03*
X0368643Y0286567D03*
X0368643Y0278299D03*
X0366281Y0278299D03*
X0366281Y0224567D03*
X0368643Y0224567D03*
X0368643Y0216299D03*
X0366281Y0216299D03*
X0311643Y0216299D03*
X0309281Y0216299D03*
X0309281Y0224567D03*
X0311643Y0224567D03*
X0254643Y0224567D03*
X0252281Y0224567D03*
X0252281Y0216299D03*
X0254643Y0216299D03*
X0254643Y0162567D03*
X0252281Y0162567D03*
X0252281Y0154299D03*
X0254643Y0154299D03*
X0309281Y0154299D03*
X0311643Y0154299D03*
X0311643Y0162567D03*
X0309281Y0162567D03*
X0366281Y0162567D03*
X0368643Y0162567D03*
X0368643Y0154299D03*
X0366281Y0154299D03*
X0366281Y0100567D03*
X0368643Y0100567D03*
X0368643Y0092299D03*
X0366281Y0092299D03*
X0311643Y0092299D03*
X0309281Y0092299D03*
X0309281Y0100567D03*
X0311643Y0100567D03*
X0254643Y0100567D03*
X0252281Y0100567D03*
X0252281Y0092299D03*
X0254643Y0092299D03*
X0197643Y0092299D03*
X0195281Y0092299D03*
X0195281Y0100567D03*
X0197643Y0100567D03*
X0140643Y0100567D03*
X0138281Y0100567D03*
X0138281Y0092299D03*
X0140643Y0092299D03*
X0083643Y0092299D03*
X0081281Y0092299D03*
X0081281Y0100567D03*
X0083643Y0100567D03*
X0195281Y0154299D03*
X0197643Y0154299D03*
X0197643Y0162567D03*
X0195281Y0162567D03*
X0195281Y0216299D03*
X0197643Y0216299D03*
X0197643Y0224567D03*
X0195281Y0224567D03*
X0195281Y0340299D03*
X0197643Y0340299D03*
X0197643Y0348567D03*
X0195281Y0348567D03*
X0140643Y0348567D03*
X0138281Y0348567D03*
X0138281Y0340299D03*
X0140643Y0340299D03*
X0083643Y0340299D03*
X0081281Y0340299D03*
X0081281Y0348567D03*
X0083643Y0348567D03*
X0252281Y0348567D03*
X0254643Y0348567D03*
X0254643Y0340299D03*
X0252281Y0340299D03*
X0309281Y0340299D03*
X0311643Y0340299D03*
X0311643Y0348567D03*
X0309281Y0348567D03*
X0366281Y0348567D03*
X0368643Y0348567D03*
X0368643Y0340299D03*
X0366281Y0340299D03*
D17*
X0363328Y0342071D03*
X0363328Y0344433D03*
X0363328Y0346795D03*
X0371596Y0346795D03*
X0371596Y0344433D03*
X0371596Y0342071D03*
X0314596Y0342071D03*
X0314596Y0344433D03*
X0314596Y0346795D03*
X0306328Y0346795D03*
X0306328Y0344433D03*
X0306328Y0342071D03*
X0257596Y0342071D03*
X0257596Y0344433D03*
X0257596Y0346795D03*
X0249328Y0346795D03*
X0249328Y0344433D03*
X0249328Y0342071D03*
X0200596Y0342071D03*
X0200596Y0344433D03*
X0200596Y0346795D03*
X0192328Y0346795D03*
X0192328Y0344433D03*
X0192328Y0342071D03*
X0143596Y0342071D03*
X0143596Y0344433D03*
X0143596Y0346795D03*
X0135328Y0346795D03*
X0135328Y0344433D03*
X0135328Y0342071D03*
X0086596Y0342071D03*
X0086596Y0344433D03*
X0086596Y0346795D03*
X0078328Y0346795D03*
X0078328Y0344433D03*
X0078328Y0342071D03*
X0078328Y0284795D03*
X0078328Y0282433D03*
X0078328Y0280071D03*
X0086596Y0280071D03*
X0086596Y0282433D03*
X0086596Y0284795D03*
X0135328Y0284795D03*
X0135328Y0282433D03*
X0135328Y0280071D03*
X0143596Y0280071D03*
X0143596Y0282433D03*
X0143596Y0284795D03*
X0192328Y0284795D03*
X0192328Y0282433D03*
X0192328Y0280071D03*
X0200596Y0280071D03*
X0200596Y0282433D03*
X0200596Y0284795D03*
X0249328Y0284795D03*
X0249328Y0282433D03*
X0249328Y0280071D03*
X0257596Y0280071D03*
X0257596Y0282433D03*
X0257596Y0284795D03*
X0306328Y0284795D03*
X0306328Y0282433D03*
X0306328Y0280071D03*
X0314596Y0280071D03*
X0314596Y0282433D03*
X0314596Y0284795D03*
X0363328Y0284795D03*
X0363328Y0282433D03*
X0363328Y0280071D03*
X0371596Y0280071D03*
X0371596Y0282433D03*
X0371596Y0284795D03*
X0371596Y0222795D03*
X0371596Y0220433D03*
X0371596Y0218071D03*
X0363328Y0218071D03*
X0363328Y0220433D03*
X0363328Y0222795D03*
X0314596Y0222795D03*
X0314596Y0220433D03*
X0314596Y0218071D03*
X0306328Y0218071D03*
X0306328Y0220433D03*
X0306328Y0222795D03*
X0257596Y0222795D03*
X0257596Y0220433D03*
X0257596Y0218071D03*
X0249328Y0218071D03*
X0249328Y0220433D03*
X0249328Y0222795D03*
X0200596Y0222795D03*
X0200596Y0220433D03*
X0200596Y0218071D03*
X0192328Y0218071D03*
X0192328Y0220433D03*
X0192328Y0222795D03*
X0143596Y0222795D03*
X0143596Y0220433D03*
X0143596Y0218071D03*
X0135328Y0218071D03*
X0135328Y0220433D03*
X0135328Y0222795D03*
X0086596Y0222795D03*
X0086596Y0220433D03*
X0086596Y0218071D03*
X0078328Y0218071D03*
X0078328Y0220433D03*
X0078328Y0222795D03*
X0078328Y0160795D03*
X0078328Y0158433D03*
X0078328Y0156071D03*
X0086596Y0156071D03*
X0086596Y0158433D03*
X0086596Y0160795D03*
X0135328Y0160795D03*
X0135328Y0158433D03*
X0135328Y0156071D03*
X0143596Y0156071D03*
X0143596Y0158433D03*
X0143596Y0160795D03*
X0192328Y0160795D03*
X0192328Y0158433D03*
X0192328Y0156071D03*
X0200596Y0156071D03*
X0200596Y0158433D03*
X0200596Y0160795D03*
X0249328Y0160795D03*
X0249328Y0158433D03*
X0249328Y0156071D03*
X0257596Y0156071D03*
X0257596Y0158433D03*
X0257596Y0160795D03*
X0306328Y0160795D03*
X0306328Y0158433D03*
X0306328Y0156071D03*
X0314596Y0156071D03*
X0314596Y0158433D03*
X0314596Y0160795D03*
X0363328Y0160795D03*
X0363328Y0158433D03*
X0363328Y0156071D03*
X0371596Y0156071D03*
X0371596Y0158433D03*
X0371596Y0160795D03*
X0371596Y0098795D03*
X0371596Y0096433D03*
X0371596Y0094071D03*
X0363328Y0094071D03*
X0363328Y0096433D03*
X0363328Y0098795D03*
X0314596Y0098795D03*
X0314596Y0096433D03*
X0314596Y0094071D03*
X0306328Y0094071D03*
X0306328Y0096433D03*
X0306328Y0098795D03*
X0257596Y0098795D03*
X0257596Y0096433D03*
X0257596Y0094071D03*
X0249328Y0094071D03*
X0249328Y0096433D03*
X0249328Y0098795D03*
X0200596Y0098795D03*
X0200596Y0096433D03*
X0200596Y0094071D03*
X0192328Y0094071D03*
X0192328Y0096433D03*
X0192328Y0098795D03*
X0143596Y0098795D03*
X0143596Y0096433D03*
X0143596Y0094071D03*
X0135328Y0094071D03*
X0135328Y0096433D03*
X0135328Y0098795D03*
X0086596Y0098795D03*
X0086596Y0096433D03*
X0086596Y0094071D03*
X0078328Y0094071D03*
X0078328Y0096433D03*
X0078328Y0098795D03*
D18*
X0081962Y0365183D03*
X0367962Y0365183D03*
D19*
X0078397Y0040683D02*
X0078399Y0040802D01*
X0078405Y0040921D01*
X0078415Y0041040D01*
X0078429Y0041158D01*
X0078447Y0041276D01*
X0078468Y0041393D01*
X0078494Y0041509D01*
X0078524Y0041625D01*
X0078557Y0041739D01*
X0078594Y0041852D01*
X0078635Y0041964D01*
X0078680Y0042075D01*
X0078728Y0042184D01*
X0078780Y0042291D01*
X0078836Y0042396D01*
X0078895Y0042500D01*
X0078957Y0042601D01*
X0079023Y0042701D01*
X0079092Y0042798D01*
X0079164Y0042892D01*
X0079240Y0042985D01*
X0079318Y0043074D01*
X0079399Y0043161D01*
X0079484Y0043246D01*
X0079571Y0043327D01*
X0079660Y0043405D01*
X0079753Y0043481D01*
X0079847Y0043553D01*
X0079944Y0043622D01*
X0080044Y0043688D01*
X0080145Y0043750D01*
X0080249Y0043809D01*
X0080354Y0043865D01*
X0080461Y0043917D01*
X0080570Y0043965D01*
X0080681Y0044010D01*
X0080793Y0044051D01*
X0080906Y0044088D01*
X0081020Y0044121D01*
X0081136Y0044151D01*
X0081252Y0044177D01*
X0081369Y0044198D01*
X0081487Y0044216D01*
X0081605Y0044230D01*
X0081724Y0044240D01*
X0081843Y0044246D01*
X0081962Y0044248D01*
X0082081Y0044246D01*
X0082200Y0044240D01*
X0082319Y0044230D01*
X0082437Y0044216D01*
X0082555Y0044198D01*
X0082672Y0044177D01*
X0082788Y0044151D01*
X0082904Y0044121D01*
X0083018Y0044088D01*
X0083131Y0044051D01*
X0083243Y0044010D01*
X0083354Y0043965D01*
X0083463Y0043917D01*
X0083570Y0043865D01*
X0083675Y0043809D01*
X0083779Y0043750D01*
X0083880Y0043688D01*
X0083980Y0043622D01*
X0084077Y0043553D01*
X0084171Y0043481D01*
X0084264Y0043405D01*
X0084353Y0043327D01*
X0084440Y0043246D01*
X0084525Y0043161D01*
X0084606Y0043074D01*
X0084684Y0042985D01*
X0084760Y0042892D01*
X0084832Y0042798D01*
X0084901Y0042701D01*
X0084967Y0042601D01*
X0085029Y0042500D01*
X0085088Y0042396D01*
X0085144Y0042291D01*
X0085196Y0042184D01*
X0085244Y0042075D01*
X0085289Y0041964D01*
X0085330Y0041852D01*
X0085367Y0041739D01*
X0085400Y0041625D01*
X0085430Y0041509D01*
X0085456Y0041393D01*
X0085477Y0041276D01*
X0085495Y0041158D01*
X0085509Y0041040D01*
X0085519Y0040921D01*
X0085525Y0040802D01*
X0085527Y0040683D01*
X0085525Y0040564D01*
X0085519Y0040445D01*
X0085509Y0040326D01*
X0085495Y0040208D01*
X0085477Y0040090D01*
X0085456Y0039973D01*
X0085430Y0039857D01*
X0085400Y0039741D01*
X0085367Y0039627D01*
X0085330Y0039514D01*
X0085289Y0039402D01*
X0085244Y0039291D01*
X0085196Y0039182D01*
X0085144Y0039075D01*
X0085088Y0038970D01*
X0085029Y0038866D01*
X0084967Y0038765D01*
X0084901Y0038665D01*
X0084832Y0038568D01*
X0084760Y0038474D01*
X0084684Y0038381D01*
X0084606Y0038292D01*
X0084525Y0038205D01*
X0084440Y0038120D01*
X0084353Y0038039D01*
X0084264Y0037961D01*
X0084171Y0037885D01*
X0084077Y0037813D01*
X0083980Y0037744D01*
X0083880Y0037678D01*
X0083779Y0037616D01*
X0083675Y0037557D01*
X0083570Y0037501D01*
X0083463Y0037449D01*
X0083354Y0037401D01*
X0083243Y0037356D01*
X0083131Y0037315D01*
X0083018Y0037278D01*
X0082904Y0037245D01*
X0082788Y0037215D01*
X0082672Y0037189D01*
X0082555Y0037168D01*
X0082437Y0037150D01*
X0082319Y0037136D01*
X0082200Y0037126D01*
X0082081Y0037120D01*
X0081962Y0037118D01*
X0081843Y0037120D01*
X0081724Y0037126D01*
X0081605Y0037136D01*
X0081487Y0037150D01*
X0081369Y0037168D01*
X0081252Y0037189D01*
X0081136Y0037215D01*
X0081020Y0037245D01*
X0080906Y0037278D01*
X0080793Y0037315D01*
X0080681Y0037356D01*
X0080570Y0037401D01*
X0080461Y0037449D01*
X0080354Y0037501D01*
X0080249Y0037557D01*
X0080145Y0037616D01*
X0080044Y0037678D01*
X0079944Y0037744D01*
X0079847Y0037813D01*
X0079753Y0037885D01*
X0079660Y0037961D01*
X0079571Y0038039D01*
X0079484Y0038120D01*
X0079399Y0038205D01*
X0079318Y0038292D01*
X0079240Y0038381D01*
X0079164Y0038474D01*
X0079092Y0038568D01*
X0079023Y0038665D01*
X0078957Y0038765D01*
X0078895Y0038866D01*
X0078836Y0038970D01*
X0078780Y0039075D01*
X0078728Y0039182D01*
X0078680Y0039291D01*
X0078635Y0039402D01*
X0078594Y0039514D01*
X0078557Y0039627D01*
X0078524Y0039741D01*
X0078494Y0039857D01*
X0078468Y0039973D01*
X0078447Y0040090D01*
X0078429Y0040208D01*
X0078415Y0040326D01*
X0078405Y0040445D01*
X0078399Y0040564D01*
X0078397Y0040683D01*
D20*
X0081962Y0040683D03*
M02*
