G75*
%MOIN*%
%OFA0B0*%
%FSLAX25Y25*%
%IPPOS*%
%LPD*%
%AMOC8*
5,1,8,0,0,1.08239X$1,22.5*
%
%ADD10C,0.00800*%
%ADD11C,0.02600*%
D10*
X0030750Y0030750D02*
X0030750Y0034330D01*
X0031078Y0034003D01*
X0033136Y0033150D01*
X0035364Y0033150D01*
X0037422Y0034003D01*
X0038997Y0035578D01*
X0039850Y0037636D01*
X0039850Y0039864D01*
X0038997Y0041922D01*
X0037422Y0043497D01*
X0035364Y0044350D01*
X0033136Y0044350D01*
X0031078Y0043497D01*
X0030750Y0043170D01*
X0030750Y0067943D01*
X0030765Y0067959D01*
X0030750Y0068769D01*
X0030750Y0068796D01*
X0030828Y0070811D01*
X0031675Y0074764D01*
X0033400Y0078420D01*
X0035912Y0081588D01*
X0039080Y0084100D01*
X0042736Y0085825D01*
X0046689Y0086672D01*
X0048704Y0086750D01*
X0048731Y0086750D01*
X0049541Y0086735D01*
X0049557Y0086750D01*
X0062943Y0086750D01*
X0062959Y0086735D01*
X0063769Y0086750D01*
X0063796Y0086750D01*
X0065811Y0086672D01*
X0069764Y0085825D01*
X0073420Y0084100D01*
X0076588Y0081588D01*
X0079100Y0078420D01*
X0080825Y0074764D01*
X0081672Y0070811D01*
X0081750Y0068796D01*
X0081750Y0068769D01*
X0081735Y0067959D01*
X0081750Y0067943D01*
X0081750Y0043170D01*
X0081422Y0043497D01*
X0079364Y0044350D01*
X0077136Y0044350D01*
X0075078Y0043497D01*
X0073503Y0041922D01*
X0072650Y0039864D01*
X0072650Y0037636D01*
X0073503Y0035578D01*
X0075078Y0034003D01*
X0077136Y0033150D01*
X0079364Y0033150D01*
X0081422Y0034003D01*
X0081750Y0034330D01*
X0081750Y0030750D01*
X0030750Y0030750D01*
X0030750Y0031146D02*
X0081750Y0031146D01*
X0081750Y0031944D02*
X0030750Y0031944D01*
X0030750Y0032743D02*
X0081750Y0032743D01*
X0081750Y0033541D02*
X0080308Y0033541D01*
X0076192Y0033541D02*
X0036308Y0033541D01*
X0037759Y0034340D02*
X0074741Y0034340D01*
X0073942Y0035138D02*
X0038558Y0035138D01*
X0039146Y0035937D02*
X0073354Y0035937D01*
X0073023Y0036735D02*
X0039477Y0036735D01*
X0039808Y0037534D02*
X0072692Y0037534D01*
X0072650Y0038332D02*
X0039850Y0038332D01*
X0039850Y0039131D02*
X0072650Y0039131D01*
X0072677Y0039929D02*
X0039823Y0039929D01*
X0039492Y0040728D02*
X0073008Y0040728D01*
X0073339Y0041526D02*
X0039161Y0041526D01*
X0038595Y0042325D02*
X0073905Y0042325D01*
X0074704Y0043123D02*
X0037796Y0043123D01*
X0036398Y0043922D02*
X0076102Y0043922D01*
X0080398Y0043922D02*
X0081750Y0043922D01*
X0081750Y0044720D02*
X0030750Y0044720D01*
X0030750Y0043922D02*
X0032102Y0043922D01*
X0030750Y0045519D02*
X0081750Y0045519D01*
X0081750Y0046317D02*
X0030750Y0046317D01*
X0030750Y0047116D02*
X0081750Y0047116D01*
X0081750Y0047914D02*
X0030750Y0047914D01*
X0030750Y0048713D02*
X0081750Y0048713D01*
X0081750Y0049511D02*
X0030750Y0049511D01*
X0030750Y0050310D02*
X0081750Y0050310D01*
X0081750Y0051108D02*
X0030750Y0051108D01*
X0030750Y0051907D02*
X0081750Y0051907D01*
X0081750Y0052705D02*
X0030750Y0052705D01*
X0030750Y0053504D02*
X0081750Y0053504D01*
X0081750Y0054302D02*
X0030750Y0054302D01*
X0030750Y0055101D02*
X0081750Y0055101D01*
X0081750Y0055899D02*
X0030750Y0055899D01*
X0030750Y0056698D02*
X0081750Y0056698D01*
X0081750Y0057496D02*
X0030750Y0057496D01*
X0030750Y0058295D02*
X0081750Y0058295D01*
X0081750Y0059093D02*
X0030750Y0059093D01*
X0030750Y0059892D02*
X0081750Y0059892D01*
X0081750Y0060690D02*
X0030750Y0060690D01*
X0030750Y0061489D02*
X0081750Y0061489D01*
X0081750Y0062287D02*
X0030750Y0062287D01*
X0030750Y0063086D02*
X0081750Y0063086D01*
X0081750Y0063884D02*
X0030750Y0063884D01*
X0030750Y0064683D02*
X0081750Y0064683D01*
X0081750Y0065482D02*
X0030750Y0065482D01*
X0030750Y0066280D02*
X0081750Y0066280D01*
X0081750Y0067079D02*
X0030750Y0067079D01*
X0030750Y0067877D02*
X0081750Y0067877D01*
X0081748Y0068676D02*
X0030752Y0068676D01*
X0030776Y0069474D02*
X0081724Y0069474D01*
X0081693Y0070273D02*
X0030807Y0070273D01*
X0030884Y0071071D02*
X0081616Y0071071D01*
X0081445Y0071870D02*
X0031055Y0071870D01*
X0031226Y0072668D02*
X0081274Y0072668D01*
X0081103Y0073467D02*
X0031397Y0073467D01*
X0031568Y0074265D02*
X0080932Y0074265D01*
X0080684Y0075064D02*
X0031816Y0075064D01*
X0032193Y0075862D02*
X0080307Y0075862D01*
X0079930Y0076661D02*
X0032570Y0076661D01*
X0032946Y0077459D02*
X0079554Y0077459D01*
X0079177Y0078258D02*
X0033323Y0078258D01*
X0033904Y0079056D02*
X0078596Y0079056D01*
X0077963Y0079855D02*
X0034537Y0079855D01*
X0035171Y0080653D02*
X0077329Y0080653D01*
X0076696Y0081452D02*
X0035804Y0081452D01*
X0036747Y0082250D02*
X0075753Y0082250D01*
X0074746Y0083049D02*
X0037754Y0083049D01*
X0038761Y0083847D02*
X0073739Y0083847D01*
X0072264Y0084646D02*
X0040236Y0084646D01*
X0041929Y0085444D02*
X0070571Y0085444D01*
X0067814Y0086243D02*
X0044686Y0086243D01*
X0037422Y0096003D02*
X0038997Y0097578D01*
X0039850Y0099636D01*
X0039850Y0101864D01*
X0038997Y0103922D01*
X0037422Y0105497D01*
X0035364Y0106350D01*
X0033136Y0106350D01*
X0031078Y0105497D01*
X0030750Y0105170D01*
X0030750Y0129943D01*
X0030765Y0129959D01*
X0030750Y0130769D01*
X0030750Y0130796D01*
X0030828Y0132811D01*
X0031675Y0136764D01*
X0033400Y0140420D01*
X0035912Y0143588D01*
X0039080Y0146100D01*
X0042736Y0147825D01*
X0046689Y0148672D01*
X0048704Y0148750D01*
X0048731Y0148750D01*
X0049541Y0148735D01*
X0049557Y0148750D01*
X0062943Y0148750D01*
X0062959Y0148735D01*
X0063769Y0148750D01*
X0063796Y0148750D01*
X0065811Y0148672D01*
X0069764Y0147825D01*
X0073420Y0146100D01*
X0076588Y0143588D01*
X0079100Y0140420D01*
X0080825Y0136764D01*
X0081672Y0132811D01*
X0081750Y0130796D01*
X0081750Y0130769D01*
X0081735Y0129959D01*
X0081750Y0129943D01*
X0081750Y0105170D01*
X0081422Y0105497D01*
X0079364Y0106350D01*
X0077136Y0106350D01*
X0075078Y0105497D01*
X0073503Y0103922D01*
X0072650Y0101864D01*
X0072650Y0099636D01*
X0073503Y0097578D01*
X0075078Y0096003D01*
X0077136Y0095150D01*
X0079364Y0095150D01*
X0081422Y0096003D01*
X0081750Y0096330D01*
X0081750Y0092750D01*
X0030750Y0092750D01*
X0030750Y0096330D01*
X0031078Y0096003D01*
X0033136Y0095150D01*
X0035364Y0095150D01*
X0037422Y0096003D01*
X0036993Y0095825D02*
X0075507Y0095825D01*
X0074457Y0096623D02*
X0038043Y0096623D01*
X0038842Y0097422D02*
X0073658Y0097422D01*
X0073236Y0098220D02*
X0039264Y0098220D01*
X0039594Y0099019D02*
X0072906Y0099019D01*
X0072650Y0099818D02*
X0039850Y0099818D01*
X0039850Y0100616D02*
X0072650Y0100616D01*
X0072650Y0101415D02*
X0039850Y0101415D01*
X0039705Y0102213D02*
X0072795Y0102213D01*
X0073125Y0103012D02*
X0039375Y0103012D01*
X0039044Y0103810D02*
X0073456Y0103810D01*
X0074189Y0104609D02*
X0038311Y0104609D01*
X0037512Y0105407D02*
X0074988Y0105407D01*
X0076788Y0106206D02*
X0035713Y0106206D01*
X0032788Y0106206D02*
X0030750Y0106206D01*
X0030750Y0107004D02*
X0081750Y0107004D01*
X0081750Y0106206D02*
X0079713Y0106206D01*
X0081512Y0105407D02*
X0081750Y0105407D01*
X0081750Y0107803D02*
X0030750Y0107803D01*
X0030750Y0108601D02*
X0081750Y0108601D01*
X0081750Y0109400D02*
X0030750Y0109400D01*
X0030750Y0110198D02*
X0081750Y0110198D01*
X0081750Y0110997D02*
X0030750Y0110997D01*
X0030750Y0111795D02*
X0081750Y0111795D01*
X0081750Y0112594D02*
X0030750Y0112594D01*
X0030750Y0113392D02*
X0081750Y0113392D01*
X0081750Y0114191D02*
X0030750Y0114191D01*
X0030750Y0114989D02*
X0081750Y0114989D01*
X0081750Y0115788D02*
X0030750Y0115788D01*
X0030750Y0116586D02*
X0081750Y0116586D01*
X0081750Y0117385D02*
X0030750Y0117385D01*
X0030750Y0118183D02*
X0081750Y0118183D01*
X0081750Y0118982D02*
X0030750Y0118982D01*
X0030750Y0119780D02*
X0081750Y0119780D01*
X0081750Y0120579D02*
X0030750Y0120579D01*
X0030750Y0121377D02*
X0081750Y0121377D01*
X0081750Y0122176D02*
X0030750Y0122176D01*
X0030750Y0122974D02*
X0081750Y0122974D01*
X0081750Y0123773D02*
X0030750Y0123773D01*
X0030750Y0124571D02*
X0081750Y0124571D01*
X0081750Y0125370D02*
X0030750Y0125370D01*
X0030750Y0126168D02*
X0081750Y0126168D01*
X0081750Y0126967D02*
X0030750Y0126967D01*
X0030750Y0127765D02*
X0081750Y0127765D01*
X0081750Y0128564D02*
X0030750Y0128564D01*
X0030750Y0129362D02*
X0081750Y0129362D01*
X0081739Y0130161D02*
X0030761Y0130161D01*
X0030756Y0130959D02*
X0081744Y0130959D01*
X0081713Y0131758D02*
X0030787Y0131758D01*
X0030818Y0132556D02*
X0081682Y0132556D01*
X0081555Y0133355D02*
X0030945Y0133355D01*
X0031116Y0134153D02*
X0081384Y0134153D01*
X0081213Y0134952D02*
X0031287Y0134952D01*
X0031458Y0135751D02*
X0081042Y0135751D01*
X0080871Y0136549D02*
X0031629Y0136549D01*
X0031950Y0137348D02*
X0080550Y0137348D01*
X0080173Y0138146D02*
X0032327Y0138146D01*
X0032703Y0138945D02*
X0079796Y0138945D01*
X0079420Y0139743D02*
X0033080Y0139743D01*
X0033496Y0140542D02*
X0079004Y0140542D01*
X0078371Y0141340D02*
X0034129Y0141340D01*
X0034762Y0142139D02*
X0077738Y0142139D01*
X0077104Y0142937D02*
X0035396Y0142937D01*
X0036098Y0143736D02*
X0076402Y0143736D01*
X0075395Y0144534D02*
X0037105Y0144534D01*
X0038112Y0145333D02*
X0074388Y0145333D01*
X0073355Y0146131D02*
X0039145Y0146131D01*
X0040838Y0146930D02*
X0071662Y0146930D01*
X0069969Y0147728D02*
X0042530Y0147728D01*
X0046011Y0148527D02*
X0066489Y0148527D01*
X0075078Y0158003D02*
X0077136Y0157150D01*
X0079364Y0157150D01*
X0081422Y0158003D01*
X0081750Y0158330D01*
X0081750Y0154750D01*
X0030750Y0154750D01*
X0030750Y0158330D01*
X0031078Y0158003D01*
X0033136Y0157150D01*
X0035364Y0157150D01*
X0037422Y0158003D01*
X0038997Y0159578D01*
X0039850Y0161636D01*
X0039850Y0163864D01*
X0038997Y0165922D01*
X0037422Y0167497D01*
X0035364Y0168350D01*
X0033136Y0168350D01*
X0031078Y0167497D01*
X0030750Y0167170D01*
X0030750Y0191943D01*
X0030765Y0191959D01*
X0030750Y0192769D01*
X0030750Y0192796D01*
X0030828Y0194811D01*
X0031675Y0198764D01*
X0033400Y0202420D01*
X0035912Y0205588D01*
X0039080Y0208100D01*
X0042736Y0209825D01*
X0046689Y0210672D01*
X0048704Y0210750D01*
X0048731Y0210750D01*
X0049541Y0210735D01*
X0049557Y0210750D01*
X0062943Y0210750D01*
X0062959Y0210735D01*
X0063769Y0210750D01*
X0063796Y0210750D01*
X0065811Y0210672D01*
X0069764Y0209825D01*
X0073420Y0208100D01*
X0076588Y0205588D01*
X0079100Y0202420D01*
X0080825Y0198764D01*
X0081672Y0194811D01*
X0081750Y0192796D01*
X0081750Y0192769D01*
X0081735Y0191959D01*
X0081750Y0191943D01*
X0081750Y0167170D01*
X0081422Y0167497D01*
X0079364Y0168350D01*
X0077136Y0168350D01*
X0075078Y0167497D01*
X0073503Y0165922D01*
X0072650Y0163864D01*
X0072650Y0161636D01*
X0073503Y0159578D01*
X0075078Y0158003D01*
X0074972Y0158109D02*
X0037528Y0158109D01*
X0038327Y0158907D02*
X0074173Y0158907D01*
X0073450Y0159706D02*
X0039050Y0159706D01*
X0039381Y0160504D02*
X0073119Y0160504D01*
X0072788Y0161303D02*
X0039712Y0161303D01*
X0039850Y0162101D02*
X0072650Y0162101D01*
X0072650Y0162900D02*
X0039850Y0162900D01*
X0039850Y0163698D02*
X0072650Y0163698D01*
X0072912Y0164497D02*
X0039588Y0164497D01*
X0039257Y0165295D02*
X0073243Y0165295D01*
X0073674Y0166094D02*
X0038826Y0166094D01*
X0038027Y0166892D02*
X0074473Y0166892D01*
X0075545Y0167691D02*
X0036955Y0167691D01*
X0031545Y0167691D02*
X0030750Y0167691D01*
X0030750Y0168489D02*
X0081750Y0168489D01*
X0081750Y0167691D02*
X0080955Y0167691D01*
X0081750Y0169288D02*
X0030750Y0169288D01*
X0030750Y0170087D02*
X0081750Y0170087D01*
X0081750Y0170885D02*
X0030750Y0170885D01*
X0030750Y0171684D02*
X0081750Y0171684D01*
X0081750Y0172482D02*
X0030750Y0172482D01*
X0030750Y0173281D02*
X0081750Y0173281D01*
X0081750Y0174079D02*
X0030750Y0174079D01*
X0030750Y0174878D02*
X0081750Y0174878D01*
X0081750Y0175676D02*
X0030750Y0175676D01*
X0030750Y0176475D02*
X0081750Y0176475D01*
X0081750Y0177273D02*
X0030750Y0177273D01*
X0030750Y0178072D02*
X0081750Y0178072D01*
X0081750Y0178870D02*
X0030750Y0178870D01*
X0030750Y0179669D02*
X0081750Y0179669D01*
X0081750Y0180467D02*
X0030750Y0180467D01*
X0030750Y0181266D02*
X0081750Y0181266D01*
X0081750Y0182064D02*
X0030750Y0182064D01*
X0030750Y0182863D02*
X0081750Y0182863D01*
X0081750Y0183661D02*
X0030750Y0183661D01*
X0030750Y0184460D02*
X0081750Y0184460D01*
X0081750Y0185258D02*
X0030750Y0185258D01*
X0030750Y0186057D02*
X0081750Y0186057D01*
X0081750Y0186855D02*
X0030750Y0186855D01*
X0030750Y0187654D02*
X0081750Y0187654D01*
X0081750Y0188452D02*
X0030750Y0188452D01*
X0030750Y0189251D02*
X0081750Y0189251D01*
X0081750Y0190049D02*
X0030750Y0190049D01*
X0030750Y0190848D02*
X0081750Y0190848D01*
X0081750Y0191646D02*
X0030750Y0191646D01*
X0030756Y0192445D02*
X0081744Y0192445D01*
X0081733Y0193243D02*
X0030767Y0193243D01*
X0030798Y0194042D02*
X0081702Y0194042D01*
X0081666Y0194840D02*
X0030834Y0194840D01*
X0031005Y0195639D02*
X0081495Y0195639D01*
X0081324Y0196437D02*
X0031176Y0196437D01*
X0031348Y0197236D02*
X0081152Y0197236D01*
X0080981Y0198034D02*
X0031519Y0198034D01*
X0031707Y0198833D02*
X0080793Y0198833D01*
X0080416Y0199631D02*
X0032084Y0199631D01*
X0032461Y0200430D02*
X0080039Y0200430D01*
X0079663Y0201228D02*
X0032837Y0201228D01*
X0033214Y0202027D02*
X0079286Y0202027D01*
X0078779Y0202825D02*
X0033721Y0202825D01*
X0034354Y0203624D02*
X0078146Y0203624D01*
X0077512Y0204422D02*
X0034988Y0204422D01*
X0035621Y0205221D02*
X0076879Y0205221D01*
X0076044Y0206020D02*
X0036456Y0206020D01*
X0037463Y0206818D02*
X0075037Y0206818D01*
X0074030Y0207617D02*
X0038470Y0207617D01*
X0039747Y0208415D02*
X0072753Y0208415D01*
X0071060Y0209214D02*
X0041440Y0209214D01*
X0043609Y0210012D02*
X0068891Y0210012D01*
X0075078Y0220003D02*
X0077136Y0219150D01*
X0079364Y0219150D01*
X0081422Y0220003D01*
X0081750Y0220330D01*
X0081750Y0216750D01*
X0030750Y0216750D01*
X0030750Y0220330D01*
X0031078Y0220003D01*
X0033136Y0219150D01*
X0035364Y0219150D01*
X0037422Y0220003D01*
X0038997Y0221578D01*
X0039850Y0223636D01*
X0039850Y0225864D01*
X0038997Y0227922D01*
X0037422Y0229497D01*
X0035364Y0230350D01*
X0033136Y0230350D01*
X0031078Y0229497D01*
X0030750Y0229170D01*
X0030750Y0253943D01*
X0030765Y0253959D01*
X0030750Y0254769D01*
X0030750Y0254796D01*
X0030828Y0256811D01*
X0031675Y0260764D01*
X0033400Y0264420D01*
X0035912Y0267588D01*
X0039080Y0270100D01*
X0042736Y0271825D01*
X0046689Y0272672D01*
X0048704Y0272750D01*
X0048731Y0272750D01*
X0049541Y0272735D01*
X0049557Y0272750D01*
X0062943Y0272750D01*
X0062959Y0272735D01*
X0063769Y0272750D01*
X0063796Y0272750D01*
X0065811Y0272672D01*
X0069764Y0271825D01*
X0073420Y0270100D01*
X0076588Y0267588D01*
X0079100Y0264420D01*
X0080825Y0260764D01*
X0081672Y0256811D01*
X0081750Y0254796D01*
X0081750Y0254769D01*
X0081735Y0253959D01*
X0081750Y0253943D01*
X0081750Y0229170D01*
X0081422Y0229497D01*
X0079364Y0230350D01*
X0077136Y0230350D01*
X0075078Y0229497D01*
X0073503Y0227922D01*
X0072650Y0225864D01*
X0072650Y0223636D01*
X0073503Y0221578D01*
X0075078Y0220003D01*
X0074688Y0220393D02*
X0037812Y0220393D01*
X0038611Y0221191D02*
X0073889Y0221191D01*
X0073332Y0221990D02*
X0039168Y0221990D01*
X0039499Y0222788D02*
X0073001Y0222788D01*
X0072670Y0223587D02*
X0039830Y0223587D01*
X0039850Y0224385D02*
X0072650Y0224385D01*
X0072650Y0225184D02*
X0039850Y0225184D01*
X0039801Y0225982D02*
X0072699Y0225982D01*
X0073030Y0226781D02*
X0039470Y0226781D01*
X0039139Y0227579D02*
X0073361Y0227579D01*
X0073958Y0228378D02*
X0038542Y0228378D01*
X0037743Y0229176D02*
X0074757Y0229176D01*
X0076230Y0229975D02*
X0036270Y0229975D01*
X0032230Y0229975D02*
X0030750Y0229975D01*
X0030750Y0230773D02*
X0081750Y0230773D01*
X0081750Y0229975D02*
X0080270Y0229975D01*
X0081743Y0229176D02*
X0081750Y0229176D01*
X0081750Y0231572D02*
X0030750Y0231572D01*
X0030750Y0232370D02*
X0081750Y0232370D01*
X0081750Y0233169D02*
X0030750Y0233169D01*
X0030750Y0233967D02*
X0081750Y0233967D01*
X0081750Y0234766D02*
X0030750Y0234766D01*
X0030750Y0235564D02*
X0081750Y0235564D01*
X0081750Y0236363D02*
X0030750Y0236363D01*
X0030750Y0237161D02*
X0081750Y0237161D01*
X0081750Y0237960D02*
X0030750Y0237960D01*
X0030750Y0238758D02*
X0081750Y0238758D01*
X0081750Y0239557D02*
X0030750Y0239557D01*
X0030750Y0240355D02*
X0081750Y0240355D01*
X0081750Y0241154D02*
X0030750Y0241154D01*
X0030750Y0241953D02*
X0081750Y0241953D01*
X0081750Y0242751D02*
X0030750Y0242751D01*
X0030750Y0243550D02*
X0081750Y0243550D01*
X0081750Y0244348D02*
X0030750Y0244348D01*
X0030750Y0245147D02*
X0081750Y0245147D01*
X0081750Y0245945D02*
X0030750Y0245945D01*
X0030750Y0246744D02*
X0081750Y0246744D01*
X0081750Y0247542D02*
X0030750Y0247542D01*
X0030750Y0248341D02*
X0081750Y0248341D01*
X0081750Y0249139D02*
X0030750Y0249139D01*
X0030750Y0249938D02*
X0081750Y0249938D01*
X0081750Y0250736D02*
X0030750Y0250736D01*
X0030750Y0251535D02*
X0081750Y0251535D01*
X0081750Y0252333D02*
X0030750Y0252333D01*
X0030750Y0253132D02*
X0081750Y0253132D01*
X0081750Y0253930D02*
X0030750Y0253930D01*
X0030751Y0254729D02*
X0081749Y0254729D01*
X0081722Y0255527D02*
X0030778Y0255527D01*
X0030809Y0256326D02*
X0081691Y0256326D01*
X0081605Y0257124D02*
X0030895Y0257124D01*
X0031066Y0257923D02*
X0081434Y0257923D01*
X0081263Y0258721D02*
X0031237Y0258721D01*
X0031408Y0259520D02*
X0081092Y0259520D01*
X0080921Y0260318D02*
X0031579Y0260318D01*
X0031841Y0261117D02*
X0080659Y0261117D01*
X0080282Y0261915D02*
X0032218Y0261915D01*
X0032595Y0262714D02*
X0079905Y0262714D01*
X0079529Y0263512D02*
X0032971Y0263512D01*
X0033348Y0264311D02*
X0079152Y0264311D01*
X0078554Y0265109D02*
X0033946Y0265109D01*
X0034579Y0265908D02*
X0077921Y0265908D01*
X0077287Y0266706D02*
X0035213Y0266706D01*
X0035846Y0267505D02*
X0076654Y0267505D01*
X0075686Y0268303D02*
X0036814Y0268303D01*
X0037821Y0269102D02*
X0074679Y0269102D01*
X0073672Y0269900D02*
X0038828Y0269900D01*
X0040349Y0270699D02*
X0072151Y0270699D01*
X0070459Y0271497D02*
X0042041Y0271497D01*
X0044934Y0272296D02*
X0067566Y0272296D01*
X0075078Y0282003D02*
X0077136Y0281150D01*
X0079364Y0281150D01*
X0081422Y0282003D01*
X0081750Y0282330D01*
X0081750Y0278750D01*
X0030750Y0278750D01*
X0030750Y0282330D01*
X0031078Y0282003D01*
X0033136Y0281150D01*
X0035364Y0281150D01*
X0037422Y0282003D01*
X0038997Y0283578D01*
X0039850Y0285636D01*
X0039850Y0287864D01*
X0038997Y0289922D01*
X0037422Y0291497D01*
X0035364Y0292350D01*
X0033136Y0292350D01*
X0031078Y0291497D01*
X0030750Y0291170D01*
X0030750Y0315943D01*
X0030765Y0315959D01*
X0030750Y0316769D01*
X0030750Y0316796D01*
X0030828Y0318811D01*
X0031675Y0322764D01*
X0033400Y0326420D01*
X0035912Y0329588D01*
X0039080Y0332100D01*
X0042736Y0333825D01*
X0046689Y0334672D01*
X0048704Y0334750D01*
X0048731Y0334750D01*
X0049541Y0334735D01*
X0049557Y0334750D01*
X0062943Y0334750D01*
X0062959Y0334735D01*
X0063769Y0334750D01*
X0063796Y0334750D01*
X0065811Y0334672D01*
X0069764Y0333825D01*
X0073420Y0332100D01*
X0076588Y0329588D01*
X0079100Y0326420D01*
X0080825Y0322764D01*
X0081672Y0318811D01*
X0081750Y0316796D01*
X0081750Y0316769D01*
X0081735Y0315959D01*
X0081750Y0315943D01*
X0081750Y0291170D01*
X0081422Y0291497D01*
X0079364Y0292350D01*
X0077136Y0292350D01*
X0075078Y0291497D01*
X0073503Y0289922D01*
X0072650Y0287864D01*
X0072650Y0285636D01*
X0073503Y0283578D01*
X0075078Y0282003D01*
X0075378Y0281878D02*
X0037122Y0281878D01*
X0038096Y0282677D02*
X0074404Y0282677D01*
X0073605Y0283475D02*
X0038895Y0283475D01*
X0039286Y0284274D02*
X0073214Y0284274D01*
X0072884Y0285072D02*
X0039616Y0285072D01*
X0039850Y0285871D02*
X0072650Y0285871D01*
X0072650Y0286669D02*
X0039850Y0286669D01*
X0039850Y0287468D02*
X0072650Y0287468D01*
X0072817Y0288266D02*
X0039683Y0288266D01*
X0039353Y0289065D02*
X0073147Y0289065D01*
X0073478Y0289863D02*
X0039022Y0289863D01*
X0038258Y0290662D02*
X0074242Y0290662D01*
X0075041Y0291460D02*
X0037459Y0291460D01*
X0035584Y0292259D02*
X0076916Y0292259D01*
X0079584Y0292259D02*
X0081750Y0292259D01*
X0081750Y0293057D02*
X0030750Y0293057D01*
X0030750Y0292259D02*
X0032916Y0292259D01*
X0031041Y0291460D02*
X0030750Y0291460D01*
X0030750Y0293856D02*
X0081750Y0293856D01*
X0081750Y0294654D02*
X0030750Y0294654D01*
X0030750Y0295453D02*
X0081750Y0295453D01*
X0081750Y0296251D02*
X0030750Y0296251D01*
X0030750Y0297050D02*
X0081750Y0297050D01*
X0081750Y0297848D02*
X0030750Y0297848D01*
X0030750Y0298647D02*
X0081750Y0298647D01*
X0081750Y0299445D02*
X0030750Y0299445D01*
X0030750Y0300244D02*
X0081750Y0300244D01*
X0081750Y0301042D02*
X0030750Y0301042D01*
X0030750Y0301841D02*
X0081750Y0301841D01*
X0081750Y0302639D02*
X0030750Y0302639D01*
X0030750Y0303438D02*
X0081750Y0303438D01*
X0081750Y0304236D02*
X0030750Y0304236D01*
X0030750Y0305035D02*
X0081750Y0305035D01*
X0081750Y0305833D02*
X0030750Y0305833D01*
X0030750Y0306632D02*
X0081750Y0306632D01*
X0081750Y0307430D02*
X0030750Y0307430D01*
X0030750Y0308229D02*
X0081750Y0308229D01*
X0081750Y0309027D02*
X0030750Y0309027D01*
X0030750Y0309826D02*
X0081750Y0309826D01*
X0081750Y0310624D02*
X0030750Y0310624D01*
X0030750Y0311423D02*
X0081750Y0311423D01*
X0081750Y0312222D02*
X0030750Y0312222D01*
X0030750Y0313020D02*
X0081750Y0313020D01*
X0081750Y0313819D02*
X0030750Y0313819D01*
X0030750Y0314617D02*
X0081750Y0314617D01*
X0081750Y0315416D02*
X0030750Y0315416D01*
X0030760Y0316214D02*
X0081740Y0316214D01*
X0081742Y0317013D02*
X0030758Y0317013D01*
X0030789Y0317811D02*
X0081711Y0317811D01*
X0081680Y0318610D02*
X0030820Y0318610D01*
X0030956Y0319408D02*
X0081544Y0319408D01*
X0081373Y0320207D02*
X0031127Y0320207D01*
X0031298Y0321005D02*
X0081202Y0321005D01*
X0081031Y0321804D02*
X0031469Y0321804D01*
X0031640Y0322602D02*
X0080860Y0322602D01*
X0080525Y0323401D02*
X0031975Y0323401D01*
X0032352Y0324199D02*
X0080148Y0324199D01*
X0079771Y0324998D02*
X0032729Y0324998D01*
X0033105Y0325796D02*
X0079395Y0325796D01*
X0078962Y0326595D02*
X0033538Y0326595D01*
X0034171Y0327393D02*
X0078329Y0327393D01*
X0077695Y0328192D02*
X0034805Y0328192D01*
X0035438Y0328990D02*
X0077062Y0328990D01*
X0076335Y0329789D02*
X0036165Y0329789D01*
X0037172Y0330587D02*
X0075328Y0330587D01*
X0074321Y0331386D02*
X0038179Y0331386D01*
X0039258Y0332184D02*
X0073242Y0332184D01*
X0071550Y0332983D02*
X0040950Y0332983D01*
X0042643Y0333781D02*
X0069857Y0333781D01*
X0066241Y0334580D02*
X0046259Y0334580D01*
X0088675Y0322764D02*
X0087828Y0318811D01*
X0087750Y0316796D01*
X0087750Y0316769D01*
X0087765Y0315959D01*
X0087750Y0315943D01*
X0087750Y0291170D01*
X0088078Y0291497D01*
X0090136Y0292350D01*
X0092364Y0292350D01*
X0094422Y0291497D01*
X0095997Y0289922D01*
X0096850Y0287864D01*
X0096850Y0285636D01*
X0095997Y0283578D01*
X0094422Y0282003D01*
X0092364Y0281150D01*
X0090136Y0281150D01*
X0088078Y0282003D01*
X0087750Y0282330D01*
X0087750Y0278750D01*
X0138750Y0278750D01*
X0138750Y0282330D01*
X0138422Y0282003D01*
X0136364Y0281150D01*
X0134136Y0281150D01*
X0132078Y0282003D01*
X0130503Y0283578D01*
X0129650Y0285636D01*
X0129650Y0287864D01*
X0130503Y0289922D01*
X0132078Y0291497D01*
X0134136Y0292350D01*
X0136364Y0292350D01*
X0138422Y0291497D01*
X0138750Y0291170D01*
X0138750Y0315943D01*
X0138735Y0315959D01*
X0138750Y0316769D01*
X0138750Y0316796D01*
X0138672Y0318811D01*
X0137825Y0322764D01*
X0136100Y0326420D01*
X0133588Y0329588D01*
X0130420Y0332100D01*
X0126764Y0333825D01*
X0122811Y0334672D01*
X0120796Y0334750D01*
X0120769Y0334750D01*
X0119959Y0334735D01*
X0119943Y0334750D01*
X0106557Y0334750D01*
X0106541Y0334735D01*
X0105731Y0334750D01*
X0105704Y0334750D01*
X0103689Y0334672D01*
X0099736Y0333825D01*
X0096080Y0332100D01*
X0092912Y0329588D01*
X0090400Y0326420D01*
X0088675Y0322764D01*
X0088640Y0322602D02*
X0137860Y0322602D01*
X0138031Y0321804D02*
X0088469Y0321804D01*
X0088298Y0321005D02*
X0138202Y0321005D01*
X0138373Y0320207D02*
X0088127Y0320207D01*
X0087956Y0319408D02*
X0138544Y0319408D01*
X0138680Y0318610D02*
X0087820Y0318610D01*
X0087789Y0317811D02*
X0138711Y0317811D01*
X0138742Y0317013D02*
X0087758Y0317013D01*
X0087760Y0316214D02*
X0138740Y0316214D01*
X0138750Y0315416D02*
X0087750Y0315416D01*
X0087750Y0314617D02*
X0138750Y0314617D01*
X0138750Y0313819D02*
X0087750Y0313819D01*
X0087750Y0313020D02*
X0138750Y0313020D01*
X0138750Y0312222D02*
X0087750Y0312222D01*
X0087750Y0311423D02*
X0138750Y0311423D01*
X0138750Y0310624D02*
X0087750Y0310624D01*
X0087750Y0309826D02*
X0138750Y0309826D01*
X0138750Y0309027D02*
X0087750Y0309027D01*
X0087750Y0308229D02*
X0138750Y0308229D01*
X0138750Y0307430D02*
X0087750Y0307430D01*
X0087750Y0306632D02*
X0138750Y0306632D01*
X0138750Y0305833D02*
X0087750Y0305833D01*
X0087750Y0305035D02*
X0138750Y0305035D01*
X0138750Y0304236D02*
X0087750Y0304236D01*
X0087750Y0303438D02*
X0138750Y0303438D01*
X0138750Y0302639D02*
X0087750Y0302639D01*
X0087750Y0301841D02*
X0138750Y0301841D01*
X0138750Y0301042D02*
X0087750Y0301042D01*
X0087750Y0300244D02*
X0138750Y0300244D01*
X0138750Y0299445D02*
X0087750Y0299445D01*
X0087750Y0298647D02*
X0138750Y0298647D01*
X0138750Y0297848D02*
X0087750Y0297848D01*
X0087750Y0297050D02*
X0138750Y0297050D01*
X0138750Y0296251D02*
X0087750Y0296251D01*
X0087750Y0295453D02*
X0138750Y0295453D01*
X0138750Y0294654D02*
X0087750Y0294654D01*
X0087750Y0293856D02*
X0138750Y0293856D01*
X0138750Y0293057D02*
X0087750Y0293057D01*
X0087750Y0292259D02*
X0089916Y0292259D01*
X0088041Y0291460D02*
X0087750Y0291460D01*
X0092584Y0292259D02*
X0133916Y0292259D01*
X0132041Y0291460D02*
X0094459Y0291460D01*
X0095258Y0290662D02*
X0131242Y0290662D01*
X0130478Y0289863D02*
X0096022Y0289863D01*
X0096353Y0289065D02*
X0130147Y0289065D01*
X0129817Y0288266D02*
X0096683Y0288266D01*
X0096850Y0287468D02*
X0129650Y0287468D01*
X0129650Y0286669D02*
X0096850Y0286669D01*
X0096850Y0285871D02*
X0129650Y0285871D01*
X0129884Y0285072D02*
X0096616Y0285072D01*
X0096286Y0284274D02*
X0130214Y0284274D01*
X0130605Y0283475D02*
X0095895Y0283475D01*
X0095096Y0282677D02*
X0131404Y0282677D01*
X0132378Y0281878D02*
X0094122Y0281878D01*
X0088378Y0281878D02*
X0087750Y0281878D01*
X0087750Y0281080D02*
X0138750Y0281080D01*
X0138750Y0281878D02*
X0138122Y0281878D01*
X0138750Y0280281D02*
X0087750Y0280281D01*
X0087750Y0279483D02*
X0138750Y0279483D01*
X0144750Y0279483D02*
X0195750Y0279483D01*
X0195750Y0278750D02*
X0195750Y0282330D01*
X0195422Y0282003D01*
X0193364Y0281150D01*
X0191136Y0281150D01*
X0189078Y0282003D01*
X0187503Y0283578D01*
X0186650Y0285636D01*
X0186650Y0287864D01*
X0187503Y0289922D01*
X0189078Y0291497D01*
X0191136Y0292350D01*
X0193364Y0292350D01*
X0195422Y0291497D01*
X0195750Y0291170D01*
X0195750Y0315943D01*
X0195735Y0315959D01*
X0195750Y0316769D01*
X0195750Y0316796D01*
X0195672Y0318811D01*
X0194825Y0322764D01*
X0193100Y0326420D01*
X0190588Y0329588D01*
X0187420Y0332100D01*
X0183764Y0333825D01*
X0179811Y0334672D01*
X0177796Y0334750D01*
X0177769Y0334750D01*
X0176959Y0334735D01*
X0176943Y0334750D01*
X0163557Y0334750D01*
X0163541Y0334735D01*
X0162731Y0334750D01*
X0162704Y0334750D01*
X0160689Y0334672D01*
X0156736Y0333825D01*
X0153080Y0332100D01*
X0149912Y0329588D01*
X0147400Y0326420D01*
X0145675Y0322764D01*
X0144828Y0318811D01*
X0144750Y0316796D01*
X0144750Y0316769D01*
X0144765Y0315959D01*
X0144750Y0315943D01*
X0144750Y0291170D01*
X0145078Y0291497D01*
X0147136Y0292350D01*
X0149364Y0292350D01*
X0151422Y0291497D01*
X0152997Y0289922D01*
X0153850Y0287864D01*
X0153850Y0285636D01*
X0152997Y0283578D01*
X0151422Y0282003D01*
X0149364Y0281150D01*
X0147136Y0281150D01*
X0145078Y0282003D01*
X0144750Y0282330D01*
X0144750Y0278750D01*
X0195750Y0278750D01*
X0195750Y0280281D02*
X0144750Y0280281D01*
X0144750Y0281080D02*
X0195750Y0281080D01*
X0195750Y0281878D02*
X0195122Y0281878D01*
X0189378Y0281878D02*
X0151122Y0281878D01*
X0152096Y0282677D02*
X0188404Y0282677D01*
X0187605Y0283475D02*
X0152895Y0283475D01*
X0153286Y0284274D02*
X0187214Y0284274D01*
X0186884Y0285072D02*
X0153616Y0285072D01*
X0153850Y0285871D02*
X0186650Y0285871D01*
X0186650Y0286669D02*
X0153850Y0286669D01*
X0153850Y0287468D02*
X0186650Y0287468D01*
X0186817Y0288266D02*
X0153683Y0288266D01*
X0153353Y0289065D02*
X0187147Y0289065D01*
X0187478Y0289863D02*
X0153022Y0289863D01*
X0152258Y0290662D02*
X0188242Y0290662D01*
X0189041Y0291460D02*
X0151459Y0291460D01*
X0149584Y0292259D02*
X0190916Y0292259D01*
X0193584Y0292259D02*
X0195750Y0292259D01*
X0195750Y0293057D02*
X0144750Y0293057D01*
X0144750Y0292259D02*
X0146916Y0292259D01*
X0145041Y0291460D02*
X0144750Y0291460D01*
X0144750Y0293856D02*
X0195750Y0293856D01*
X0195750Y0294654D02*
X0144750Y0294654D01*
X0144750Y0295453D02*
X0195750Y0295453D01*
X0195750Y0296251D02*
X0144750Y0296251D01*
X0144750Y0297050D02*
X0195750Y0297050D01*
X0195750Y0297848D02*
X0144750Y0297848D01*
X0144750Y0298647D02*
X0195750Y0298647D01*
X0195750Y0299445D02*
X0144750Y0299445D01*
X0144750Y0300244D02*
X0195750Y0300244D01*
X0195750Y0301042D02*
X0144750Y0301042D01*
X0144750Y0301841D02*
X0195750Y0301841D01*
X0195750Y0302639D02*
X0144750Y0302639D01*
X0144750Y0303438D02*
X0195750Y0303438D01*
X0195750Y0304236D02*
X0144750Y0304236D01*
X0144750Y0305035D02*
X0195750Y0305035D01*
X0195750Y0305833D02*
X0144750Y0305833D01*
X0144750Y0306632D02*
X0195750Y0306632D01*
X0195750Y0307430D02*
X0144750Y0307430D01*
X0144750Y0308229D02*
X0195750Y0308229D01*
X0195750Y0309027D02*
X0144750Y0309027D01*
X0144750Y0309826D02*
X0195750Y0309826D01*
X0195750Y0310624D02*
X0144750Y0310624D01*
X0144750Y0311423D02*
X0195750Y0311423D01*
X0195750Y0312222D02*
X0144750Y0312222D01*
X0144750Y0313020D02*
X0195750Y0313020D01*
X0195750Y0313819D02*
X0144750Y0313819D01*
X0144750Y0314617D02*
X0195750Y0314617D01*
X0195750Y0315416D02*
X0144750Y0315416D01*
X0144760Y0316214D02*
X0195740Y0316214D01*
X0195742Y0317013D02*
X0144758Y0317013D01*
X0144789Y0317811D02*
X0195711Y0317811D01*
X0195680Y0318610D02*
X0144820Y0318610D01*
X0144956Y0319408D02*
X0195544Y0319408D01*
X0195373Y0320207D02*
X0145127Y0320207D01*
X0145298Y0321005D02*
X0195202Y0321005D01*
X0195031Y0321804D02*
X0145469Y0321804D01*
X0145640Y0322602D02*
X0194860Y0322602D01*
X0194525Y0323401D02*
X0145975Y0323401D01*
X0146352Y0324199D02*
X0194148Y0324199D01*
X0193771Y0324998D02*
X0146729Y0324998D01*
X0147105Y0325796D02*
X0193395Y0325796D01*
X0192962Y0326595D02*
X0147538Y0326595D01*
X0148171Y0327393D02*
X0192329Y0327393D01*
X0191695Y0328192D02*
X0148805Y0328192D01*
X0149438Y0328990D02*
X0191062Y0328990D01*
X0190335Y0329789D02*
X0150165Y0329789D01*
X0151172Y0330587D02*
X0189328Y0330587D01*
X0188321Y0331386D02*
X0152179Y0331386D01*
X0153258Y0332184D02*
X0187242Y0332184D01*
X0185550Y0332983D02*
X0154950Y0332983D01*
X0156643Y0333781D02*
X0183857Y0333781D01*
X0180241Y0334580D02*
X0160259Y0334580D01*
X0137525Y0323401D02*
X0088975Y0323401D01*
X0089352Y0324199D02*
X0137148Y0324199D01*
X0136771Y0324998D02*
X0089729Y0324998D01*
X0090105Y0325796D02*
X0136395Y0325796D01*
X0135962Y0326595D02*
X0090538Y0326595D01*
X0091171Y0327393D02*
X0135329Y0327393D01*
X0134695Y0328192D02*
X0091805Y0328192D01*
X0092438Y0328990D02*
X0134062Y0328990D01*
X0133335Y0329789D02*
X0093165Y0329789D01*
X0094172Y0330587D02*
X0132328Y0330587D01*
X0131321Y0331386D02*
X0095179Y0331386D01*
X0096258Y0332184D02*
X0130242Y0332184D01*
X0128550Y0332983D02*
X0097950Y0332983D01*
X0099643Y0333781D02*
X0126857Y0333781D01*
X0123241Y0334580D02*
X0103259Y0334580D01*
X0081750Y0291460D02*
X0081459Y0291460D01*
X0081750Y0281878D02*
X0081122Y0281878D01*
X0081750Y0281080D02*
X0030750Y0281080D01*
X0030750Y0281878D02*
X0031378Y0281878D01*
X0030750Y0280281D02*
X0081750Y0280281D01*
X0081750Y0279483D02*
X0030750Y0279483D01*
X0088675Y0260764D02*
X0087828Y0256811D01*
X0087750Y0254796D01*
X0087750Y0254769D01*
X0087765Y0253959D01*
X0087750Y0253943D01*
X0087750Y0229170D01*
X0088078Y0229497D01*
X0090136Y0230350D01*
X0092364Y0230350D01*
X0094422Y0229497D01*
X0095997Y0227922D01*
X0096850Y0225864D01*
X0096850Y0223636D01*
X0095997Y0221578D01*
X0094422Y0220003D01*
X0092364Y0219150D01*
X0090136Y0219150D01*
X0088078Y0220003D01*
X0087750Y0220330D01*
X0087750Y0216750D01*
X0138750Y0216750D01*
X0138750Y0220330D01*
X0138422Y0220003D01*
X0136364Y0219150D01*
X0134136Y0219150D01*
X0132078Y0220003D01*
X0130503Y0221578D01*
X0129650Y0223636D01*
X0129650Y0225864D01*
X0130503Y0227922D01*
X0132078Y0229497D01*
X0134136Y0230350D01*
X0136364Y0230350D01*
X0138422Y0229497D01*
X0138750Y0229170D01*
X0138750Y0253943D01*
X0138735Y0253959D01*
X0138750Y0254769D01*
X0138750Y0254796D01*
X0138672Y0256811D01*
X0137825Y0260764D01*
X0136100Y0264420D01*
X0133588Y0267588D01*
X0130420Y0270100D01*
X0126764Y0271825D01*
X0122811Y0272672D01*
X0120796Y0272750D01*
X0120769Y0272750D01*
X0119959Y0272735D01*
X0119943Y0272750D01*
X0106557Y0272750D01*
X0106541Y0272735D01*
X0105731Y0272750D01*
X0105704Y0272750D01*
X0103689Y0272672D01*
X0099736Y0271825D01*
X0096080Y0270100D01*
X0092912Y0267588D01*
X0090400Y0264420D01*
X0088675Y0260764D01*
X0088841Y0261117D02*
X0137659Y0261117D01*
X0137921Y0260318D02*
X0088579Y0260318D01*
X0088408Y0259520D02*
X0138092Y0259520D01*
X0138263Y0258721D02*
X0088237Y0258721D01*
X0088066Y0257923D02*
X0138434Y0257923D01*
X0138605Y0257124D02*
X0087895Y0257124D01*
X0087809Y0256326D02*
X0138691Y0256326D01*
X0138722Y0255527D02*
X0087778Y0255527D01*
X0087751Y0254729D02*
X0138749Y0254729D01*
X0138750Y0253930D02*
X0087750Y0253930D01*
X0087750Y0253132D02*
X0138750Y0253132D01*
X0138750Y0252333D02*
X0087750Y0252333D01*
X0087750Y0251535D02*
X0138750Y0251535D01*
X0138750Y0250736D02*
X0087750Y0250736D01*
X0087750Y0249938D02*
X0138750Y0249938D01*
X0138750Y0249139D02*
X0087750Y0249139D01*
X0087750Y0248341D02*
X0138750Y0248341D01*
X0138750Y0247542D02*
X0087750Y0247542D01*
X0087750Y0246744D02*
X0138750Y0246744D01*
X0138750Y0245945D02*
X0087750Y0245945D01*
X0087750Y0245147D02*
X0138750Y0245147D01*
X0138750Y0244348D02*
X0087750Y0244348D01*
X0087750Y0243550D02*
X0138750Y0243550D01*
X0138750Y0242751D02*
X0087750Y0242751D01*
X0087750Y0241953D02*
X0138750Y0241953D01*
X0138750Y0241154D02*
X0087750Y0241154D01*
X0087750Y0240355D02*
X0138750Y0240355D01*
X0138750Y0239557D02*
X0087750Y0239557D01*
X0087750Y0238758D02*
X0138750Y0238758D01*
X0138750Y0237960D02*
X0087750Y0237960D01*
X0087750Y0237161D02*
X0138750Y0237161D01*
X0138750Y0236363D02*
X0087750Y0236363D01*
X0087750Y0235564D02*
X0138750Y0235564D01*
X0138750Y0234766D02*
X0087750Y0234766D01*
X0087750Y0233967D02*
X0138750Y0233967D01*
X0138750Y0233169D02*
X0087750Y0233169D01*
X0087750Y0232370D02*
X0138750Y0232370D01*
X0138750Y0231572D02*
X0087750Y0231572D01*
X0087750Y0230773D02*
X0138750Y0230773D01*
X0138750Y0229975D02*
X0137270Y0229975D01*
X0138743Y0229176D02*
X0138750Y0229176D01*
X0144750Y0229176D02*
X0144757Y0229176D01*
X0144750Y0229170D02*
X0144750Y0253943D01*
X0144765Y0253959D01*
X0144750Y0254769D01*
X0144750Y0254796D01*
X0144828Y0256811D01*
X0145675Y0260764D01*
X0147400Y0264420D01*
X0149912Y0267588D01*
X0153080Y0270100D01*
X0156736Y0271825D01*
X0160689Y0272672D01*
X0162704Y0272750D01*
X0162731Y0272750D01*
X0163541Y0272735D01*
X0163557Y0272750D01*
X0176943Y0272750D01*
X0176959Y0272735D01*
X0177769Y0272750D01*
X0177796Y0272750D01*
X0179811Y0272672D01*
X0183764Y0271825D01*
X0187420Y0270100D01*
X0190588Y0267588D01*
X0193100Y0264420D01*
X0194825Y0260764D01*
X0195672Y0256811D01*
X0195750Y0254796D01*
X0195750Y0254769D01*
X0195735Y0253959D01*
X0195750Y0253943D01*
X0195750Y0229170D01*
X0195422Y0229497D01*
X0193364Y0230350D01*
X0191136Y0230350D01*
X0189078Y0229497D01*
X0187503Y0227922D01*
X0186650Y0225864D01*
X0186650Y0223636D01*
X0187503Y0221578D01*
X0189078Y0220003D01*
X0191136Y0219150D01*
X0193364Y0219150D01*
X0195422Y0220003D01*
X0195750Y0220330D01*
X0195750Y0216750D01*
X0144750Y0216750D01*
X0144750Y0220330D01*
X0145078Y0220003D01*
X0147136Y0219150D01*
X0149364Y0219150D01*
X0151422Y0220003D01*
X0152997Y0221578D01*
X0153850Y0223636D01*
X0153850Y0225864D01*
X0152997Y0227922D01*
X0151422Y0229497D01*
X0149364Y0230350D01*
X0147136Y0230350D01*
X0145078Y0229497D01*
X0144750Y0229170D01*
X0144750Y0229975D02*
X0146230Y0229975D01*
X0144750Y0230773D02*
X0195750Y0230773D01*
X0195750Y0229975D02*
X0194270Y0229975D01*
X0195743Y0229176D02*
X0195750Y0229176D01*
X0195750Y0231572D02*
X0144750Y0231572D01*
X0144750Y0232370D02*
X0195750Y0232370D01*
X0195750Y0233169D02*
X0144750Y0233169D01*
X0144750Y0233967D02*
X0195750Y0233967D01*
X0195750Y0234766D02*
X0144750Y0234766D01*
X0144750Y0235564D02*
X0195750Y0235564D01*
X0195750Y0236363D02*
X0144750Y0236363D01*
X0144750Y0237161D02*
X0195750Y0237161D01*
X0195750Y0237960D02*
X0144750Y0237960D01*
X0144750Y0238758D02*
X0195750Y0238758D01*
X0195750Y0239557D02*
X0144750Y0239557D01*
X0144750Y0240355D02*
X0195750Y0240355D01*
X0195750Y0241154D02*
X0144750Y0241154D01*
X0144750Y0241953D02*
X0195750Y0241953D01*
X0195750Y0242751D02*
X0144750Y0242751D01*
X0144750Y0243550D02*
X0195750Y0243550D01*
X0195750Y0244348D02*
X0144750Y0244348D01*
X0144750Y0245147D02*
X0195750Y0245147D01*
X0195750Y0245945D02*
X0144750Y0245945D01*
X0144750Y0246744D02*
X0195750Y0246744D01*
X0195750Y0247542D02*
X0144750Y0247542D01*
X0144750Y0248341D02*
X0195750Y0248341D01*
X0195750Y0249139D02*
X0144750Y0249139D01*
X0144750Y0249938D02*
X0195750Y0249938D01*
X0195750Y0250736D02*
X0144750Y0250736D01*
X0144750Y0251535D02*
X0195750Y0251535D01*
X0195750Y0252333D02*
X0144750Y0252333D01*
X0144750Y0253132D02*
X0195750Y0253132D01*
X0195750Y0253930D02*
X0144750Y0253930D01*
X0144751Y0254729D02*
X0195749Y0254729D01*
X0195722Y0255527D02*
X0144778Y0255527D01*
X0144809Y0256326D02*
X0195691Y0256326D01*
X0195605Y0257124D02*
X0144895Y0257124D01*
X0145066Y0257923D02*
X0195434Y0257923D01*
X0195263Y0258721D02*
X0145237Y0258721D01*
X0145408Y0259520D02*
X0195092Y0259520D01*
X0194921Y0260318D02*
X0145579Y0260318D01*
X0145841Y0261117D02*
X0194659Y0261117D01*
X0194282Y0261915D02*
X0146218Y0261915D01*
X0146595Y0262714D02*
X0193905Y0262714D01*
X0193529Y0263512D02*
X0146971Y0263512D01*
X0147348Y0264311D02*
X0193152Y0264311D01*
X0192554Y0265109D02*
X0147946Y0265109D01*
X0148579Y0265908D02*
X0191921Y0265908D01*
X0191287Y0266706D02*
X0149213Y0266706D01*
X0149846Y0267505D02*
X0190654Y0267505D01*
X0189686Y0268303D02*
X0150814Y0268303D01*
X0151821Y0269102D02*
X0188679Y0269102D01*
X0187672Y0269900D02*
X0152828Y0269900D01*
X0154349Y0270699D02*
X0186151Y0270699D01*
X0184459Y0271497D02*
X0156041Y0271497D01*
X0158934Y0272296D02*
X0181566Y0272296D01*
X0201750Y0278750D02*
X0201750Y0282330D01*
X0202078Y0282003D01*
X0204136Y0281150D01*
X0206364Y0281150D01*
X0208422Y0282003D01*
X0209997Y0283578D01*
X0210850Y0285636D01*
X0210850Y0287864D01*
X0209997Y0289922D01*
X0208422Y0291497D01*
X0206364Y0292350D01*
X0204136Y0292350D01*
X0202078Y0291497D01*
X0201750Y0291170D01*
X0201750Y0315943D01*
X0201765Y0315959D01*
X0201750Y0316769D01*
X0201750Y0316796D01*
X0201828Y0318811D01*
X0202675Y0322764D01*
X0204400Y0326420D01*
X0206912Y0329588D01*
X0210080Y0332100D01*
X0213736Y0333825D01*
X0217689Y0334672D01*
X0219704Y0334750D01*
X0219731Y0334750D01*
X0220541Y0334735D01*
X0220557Y0334750D01*
X0233943Y0334750D01*
X0233959Y0334735D01*
X0234769Y0334750D01*
X0234796Y0334750D01*
X0236811Y0334672D01*
X0240764Y0333825D01*
X0244420Y0332100D01*
X0247588Y0329588D01*
X0250100Y0326420D01*
X0251825Y0322764D01*
X0252672Y0318811D01*
X0252750Y0316796D01*
X0252750Y0316769D01*
X0252735Y0315959D01*
X0252750Y0315943D01*
X0252750Y0291170D01*
X0252422Y0291497D01*
X0250364Y0292350D01*
X0248136Y0292350D01*
X0246078Y0291497D01*
X0244503Y0289922D01*
X0243650Y0287864D01*
X0243650Y0285636D01*
X0244503Y0283578D01*
X0246078Y0282003D01*
X0248136Y0281150D01*
X0250364Y0281150D01*
X0252422Y0282003D01*
X0252750Y0282330D01*
X0252750Y0278750D01*
X0201750Y0278750D01*
X0201750Y0279483D02*
X0252750Y0279483D01*
X0252750Y0280281D02*
X0201750Y0280281D01*
X0201750Y0281080D02*
X0252750Y0281080D01*
X0252750Y0281878D02*
X0252122Y0281878D01*
X0246378Y0281878D02*
X0208122Y0281878D01*
X0209096Y0282677D02*
X0245404Y0282677D01*
X0244605Y0283475D02*
X0209895Y0283475D01*
X0210286Y0284274D02*
X0244214Y0284274D01*
X0243884Y0285072D02*
X0210616Y0285072D01*
X0210850Y0285871D02*
X0243650Y0285871D01*
X0243650Y0286669D02*
X0210850Y0286669D01*
X0210850Y0287468D02*
X0243650Y0287468D01*
X0243817Y0288266D02*
X0210683Y0288266D01*
X0210353Y0289065D02*
X0244147Y0289065D01*
X0244478Y0289863D02*
X0210022Y0289863D01*
X0209258Y0290662D02*
X0245242Y0290662D01*
X0246041Y0291460D02*
X0208459Y0291460D01*
X0206584Y0292259D02*
X0247916Y0292259D01*
X0250584Y0292259D02*
X0252750Y0292259D01*
X0252750Y0293057D02*
X0201750Y0293057D01*
X0201750Y0292259D02*
X0203916Y0292259D01*
X0202041Y0291460D02*
X0201750Y0291460D01*
X0201750Y0293856D02*
X0252750Y0293856D01*
X0252750Y0294654D02*
X0201750Y0294654D01*
X0201750Y0295453D02*
X0252750Y0295453D01*
X0252750Y0296251D02*
X0201750Y0296251D01*
X0201750Y0297050D02*
X0252750Y0297050D01*
X0252750Y0297848D02*
X0201750Y0297848D01*
X0201750Y0298647D02*
X0252750Y0298647D01*
X0252750Y0299445D02*
X0201750Y0299445D01*
X0201750Y0300244D02*
X0252750Y0300244D01*
X0252750Y0301042D02*
X0201750Y0301042D01*
X0201750Y0301841D02*
X0252750Y0301841D01*
X0252750Y0302639D02*
X0201750Y0302639D01*
X0201750Y0303438D02*
X0252750Y0303438D01*
X0252750Y0304236D02*
X0201750Y0304236D01*
X0201750Y0305035D02*
X0252750Y0305035D01*
X0252750Y0305833D02*
X0201750Y0305833D01*
X0201750Y0306632D02*
X0252750Y0306632D01*
X0252750Y0307430D02*
X0201750Y0307430D01*
X0201750Y0308229D02*
X0252750Y0308229D01*
X0252750Y0309027D02*
X0201750Y0309027D01*
X0201750Y0309826D02*
X0252750Y0309826D01*
X0252750Y0310624D02*
X0201750Y0310624D01*
X0201750Y0311423D02*
X0252750Y0311423D01*
X0252750Y0312222D02*
X0201750Y0312222D01*
X0201750Y0313020D02*
X0252750Y0313020D01*
X0252750Y0313819D02*
X0201750Y0313819D01*
X0201750Y0314617D02*
X0252750Y0314617D01*
X0252750Y0315416D02*
X0201750Y0315416D01*
X0201760Y0316214D02*
X0252740Y0316214D01*
X0252742Y0317013D02*
X0201758Y0317013D01*
X0201789Y0317811D02*
X0252711Y0317811D01*
X0252680Y0318610D02*
X0201820Y0318610D01*
X0201956Y0319408D02*
X0252544Y0319408D01*
X0252373Y0320207D02*
X0202127Y0320207D01*
X0202298Y0321005D02*
X0252202Y0321005D01*
X0252031Y0321804D02*
X0202469Y0321804D01*
X0202640Y0322602D02*
X0251860Y0322602D01*
X0251525Y0323401D02*
X0202975Y0323401D01*
X0203352Y0324199D02*
X0251148Y0324199D01*
X0250771Y0324998D02*
X0203729Y0324998D01*
X0204105Y0325796D02*
X0250395Y0325796D01*
X0249962Y0326595D02*
X0204538Y0326595D01*
X0205171Y0327393D02*
X0249329Y0327393D01*
X0248695Y0328192D02*
X0205805Y0328192D01*
X0206438Y0328990D02*
X0248062Y0328990D01*
X0247335Y0329789D02*
X0207165Y0329789D01*
X0208172Y0330587D02*
X0246328Y0330587D01*
X0245321Y0331386D02*
X0209179Y0331386D01*
X0210258Y0332184D02*
X0244242Y0332184D01*
X0242550Y0332983D02*
X0211950Y0332983D01*
X0213643Y0333781D02*
X0240857Y0333781D01*
X0237241Y0334580D02*
X0217259Y0334580D01*
X0259675Y0322764D02*
X0258828Y0318811D01*
X0258750Y0316796D01*
X0258750Y0316769D01*
X0258765Y0315959D01*
X0258750Y0315943D01*
X0258750Y0291170D01*
X0259078Y0291497D01*
X0261136Y0292350D01*
X0263364Y0292350D01*
X0265422Y0291497D01*
X0266997Y0289922D01*
X0267850Y0287864D01*
X0267850Y0285636D01*
X0266997Y0283578D01*
X0265422Y0282003D01*
X0263364Y0281150D01*
X0261136Y0281150D01*
X0259078Y0282003D01*
X0258750Y0282330D01*
X0258750Y0278750D01*
X0309750Y0278750D01*
X0309750Y0282330D01*
X0309422Y0282003D01*
X0307364Y0281150D01*
X0305136Y0281150D01*
X0303078Y0282003D01*
X0301503Y0283578D01*
X0300650Y0285636D01*
X0300650Y0287864D01*
X0301503Y0289922D01*
X0303078Y0291497D01*
X0305136Y0292350D01*
X0307364Y0292350D01*
X0309422Y0291497D01*
X0309750Y0291170D01*
X0309750Y0315943D01*
X0309735Y0315959D01*
X0309750Y0316769D01*
X0309750Y0316796D01*
X0309672Y0318811D01*
X0308825Y0322764D01*
X0307100Y0326420D01*
X0304588Y0329588D01*
X0301420Y0332100D01*
X0297764Y0333825D01*
X0293811Y0334672D01*
X0291796Y0334750D01*
X0291769Y0334750D01*
X0290959Y0334735D01*
X0290943Y0334750D01*
X0277557Y0334750D01*
X0277541Y0334735D01*
X0276731Y0334750D01*
X0276704Y0334750D01*
X0274689Y0334672D01*
X0270736Y0333825D01*
X0267080Y0332100D01*
X0263912Y0329588D01*
X0261400Y0326420D01*
X0259675Y0322764D01*
X0259640Y0322602D02*
X0308860Y0322602D01*
X0309031Y0321804D02*
X0259469Y0321804D01*
X0259298Y0321005D02*
X0309202Y0321005D01*
X0309373Y0320207D02*
X0259127Y0320207D01*
X0258956Y0319408D02*
X0309544Y0319408D01*
X0309680Y0318610D02*
X0258820Y0318610D01*
X0258789Y0317811D02*
X0309711Y0317811D01*
X0309742Y0317013D02*
X0258758Y0317013D01*
X0258760Y0316214D02*
X0309740Y0316214D01*
X0309750Y0315416D02*
X0258750Y0315416D01*
X0258750Y0314617D02*
X0309750Y0314617D01*
X0309750Y0313819D02*
X0258750Y0313819D01*
X0258750Y0313020D02*
X0309750Y0313020D01*
X0309750Y0312222D02*
X0258750Y0312222D01*
X0258750Y0311423D02*
X0309750Y0311423D01*
X0309750Y0310624D02*
X0258750Y0310624D01*
X0258750Y0309826D02*
X0309750Y0309826D01*
X0309750Y0309027D02*
X0258750Y0309027D01*
X0258750Y0308229D02*
X0309750Y0308229D01*
X0309750Y0307430D02*
X0258750Y0307430D01*
X0258750Y0306632D02*
X0309750Y0306632D01*
X0309750Y0305833D02*
X0258750Y0305833D01*
X0258750Y0305035D02*
X0309750Y0305035D01*
X0309750Y0304236D02*
X0258750Y0304236D01*
X0258750Y0303438D02*
X0309750Y0303438D01*
X0309750Y0302639D02*
X0258750Y0302639D01*
X0258750Y0301841D02*
X0309750Y0301841D01*
X0309750Y0301042D02*
X0258750Y0301042D01*
X0258750Y0300244D02*
X0309750Y0300244D01*
X0309750Y0299445D02*
X0258750Y0299445D01*
X0258750Y0298647D02*
X0309750Y0298647D01*
X0309750Y0297848D02*
X0258750Y0297848D01*
X0258750Y0297050D02*
X0309750Y0297050D01*
X0309750Y0296251D02*
X0258750Y0296251D01*
X0258750Y0295453D02*
X0309750Y0295453D01*
X0309750Y0294654D02*
X0258750Y0294654D01*
X0258750Y0293856D02*
X0309750Y0293856D01*
X0309750Y0293057D02*
X0258750Y0293057D01*
X0258750Y0292259D02*
X0260916Y0292259D01*
X0259041Y0291460D02*
X0258750Y0291460D01*
X0263584Y0292259D02*
X0304916Y0292259D01*
X0303041Y0291460D02*
X0265459Y0291460D01*
X0266258Y0290662D02*
X0302242Y0290662D01*
X0301478Y0289863D02*
X0267022Y0289863D01*
X0267353Y0289065D02*
X0301147Y0289065D01*
X0300817Y0288266D02*
X0267683Y0288266D01*
X0267850Y0287468D02*
X0300650Y0287468D01*
X0300650Y0286669D02*
X0267850Y0286669D01*
X0267850Y0285871D02*
X0300650Y0285871D01*
X0300884Y0285072D02*
X0267616Y0285072D01*
X0267286Y0284274D02*
X0301214Y0284274D01*
X0301605Y0283475D02*
X0266895Y0283475D01*
X0266096Y0282677D02*
X0302404Y0282677D01*
X0303378Y0281878D02*
X0265122Y0281878D01*
X0259378Y0281878D02*
X0258750Y0281878D01*
X0258750Y0281080D02*
X0309750Y0281080D01*
X0309750Y0281878D02*
X0309122Y0281878D01*
X0309750Y0280281D02*
X0258750Y0280281D01*
X0258750Y0279483D02*
X0309750Y0279483D01*
X0315750Y0279483D02*
X0366750Y0279483D01*
X0366750Y0278750D02*
X0366750Y0282330D01*
X0366422Y0282003D01*
X0364364Y0281150D01*
X0362136Y0281150D01*
X0360078Y0282003D01*
X0358503Y0283578D01*
X0357650Y0285636D01*
X0357650Y0287864D01*
X0358503Y0289922D01*
X0360078Y0291497D01*
X0362136Y0292350D01*
X0364364Y0292350D01*
X0366422Y0291497D01*
X0366750Y0291170D01*
X0366750Y0315943D01*
X0366735Y0315959D01*
X0366750Y0316769D01*
X0366750Y0316796D01*
X0366672Y0318811D01*
X0365825Y0322764D01*
X0364100Y0326420D01*
X0361588Y0329588D01*
X0358420Y0332100D01*
X0354764Y0333825D01*
X0350811Y0334672D01*
X0348796Y0334750D01*
X0348769Y0334750D01*
X0347959Y0334735D01*
X0347943Y0334750D01*
X0334557Y0334750D01*
X0334541Y0334735D01*
X0333731Y0334750D01*
X0333704Y0334750D01*
X0331689Y0334672D01*
X0327736Y0333825D01*
X0324080Y0332100D01*
X0320912Y0329588D01*
X0318400Y0326420D01*
X0316675Y0322764D01*
X0315828Y0318811D01*
X0315750Y0316796D01*
X0315750Y0316769D01*
X0315765Y0315959D01*
X0315750Y0315943D01*
X0315750Y0291170D01*
X0316078Y0291497D01*
X0318136Y0292350D01*
X0320364Y0292350D01*
X0322422Y0291497D01*
X0323997Y0289922D01*
X0324850Y0287864D01*
X0324850Y0285636D01*
X0323997Y0283578D01*
X0322422Y0282003D01*
X0320364Y0281150D01*
X0318136Y0281150D01*
X0316078Y0282003D01*
X0315750Y0282330D01*
X0315750Y0278750D01*
X0366750Y0278750D01*
X0366750Y0280281D02*
X0315750Y0280281D01*
X0315750Y0281080D02*
X0366750Y0281080D01*
X0366750Y0281878D02*
X0366122Y0281878D01*
X0360378Y0281878D02*
X0322122Y0281878D01*
X0323096Y0282677D02*
X0359404Y0282677D01*
X0358605Y0283475D02*
X0323895Y0283475D01*
X0324286Y0284274D02*
X0358214Y0284274D01*
X0357884Y0285072D02*
X0324616Y0285072D01*
X0324850Y0285871D02*
X0357650Y0285871D01*
X0357650Y0286669D02*
X0324850Y0286669D01*
X0324850Y0287468D02*
X0357650Y0287468D01*
X0357817Y0288266D02*
X0324683Y0288266D01*
X0324353Y0289065D02*
X0358147Y0289065D01*
X0358478Y0289863D02*
X0324022Y0289863D01*
X0323258Y0290662D02*
X0359242Y0290662D01*
X0360041Y0291460D02*
X0322459Y0291460D01*
X0320584Y0292259D02*
X0361916Y0292259D01*
X0364584Y0292259D02*
X0366750Y0292259D01*
X0366750Y0293057D02*
X0315750Y0293057D01*
X0315750Y0292259D02*
X0317916Y0292259D01*
X0316041Y0291460D02*
X0315750Y0291460D01*
X0315750Y0293856D02*
X0366750Y0293856D01*
X0366750Y0294654D02*
X0315750Y0294654D01*
X0315750Y0295453D02*
X0366750Y0295453D01*
X0366750Y0296251D02*
X0315750Y0296251D01*
X0315750Y0297050D02*
X0366750Y0297050D01*
X0366750Y0297848D02*
X0315750Y0297848D01*
X0315750Y0298647D02*
X0366750Y0298647D01*
X0366750Y0299445D02*
X0315750Y0299445D01*
X0315750Y0300244D02*
X0366750Y0300244D01*
X0366750Y0301042D02*
X0315750Y0301042D01*
X0315750Y0301841D02*
X0366750Y0301841D01*
X0366750Y0302639D02*
X0315750Y0302639D01*
X0315750Y0303438D02*
X0366750Y0303438D01*
X0366750Y0304236D02*
X0315750Y0304236D01*
X0315750Y0305035D02*
X0366750Y0305035D01*
X0366750Y0305833D02*
X0315750Y0305833D01*
X0315750Y0306632D02*
X0366750Y0306632D01*
X0366750Y0307430D02*
X0315750Y0307430D01*
X0315750Y0308229D02*
X0366750Y0308229D01*
X0366750Y0309027D02*
X0315750Y0309027D01*
X0315750Y0309826D02*
X0366750Y0309826D01*
X0366750Y0310624D02*
X0315750Y0310624D01*
X0315750Y0311423D02*
X0366750Y0311423D01*
X0366750Y0312222D02*
X0315750Y0312222D01*
X0315750Y0313020D02*
X0366750Y0313020D01*
X0366750Y0313819D02*
X0315750Y0313819D01*
X0315750Y0314617D02*
X0366750Y0314617D01*
X0366750Y0315416D02*
X0315750Y0315416D01*
X0315760Y0316214D02*
X0366740Y0316214D01*
X0366742Y0317013D02*
X0315758Y0317013D01*
X0315789Y0317811D02*
X0366711Y0317811D01*
X0366680Y0318610D02*
X0315820Y0318610D01*
X0315956Y0319408D02*
X0366544Y0319408D01*
X0366373Y0320207D02*
X0316127Y0320207D01*
X0316298Y0321005D02*
X0366202Y0321005D01*
X0366031Y0321804D02*
X0316469Y0321804D01*
X0316640Y0322602D02*
X0365860Y0322602D01*
X0365525Y0323401D02*
X0316975Y0323401D01*
X0317352Y0324199D02*
X0365148Y0324199D01*
X0364771Y0324998D02*
X0317729Y0324998D01*
X0318105Y0325796D02*
X0364395Y0325796D01*
X0363962Y0326595D02*
X0318538Y0326595D01*
X0319171Y0327393D02*
X0363329Y0327393D01*
X0362695Y0328192D02*
X0319805Y0328192D01*
X0320438Y0328990D02*
X0362062Y0328990D01*
X0361335Y0329789D02*
X0321165Y0329789D01*
X0322172Y0330587D02*
X0360328Y0330587D01*
X0359321Y0331386D02*
X0323179Y0331386D01*
X0324258Y0332184D02*
X0358242Y0332184D01*
X0356550Y0332983D02*
X0325950Y0332983D01*
X0327643Y0333781D02*
X0354857Y0333781D01*
X0351241Y0334580D02*
X0331259Y0334580D01*
X0308525Y0323401D02*
X0259975Y0323401D01*
X0260352Y0324199D02*
X0308148Y0324199D01*
X0307771Y0324998D02*
X0260729Y0324998D01*
X0261105Y0325796D02*
X0307395Y0325796D01*
X0306962Y0326595D02*
X0261538Y0326595D01*
X0262171Y0327393D02*
X0306329Y0327393D01*
X0305695Y0328192D02*
X0262805Y0328192D01*
X0263438Y0328990D02*
X0305062Y0328990D01*
X0304335Y0329789D02*
X0264165Y0329789D01*
X0265172Y0330587D02*
X0303328Y0330587D01*
X0302321Y0331386D02*
X0266179Y0331386D01*
X0267258Y0332184D02*
X0301242Y0332184D01*
X0299550Y0332983D02*
X0268950Y0332983D01*
X0270643Y0333781D02*
X0297857Y0333781D01*
X0294241Y0334580D02*
X0274259Y0334580D01*
X0252750Y0291460D02*
X0252459Y0291460D01*
X0241459Y0271497D02*
X0213041Y0271497D01*
X0213736Y0271825D02*
X0217689Y0272672D01*
X0219704Y0272750D01*
X0219731Y0272750D01*
X0220541Y0272735D01*
X0220557Y0272750D01*
X0233943Y0272750D01*
X0233959Y0272735D01*
X0234769Y0272750D01*
X0234796Y0272750D01*
X0236811Y0272672D01*
X0240764Y0271825D01*
X0244420Y0270100D01*
X0247588Y0267588D01*
X0250100Y0264420D01*
X0251825Y0260764D01*
X0252672Y0256811D01*
X0252750Y0254796D01*
X0252750Y0254769D01*
X0252735Y0253959D01*
X0252750Y0253943D01*
X0252750Y0229170D01*
X0252422Y0229497D01*
X0250364Y0230350D01*
X0248136Y0230350D01*
X0246078Y0229497D01*
X0244503Y0227922D01*
X0243650Y0225864D01*
X0243650Y0223636D01*
X0244503Y0221578D01*
X0246078Y0220003D01*
X0248136Y0219150D01*
X0250364Y0219150D01*
X0252422Y0220003D01*
X0252750Y0220330D01*
X0252750Y0216750D01*
X0201750Y0216750D01*
X0201750Y0220330D01*
X0202078Y0220003D01*
X0204136Y0219150D01*
X0206364Y0219150D01*
X0208422Y0220003D01*
X0209997Y0221578D01*
X0210850Y0223636D01*
X0210850Y0225864D01*
X0209997Y0227922D01*
X0208422Y0229497D01*
X0206364Y0230350D01*
X0204136Y0230350D01*
X0202078Y0229497D01*
X0201750Y0229170D01*
X0201750Y0253943D01*
X0201765Y0253959D01*
X0201750Y0254769D01*
X0201750Y0254796D01*
X0201828Y0256811D01*
X0202675Y0260764D01*
X0204400Y0264420D01*
X0206912Y0267588D01*
X0210080Y0270100D01*
X0213736Y0271825D01*
X0215934Y0272296D02*
X0238566Y0272296D01*
X0243151Y0270699D02*
X0211349Y0270699D01*
X0209828Y0269900D02*
X0244672Y0269900D01*
X0245679Y0269102D02*
X0208821Y0269102D01*
X0207814Y0268303D02*
X0246686Y0268303D01*
X0247654Y0267505D02*
X0206846Y0267505D01*
X0206213Y0266706D02*
X0248287Y0266706D01*
X0248921Y0265908D02*
X0205579Y0265908D01*
X0204946Y0265109D02*
X0249554Y0265109D01*
X0250152Y0264311D02*
X0204348Y0264311D01*
X0203971Y0263512D02*
X0250529Y0263512D01*
X0250905Y0262714D02*
X0203595Y0262714D01*
X0203218Y0261915D02*
X0251282Y0261915D01*
X0251659Y0261117D02*
X0202841Y0261117D01*
X0202579Y0260318D02*
X0251921Y0260318D01*
X0252092Y0259520D02*
X0202408Y0259520D01*
X0202237Y0258721D02*
X0252263Y0258721D01*
X0252434Y0257923D02*
X0202066Y0257923D01*
X0201895Y0257124D02*
X0252605Y0257124D01*
X0252691Y0256326D02*
X0201809Y0256326D01*
X0201778Y0255527D02*
X0252722Y0255527D01*
X0252749Y0254729D02*
X0201751Y0254729D01*
X0201750Y0253930D02*
X0252750Y0253930D01*
X0252750Y0253132D02*
X0201750Y0253132D01*
X0201750Y0252333D02*
X0252750Y0252333D01*
X0252750Y0251535D02*
X0201750Y0251535D01*
X0201750Y0250736D02*
X0252750Y0250736D01*
X0252750Y0249938D02*
X0201750Y0249938D01*
X0201750Y0249139D02*
X0252750Y0249139D01*
X0252750Y0248341D02*
X0201750Y0248341D01*
X0201750Y0247542D02*
X0252750Y0247542D01*
X0252750Y0246744D02*
X0201750Y0246744D01*
X0201750Y0245945D02*
X0252750Y0245945D01*
X0252750Y0245147D02*
X0201750Y0245147D01*
X0201750Y0244348D02*
X0252750Y0244348D01*
X0252750Y0243550D02*
X0201750Y0243550D01*
X0201750Y0242751D02*
X0252750Y0242751D01*
X0252750Y0241953D02*
X0201750Y0241953D01*
X0201750Y0241154D02*
X0252750Y0241154D01*
X0252750Y0240355D02*
X0201750Y0240355D01*
X0201750Y0239557D02*
X0252750Y0239557D01*
X0252750Y0238758D02*
X0201750Y0238758D01*
X0201750Y0237960D02*
X0252750Y0237960D01*
X0252750Y0237161D02*
X0201750Y0237161D01*
X0201750Y0236363D02*
X0252750Y0236363D01*
X0252750Y0235564D02*
X0201750Y0235564D01*
X0201750Y0234766D02*
X0252750Y0234766D01*
X0252750Y0233967D02*
X0201750Y0233967D01*
X0201750Y0233169D02*
X0252750Y0233169D01*
X0252750Y0232370D02*
X0201750Y0232370D01*
X0201750Y0231572D02*
X0252750Y0231572D01*
X0252750Y0230773D02*
X0201750Y0230773D01*
X0201750Y0229975D02*
X0203230Y0229975D01*
X0201757Y0229176D02*
X0201750Y0229176D01*
X0207270Y0229975D02*
X0247230Y0229975D01*
X0245757Y0229176D02*
X0208743Y0229176D01*
X0209542Y0228378D02*
X0244958Y0228378D01*
X0244361Y0227579D02*
X0210139Y0227579D01*
X0210470Y0226781D02*
X0244030Y0226781D01*
X0243699Y0225982D02*
X0210801Y0225982D01*
X0210850Y0225184D02*
X0243650Y0225184D01*
X0243650Y0224385D02*
X0210850Y0224385D01*
X0210830Y0223587D02*
X0243670Y0223587D01*
X0244001Y0222788D02*
X0210499Y0222788D01*
X0210168Y0221990D02*
X0244332Y0221990D01*
X0244889Y0221191D02*
X0209611Y0221191D01*
X0208812Y0220393D02*
X0245688Y0220393D01*
X0247064Y0219594D02*
X0207436Y0219594D01*
X0203064Y0219594D02*
X0201750Y0219594D01*
X0201750Y0218796D02*
X0252750Y0218796D01*
X0252750Y0219594D02*
X0251436Y0219594D01*
X0252750Y0217997D02*
X0201750Y0217997D01*
X0201750Y0217199D02*
X0252750Y0217199D01*
X0258750Y0217199D02*
X0309750Y0217199D01*
X0309750Y0216750D02*
X0258750Y0216750D01*
X0258750Y0220330D01*
X0259078Y0220003D01*
X0261136Y0219150D01*
X0263364Y0219150D01*
X0265422Y0220003D01*
X0266997Y0221578D01*
X0267850Y0223636D01*
X0267850Y0225864D01*
X0266997Y0227922D01*
X0265422Y0229497D01*
X0263364Y0230350D01*
X0261136Y0230350D01*
X0259078Y0229497D01*
X0258750Y0229170D01*
X0258750Y0253943D01*
X0258765Y0253959D01*
X0258750Y0254769D01*
X0258750Y0254796D01*
X0258828Y0256811D01*
X0259675Y0260764D01*
X0261400Y0264420D01*
X0263912Y0267588D01*
X0267080Y0270100D01*
X0270736Y0271825D01*
X0274689Y0272672D01*
X0276704Y0272750D01*
X0276731Y0272750D01*
X0277541Y0272735D01*
X0277557Y0272750D01*
X0290943Y0272750D01*
X0290959Y0272735D01*
X0291769Y0272750D01*
X0291796Y0272750D01*
X0293811Y0272672D01*
X0297764Y0271825D01*
X0301420Y0270100D01*
X0304588Y0267588D01*
X0307100Y0264420D01*
X0308825Y0260764D01*
X0309672Y0256811D01*
X0309750Y0254796D01*
X0309750Y0254769D01*
X0309735Y0253959D01*
X0309750Y0253943D01*
X0309750Y0229170D01*
X0309422Y0229497D01*
X0307364Y0230350D01*
X0305136Y0230350D01*
X0303078Y0229497D01*
X0301503Y0227922D01*
X0300650Y0225864D01*
X0300650Y0223636D01*
X0301503Y0221578D01*
X0303078Y0220003D01*
X0305136Y0219150D01*
X0307364Y0219150D01*
X0309422Y0220003D01*
X0309750Y0220330D01*
X0309750Y0216750D01*
X0309750Y0217997D02*
X0258750Y0217997D01*
X0258750Y0218796D02*
X0309750Y0218796D01*
X0309750Y0219594D02*
X0308436Y0219594D01*
X0304064Y0219594D02*
X0264436Y0219594D01*
X0265812Y0220393D02*
X0302688Y0220393D01*
X0301889Y0221191D02*
X0266611Y0221191D01*
X0267168Y0221990D02*
X0301332Y0221990D01*
X0301001Y0222788D02*
X0267499Y0222788D01*
X0267830Y0223587D02*
X0300670Y0223587D01*
X0300650Y0224385D02*
X0267850Y0224385D01*
X0267850Y0225184D02*
X0300650Y0225184D01*
X0300699Y0225982D02*
X0267801Y0225982D01*
X0267470Y0226781D02*
X0301030Y0226781D01*
X0301361Y0227579D02*
X0267139Y0227579D01*
X0266542Y0228378D02*
X0301958Y0228378D01*
X0302757Y0229176D02*
X0265743Y0229176D01*
X0264270Y0229975D02*
X0304230Y0229975D01*
X0308270Y0229975D02*
X0309750Y0229975D01*
X0309750Y0230773D02*
X0258750Y0230773D01*
X0258750Y0229975D02*
X0260230Y0229975D01*
X0258757Y0229176D02*
X0258750Y0229176D01*
X0258750Y0231572D02*
X0309750Y0231572D01*
X0309750Y0232370D02*
X0258750Y0232370D01*
X0258750Y0233169D02*
X0309750Y0233169D01*
X0309750Y0233967D02*
X0258750Y0233967D01*
X0258750Y0234766D02*
X0309750Y0234766D01*
X0309750Y0235564D02*
X0258750Y0235564D01*
X0258750Y0236363D02*
X0309750Y0236363D01*
X0309750Y0237161D02*
X0258750Y0237161D01*
X0258750Y0237960D02*
X0309750Y0237960D01*
X0309750Y0238758D02*
X0258750Y0238758D01*
X0258750Y0239557D02*
X0309750Y0239557D01*
X0309750Y0240355D02*
X0258750Y0240355D01*
X0258750Y0241154D02*
X0309750Y0241154D01*
X0309750Y0241953D02*
X0258750Y0241953D01*
X0258750Y0242751D02*
X0309750Y0242751D01*
X0309750Y0243550D02*
X0258750Y0243550D01*
X0258750Y0244348D02*
X0309750Y0244348D01*
X0309750Y0245147D02*
X0258750Y0245147D01*
X0258750Y0245945D02*
X0309750Y0245945D01*
X0309750Y0246744D02*
X0258750Y0246744D01*
X0258750Y0247542D02*
X0309750Y0247542D01*
X0309750Y0248341D02*
X0258750Y0248341D01*
X0258750Y0249139D02*
X0309750Y0249139D01*
X0309750Y0249938D02*
X0258750Y0249938D01*
X0258750Y0250736D02*
X0309750Y0250736D01*
X0309750Y0251535D02*
X0258750Y0251535D01*
X0258750Y0252333D02*
X0309750Y0252333D01*
X0309750Y0253132D02*
X0258750Y0253132D01*
X0258750Y0253930D02*
X0309750Y0253930D01*
X0309749Y0254729D02*
X0258751Y0254729D01*
X0258778Y0255527D02*
X0309722Y0255527D01*
X0309691Y0256326D02*
X0258809Y0256326D01*
X0258895Y0257124D02*
X0309605Y0257124D01*
X0309434Y0257923D02*
X0259066Y0257923D01*
X0259237Y0258721D02*
X0309263Y0258721D01*
X0309092Y0259520D02*
X0259408Y0259520D01*
X0259579Y0260318D02*
X0308921Y0260318D01*
X0308659Y0261117D02*
X0259841Y0261117D01*
X0260218Y0261915D02*
X0308282Y0261915D01*
X0307905Y0262714D02*
X0260595Y0262714D01*
X0260971Y0263512D02*
X0307529Y0263512D01*
X0307152Y0264311D02*
X0261348Y0264311D01*
X0261946Y0265109D02*
X0306554Y0265109D01*
X0305921Y0265908D02*
X0262579Y0265908D01*
X0263213Y0266706D02*
X0305287Y0266706D01*
X0304654Y0267505D02*
X0263846Y0267505D01*
X0264814Y0268303D02*
X0303686Y0268303D01*
X0302679Y0269102D02*
X0265821Y0269102D01*
X0266828Y0269900D02*
X0301672Y0269900D01*
X0300151Y0270699D02*
X0268349Y0270699D01*
X0270041Y0271497D02*
X0298459Y0271497D01*
X0295566Y0272296D02*
X0272934Y0272296D01*
X0307584Y0292259D02*
X0309750Y0292259D01*
X0309750Y0291460D02*
X0309459Y0291460D01*
X0315750Y0281878D02*
X0316378Y0281878D01*
X0324080Y0270100D02*
X0327736Y0271825D01*
X0331689Y0272672D01*
X0333704Y0272750D01*
X0333731Y0272750D01*
X0334541Y0272735D01*
X0334557Y0272750D01*
X0347943Y0272750D01*
X0347959Y0272735D01*
X0348769Y0272750D01*
X0348796Y0272750D01*
X0350811Y0272672D01*
X0354764Y0271825D01*
X0358420Y0270100D01*
X0361588Y0267588D01*
X0364100Y0264420D01*
X0365825Y0260764D01*
X0366672Y0256811D01*
X0366750Y0254796D01*
X0366750Y0254769D01*
X0366735Y0253959D01*
X0366750Y0253943D01*
X0366750Y0229170D01*
X0366422Y0229497D01*
X0364364Y0230350D01*
X0362136Y0230350D01*
X0360078Y0229497D01*
X0358503Y0227922D01*
X0357650Y0225864D01*
X0357650Y0223636D01*
X0358503Y0221578D01*
X0360078Y0220003D01*
X0362136Y0219150D01*
X0364364Y0219150D01*
X0366422Y0220003D01*
X0366750Y0220330D01*
X0366750Y0216750D01*
X0315750Y0216750D01*
X0315750Y0220330D01*
X0316078Y0220003D01*
X0318136Y0219150D01*
X0320364Y0219150D01*
X0322422Y0220003D01*
X0323997Y0221578D01*
X0324850Y0223636D01*
X0324850Y0225864D01*
X0323997Y0227922D01*
X0322422Y0229497D01*
X0320364Y0230350D01*
X0318136Y0230350D01*
X0316078Y0229497D01*
X0315750Y0229170D01*
X0315750Y0253943D01*
X0315765Y0253959D01*
X0315750Y0254769D01*
X0315750Y0254796D01*
X0315828Y0256811D01*
X0316675Y0260764D01*
X0318400Y0264420D01*
X0320912Y0267588D01*
X0324080Y0270100D01*
X0323828Y0269900D02*
X0358672Y0269900D01*
X0359679Y0269102D02*
X0322821Y0269102D01*
X0321814Y0268303D02*
X0360686Y0268303D01*
X0361654Y0267505D02*
X0320846Y0267505D01*
X0320213Y0266706D02*
X0362287Y0266706D01*
X0362921Y0265908D02*
X0319579Y0265908D01*
X0318946Y0265109D02*
X0363554Y0265109D01*
X0364152Y0264311D02*
X0318348Y0264311D01*
X0317971Y0263512D02*
X0364529Y0263512D01*
X0364905Y0262714D02*
X0317595Y0262714D01*
X0317218Y0261915D02*
X0365282Y0261915D01*
X0365659Y0261117D02*
X0316841Y0261117D01*
X0316579Y0260318D02*
X0365921Y0260318D01*
X0366092Y0259520D02*
X0316408Y0259520D01*
X0316237Y0258721D02*
X0366263Y0258721D01*
X0366434Y0257923D02*
X0316066Y0257923D01*
X0315895Y0257124D02*
X0366605Y0257124D01*
X0366691Y0256326D02*
X0315809Y0256326D01*
X0315778Y0255527D02*
X0366722Y0255527D01*
X0366749Y0254729D02*
X0315751Y0254729D01*
X0315750Y0253930D02*
X0366750Y0253930D01*
X0366750Y0253132D02*
X0315750Y0253132D01*
X0315750Y0252333D02*
X0366750Y0252333D01*
X0366750Y0251535D02*
X0315750Y0251535D01*
X0315750Y0250736D02*
X0366750Y0250736D01*
X0366750Y0249938D02*
X0315750Y0249938D01*
X0315750Y0249139D02*
X0366750Y0249139D01*
X0366750Y0248341D02*
X0315750Y0248341D01*
X0315750Y0247542D02*
X0366750Y0247542D01*
X0366750Y0246744D02*
X0315750Y0246744D01*
X0315750Y0245945D02*
X0366750Y0245945D01*
X0366750Y0245147D02*
X0315750Y0245147D01*
X0315750Y0244348D02*
X0366750Y0244348D01*
X0366750Y0243550D02*
X0315750Y0243550D01*
X0315750Y0242751D02*
X0366750Y0242751D01*
X0366750Y0241953D02*
X0315750Y0241953D01*
X0315750Y0241154D02*
X0366750Y0241154D01*
X0366750Y0240355D02*
X0315750Y0240355D01*
X0315750Y0239557D02*
X0366750Y0239557D01*
X0366750Y0238758D02*
X0315750Y0238758D01*
X0315750Y0237960D02*
X0366750Y0237960D01*
X0366750Y0237161D02*
X0315750Y0237161D01*
X0315750Y0236363D02*
X0366750Y0236363D01*
X0366750Y0235564D02*
X0315750Y0235564D01*
X0315750Y0234766D02*
X0366750Y0234766D01*
X0366750Y0233967D02*
X0315750Y0233967D01*
X0315750Y0233169D02*
X0366750Y0233169D01*
X0366750Y0232370D02*
X0315750Y0232370D01*
X0315750Y0231572D02*
X0366750Y0231572D01*
X0366750Y0230773D02*
X0315750Y0230773D01*
X0315750Y0229975D02*
X0317230Y0229975D01*
X0315757Y0229176D02*
X0315750Y0229176D01*
X0321270Y0229975D02*
X0361230Y0229975D01*
X0359757Y0229176D02*
X0322743Y0229176D01*
X0323542Y0228378D02*
X0358958Y0228378D01*
X0358361Y0227579D02*
X0324139Y0227579D01*
X0324470Y0226781D02*
X0358030Y0226781D01*
X0357699Y0225982D02*
X0324801Y0225982D01*
X0324850Y0225184D02*
X0357650Y0225184D01*
X0357650Y0224385D02*
X0324850Y0224385D01*
X0324830Y0223587D02*
X0357670Y0223587D01*
X0358001Y0222788D02*
X0324499Y0222788D01*
X0324168Y0221990D02*
X0358332Y0221990D01*
X0358889Y0221191D02*
X0323611Y0221191D01*
X0322812Y0220393D02*
X0359688Y0220393D01*
X0361064Y0219594D02*
X0321436Y0219594D01*
X0317064Y0219594D02*
X0315750Y0219594D01*
X0315750Y0218796D02*
X0366750Y0218796D01*
X0366750Y0219594D02*
X0365436Y0219594D01*
X0366750Y0217997D02*
X0315750Y0217997D01*
X0315750Y0217199D02*
X0366750Y0217199D01*
X0359030Y0207617D02*
X0323470Y0207617D01*
X0324080Y0208100D02*
X0320912Y0205588D01*
X0318400Y0202420D01*
X0316675Y0198764D01*
X0315828Y0194811D01*
X0315750Y0192796D01*
X0315750Y0192769D01*
X0315765Y0191959D01*
X0315750Y0191943D01*
X0315750Y0167170D01*
X0316078Y0167497D01*
X0318136Y0168350D01*
X0320364Y0168350D01*
X0322422Y0167497D01*
X0323997Y0165922D01*
X0324850Y0163864D01*
X0324850Y0161636D01*
X0323997Y0159578D01*
X0322422Y0158003D01*
X0320364Y0157150D01*
X0318136Y0157150D01*
X0316078Y0158003D01*
X0315750Y0158330D01*
X0315750Y0154750D01*
X0366750Y0154750D01*
X0366750Y0158330D01*
X0366422Y0158003D01*
X0364364Y0157150D01*
X0362136Y0157150D01*
X0360078Y0158003D01*
X0358503Y0159578D01*
X0357650Y0161636D01*
X0357650Y0163864D01*
X0358503Y0165922D01*
X0360078Y0167497D01*
X0362136Y0168350D01*
X0364364Y0168350D01*
X0366422Y0167497D01*
X0366750Y0167170D01*
X0366750Y0191943D01*
X0366735Y0191959D01*
X0366750Y0192769D01*
X0366750Y0192796D01*
X0366672Y0194811D01*
X0365825Y0198764D01*
X0364100Y0202420D01*
X0361588Y0205588D01*
X0358420Y0208100D01*
X0354764Y0209825D01*
X0350811Y0210672D01*
X0348796Y0210750D01*
X0348769Y0210750D01*
X0347959Y0210735D01*
X0347943Y0210750D01*
X0334557Y0210750D01*
X0334541Y0210735D01*
X0333731Y0210750D01*
X0333704Y0210750D01*
X0331689Y0210672D01*
X0327736Y0209825D01*
X0324080Y0208100D01*
X0324747Y0208415D02*
X0357753Y0208415D01*
X0356060Y0209214D02*
X0326440Y0209214D01*
X0328609Y0210012D02*
X0353891Y0210012D01*
X0360037Y0206818D02*
X0322463Y0206818D01*
X0321456Y0206020D02*
X0361044Y0206020D01*
X0361879Y0205221D02*
X0320621Y0205221D01*
X0319988Y0204422D02*
X0362512Y0204422D01*
X0363146Y0203624D02*
X0319354Y0203624D01*
X0318721Y0202825D02*
X0363779Y0202825D01*
X0364286Y0202027D02*
X0318214Y0202027D01*
X0317837Y0201228D02*
X0364663Y0201228D01*
X0365039Y0200430D02*
X0317461Y0200430D01*
X0317084Y0199631D02*
X0365416Y0199631D01*
X0365793Y0198833D02*
X0316707Y0198833D01*
X0316519Y0198034D02*
X0365981Y0198034D01*
X0366152Y0197236D02*
X0316348Y0197236D01*
X0316176Y0196437D02*
X0366324Y0196437D01*
X0366495Y0195639D02*
X0316005Y0195639D01*
X0315834Y0194840D02*
X0366666Y0194840D01*
X0366702Y0194042D02*
X0315798Y0194042D01*
X0315767Y0193243D02*
X0366733Y0193243D01*
X0366744Y0192445D02*
X0315756Y0192445D01*
X0315750Y0191646D02*
X0366750Y0191646D01*
X0366750Y0190848D02*
X0315750Y0190848D01*
X0315750Y0190049D02*
X0366750Y0190049D01*
X0366750Y0189251D02*
X0315750Y0189251D01*
X0315750Y0188452D02*
X0366750Y0188452D01*
X0366750Y0187654D02*
X0315750Y0187654D01*
X0315750Y0186855D02*
X0366750Y0186855D01*
X0366750Y0186057D02*
X0315750Y0186057D01*
X0315750Y0185258D02*
X0366750Y0185258D01*
X0366750Y0184460D02*
X0315750Y0184460D01*
X0315750Y0183661D02*
X0366750Y0183661D01*
X0366750Y0182863D02*
X0315750Y0182863D01*
X0315750Y0182064D02*
X0366750Y0182064D01*
X0366750Y0181266D02*
X0315750Y0181266D01*
X0315750Y0180467D02*
X0366750Y0180467D01*
X0366750Y0179669D02*
X0315750Y0179669D01*
X0315750Y0178870D02*
X0366750Y0178870D01*
X0366750Y0178072D02*
X0315750Y0178072D01*
X0315750Y0177273D02*
X0366750Y0177273D01*
X0366750Y0176475D02*
X0315750Y0176475D01*
X0315750Y0175676D02*
X0366750Y0175676D01*
X0366750Y0174878D02*
X0315750Y0174878D01*
X0315750Y0174079D02*
X0366750Y0174079D01*
X0366750Y0173281D02*
X0315750Y0173281D01*
X0315750Y0172482D02*
X0366750Y0172482D01*
X0366750Y0171684D02*
X0315750Y0171684D01*
X0315750Y0170885D02*
X0366750Y0170885D01*
X0366750Y0170087D02*
X0315750Y0170087D01*
X0315750Y0169288D02*
X0366750Y0169288D01*
X0366750Y0168489D02*
X0315750Y0168489D01*
X0315750Y0167691D02*
X0316545Y0167691D01*
X0321955Y0167691D02*
X0360545Y0167691D01*
X0359473Y0166892D02*
X0323027Y0166892D01*
X0323826Y0166094D02*
X0358674Y0166094D01*
X0358243Y0165295D02*
X0324257Y0165295D01*
X0324588Y0164497D02*
X0357912Y0164497D01*
X0357650Y0163698D02*
X0324850Y0163698D01*
X0324850Y0162900D02*
X0357650Y0162900D01*
X0357650Y0162101D02*
X0324850Y0162101D01*
X0324712Y0161303D02*
X0357788Y0161303D01*
X0358119Y0160504D02*
X0324381Y0160504D01*
X0324050Y0159706D02*
X0358450Y0159706D01*
X0359173Y0158907D02*
X0323327Y0158907D01*
X0322528Y0158109D02*
X0359972Y0158109D01*
X0361749Y0157310D02*
X0320751Y0157310D01*
X0317749Y0157310D02*
X0315750Y0157310D01*
X0315750Y0156512D02*
X0366750Y0156512D01*
X0366750Y0157310D02*
X0364751Y0157310D01*
X0366528Y0158109D02*
X0366750Y0158109D01*
X0366750Y0155713D02*
X0315750Y0155713D01*
X0315750Y0154915D02*
X0366750Y0154915D01*
X0358420Y0146100D02*
X0361588Y0143588D01*
X0364100Y0140420D01*
X0365825Y0136764D01*
X0366672Y0132811D01*
X0366750Y0130796D01*
X0366750Y0130769D01*
X0366735Y0129959D01*
X0366750Y0129943D01*
X0366750Y0105170D01*
X0366422Y0105497D01*
X0364364Y0106350D01*
X0362136Y0106350D01*
X0360078Y0105497D01*
X0358503Y0103922D01*
X0357650Y0101864D01*
X0357650Y0099636D01*
X0358503Y0097578D01*
X0360078Y0096003D01*
X0362136Y0095150D01*
X0364364Y0095150D01*
X0366422Y0096003D01*
X0366750Y0096330D01*
X0366750Y0092750D01*
X0315750Y0092750D01*
X0315750Y0096330D01*
X0316078Y0096003D01*
X0318136Y0095150D01*
X0320364Y0095150D01*
X0322422Y0096003D01*
X0323997Y0097578D01*
X0324850Y0099636D01*
X0324850Y0101864D01*
X0323997Y0103922D01*
X0322422Y0105497D01*
X0320364Y0106350D01*
X0318136Y0106350D01*
X0316078Y0105497D01*
X0315750Y0105170D01*
X0315750Y0129943D01*
X0315765Y0129959D01*
X0315750Y0130769D01*
X0315750Y0130796D01*
X0315828Y0132811D01*
X0316675Y0136764D01*
X0318400Y0140420D01*
X0320912Y0143588D01*
X0324080Y0146100D01*
X0327736Y0147825D01*
X0331689Y0148672D01*
X0333704Y0148750D01*
X0333731Y0148750D01*
X0334541Y0148735D01*
X0334557Y0148750D01*
X0347943Y0148750D01*
X0347959Y0148735D01*
X0348769Y0148750D01*
X0348796Y0148750D01*
X0350811Y0148672D01*
X0354764Y0147825D01*
X0358420Y0146100D01*
X0358355Y0146131D02*
X0324145Y0146131D01*
X0323112Y0145333D02*
X0359388Y0145333D01*
X0360395Y0144534D02*
X0322105Y0144534D01*
X0321098Y0143736D02*
X0361402Y0143736D01*
X0362104Y0142937D02*
X0320396Y0142937D01*
X0319762Y0142139D02*
X0362738Y0142139D01*
X0363371Y0141340D02*
X0319129Y0141340D01*
X0318496Y0140542D02*
X0364004Y0140542D01*
X0364420Y0139743D02*
X0318080Y0139743D01*
X0317703Y0138945D02*
X0364796Y0138945D01*
X0365173Y0138146D02*
X0317327Y0138146D01*
X0316950Y0137348D02*
X0365550Y0137348D01*
X0365871Y0136549D02*
X0316629Y0136549D01*
X0316458Y0135751D02*
X0366042Y0135751D01*
X0366213Y0134952D02*
X0316287Y0134952D01*
X0316116Y0134153D02*
X0366384Y0134153D01*
X0366555Y0133355D02*
X0315945Y0133355D01*
X0315818Y0132556D02*
X0366682Y0132556D01*
X0366713Y0131758D02*
X0315787Y0131758D01*
X0315756Y0130959D02*
X0366744Y0130959D01*
X0366739Y0130161D02*
X0315761Y0130161D01*
X0315750Y0129362D02*
X0366750Y0129362D01*
X0366750Y0128564D02*
X0315750Y0128564D01*
X0315750Y0127765D02*
X0366750Y0127765D01*
X0366750Y0126967D02*
X0315750Y0126967D01*
X0315750Y0126168D02*
X0366750Y0126168D01*
X0366750Y0125370D02*
X0315750Y0125370D01*
X0315750Y0124571D02*
X0366750Y0124571D01*
X0366750Y0123773D02*
X0315750Y0123773D01*
X0315750Y0122974D02*
X0366750Y0122974D01*
X0366750Y0122176D02*
X0315750Y0122176D01*
X0315750Y0121377D02*
X0366750Y0121377D01*
X0366750Y0120579D02*
X0315750Y0120579D01*
X0315750Y0119780D02*
X0366750Y0119780D01*
X0366750Y0118982D02*
X0315750Y0118982D01*
X0315750Y0118183D02*
X0366750Y0118183D01*
X0366750Y0117385D02*
X0315750Y0117385D01*
X0315750Y0116586D02*
X0366750Y0116586D01*
X0366750Y0115788D02*
X0315750Y0115788D01*
X0315750Y0114989D02*
X0366750Y0114989D01*
X0366750Y0114191D02*
X0315750Y0114191D01*
X0315750Y0113392D02*
X0366750Y0113392D01*
X0366750Y0112594D02*
X0315750Y0112594D01*
X0315750Y0111795D02*
X0366750Y0111795D01*
X0366750Y0110997D02*
X0315750Y0110997D01*
X0315750Y0110198D02*
X0366750Y0110198D01*
X0366750Y0109400D02*
X0315750Y0109400D01*
X0315750Y0108601D02*
X0366750Y0108601D01*
X0366750Y0107803D02*
X0315750Y0107803D01*
X0315750Y0107004D02*
X0366750Y0107004D01*
X0366750Y0106206D02*
X0364712Y0106206D01*
X0366512Y0105407D02*
X0366750Y0105407D01*
X0361787Y0106206D02*
X0320713Y0106206D01*
X0322512Y0105407D02*
X0359987Y0105407D01*
X0359189Y0104609D02*
X0323311Y0104609D01*
X0324044Y0103810D02*
X0358456Y0103810D01*
X0358125Y0103012D02*
X0324375Y0103012D01*
X0324705Y0102213D02*
X0357795Y0102213D01*
X0357650Y0101415D02*
X0324850Y0101415D01*
X0324850Y0100616D02*
X0357650Y0100616D01*
X0357650Y0099818D02*
X0324850Y0099818D01*
X0324594Y0099019D02*
X0357906Y0099019D01*
X0358236Y0098220D02*
X0324264Y0098220D01*
X0323842Y0097422D02*
X0358658Y0097422D01*
X0359457Y0096623D02*
X0323043Y0096623D01*
X0321993Y0095825D02*
X0360507Y0095825D01*
X0365993Y0095825D02*
X0366750Y0095825D01*
X0366750Y0095026D02*
X0315750Y0095026D01*
X0315750Y0094228D02*
X0366750Y0094228D01*
X0366750Y0093429D02*
X0315750Y0093429D01*
X0315750Y0095825D02*
X0316507Y0095825D01*
X0309750Y0095825D02*
X0308993Y0095825D01*
X0309422Y0096003D02*
X0309750Y0096330D01*
X0309750Y0092750D01*
X0258750Y0092750D01*
X0258750Y0096330D01*
X0259078Y0096003D01*
X0261136Y0095150D01*
X0263364Y0095150D01*
X0265422Y0096003D01*
X0266997Y0097578D01*
X0267850Y0099636D01*
X0267850Y0101864D01*
X0266997Y0103922D01*
X0265422Y0105497D01*
X0263364Y0106350D01*
X0261136Y0106350D01*
X0259078Y0105497D01*
X0258750Y0105170D01*
X0258750Y0129943D01*
X0258765Y0129959D01*
X0258750Y0130769D01*
X0258750Y0130796D01*
X0258828Y0132811D01*
X0259675Y0136764D01*
X0261400Y0140420D01*
X0263912Y0143588D01*
X0267080Y0146100D01*
X0270736Y0147825D01*
X0274689Y0148672D01*
X0276704Y0148750D01*
X0276731Y0148750D01*
X0277541Y0148735D01*
X0277557Y0148750D01*
X0290943Y0148750D01*
X0290959Y0148735D01*
X0291769Y0148750D01*
X0291796Y0148750D01*
X0293811Y0148672D01*
X0297764Y0147825D01*
X0301420Y0146100D01*
X0304588Y0143588D01*
X0307100Y0140420D01*
X0308825Y0136764D01*
X0309672Y0132811D01*
X0309750Y0130796D01*
X0309750Y0130769D01*
X0309735Y0129959D01*
X0309750Y0129943D01*
X0309750Y0105170D01*
X0309422Y0105497D01*
X0307364Y0106350D01*
X0305136Y0106350D01*
X0303078Y0105497D01*
X0301503Y0103922D01*
X0300650Y0101864D01*
X0300650Y0099636D01*
X0301503Y0097578D01*
X0303078Y0096003D01*
X0305136Y0095150D01*
X0307364Y0095150D01*
X0309422Y0096003D01*
X0309750Y0095026D02*
X0258750Y0095026D01*
X0258750Y0094228D02*
X0309750Y0094228D01*
X0309750Y0093429D02*
X0258750Y0093429D01*
X0258750Y0095825D02*
X0259507Y0095825D01*
X0264993Y0095825D02*
X0303507Y0095825D01*
X0302457Y0096623D02*
X0266043Y0096623D01*
X0266842Y0097422D02*
X0301658Y0097422D01*
X0301236Y0098220D02*
X0267264Y0098220D01*
X0267594Y0099019D02*
X0300906Y0099019D01*
X0300650Y0099818D02*
X0267850Y0099818D01*
X0267850Y0100616D02*
X0300650Y0100616D01*
X0300650Y0101415D02*
X0267850Y0101415D01*
X0267705Y0102213D02*
X0300795Y0102213D01*
X0301125Y0103012D02*
X0267375Y0103012D01*
X0267044Y0103810D02*
X0301456Y0103810D01*
X0302189Y0104609D02*
X0266311Y0104609D01*
X0265512Y0105407D02*
X0302988Y0105407D01*
X0304788Y0106206D02*
X0263713Y0106206D01*
X0260787Y0106206D02*
X0258750Y0106206D01*
X0258750Y0107004D02*
X0309750Y0107004D01*
X0309750Y0106206D02*
X0307713Y0106206D01*
X0309512Y0105407D02*
X0309750Y0105407D01*
X0309750Y0107803D02*
X0258750Y0107803D01*
X0258750Y0108601D02*
X0309750Y0108601D01*
X0309750Y0109400D02*
X0258750Y0109400D01*
X0258750Y0110198D02*
X0309750Y0110198D01*
X0309750Y0110997D02*
X0258750Y0110997D01*
X0258750Y0111795D02*
X0309750Y0111795D01*
X0309750Y0112594D02*
X0258750Y0112594D01*
X0258750Y0113392D02*
X0309750Y0113392D01*
X0309750Y0114191D02*
X0258750Y0114191D01*
X0258750Y0114989D02*
X0309750Y0114989D01*
X0309750Y0115788D02*
X0258750Y0115788D01*
X0258750Y0116586D02*
X0309750Y0116586D01*
X0309750Y0117385D02*
X0258750Y0117385D01*
X0258750Y0118183D02*
X0309750Y0118183D01*
X0309750Y0118982D02*
X0258750Y0118982D01*
X0258750Y0119780D02*
X0309750Y0119780D01*
X0309750Y0120579D02*
X0258750Y0120579D01*
X0258750Y0121377D02*
X0309750Y0121377D01*
X0309750Y0122176D02*
X0258750Y0122176D01*
X0258750Y0122974D02*
X0309750Y0122974D01*
X0309750Y0123773D02*
X0258750Y0123773D01*
X0258750Y0124571D02*
X0309750Y0124571D01*
X0309750Y0125370D02*
X0258750Y0125370D01*
X0258750Y0126168D02*
X0309750Y0126168D01*
X0309750Y0126967D02*
X0258750Y0126967D01*
X0258750Y0127765D02*
X0309750Y0127765D01*
X0309750Y0128564D02*
X0258750Y0128564D01*
X0258750Y0129362D02*
X0309750Y0129362D01*
X0309739Y0130161D02*
X0258761Y0130161D01*
X0258756Y0130959D02*
X0309744Y0130959D01*
X0309713Y0131758D02*
X0258787Y0131758D01*
X0258818Y0132556D02*
X0309682Y0132556D01*
X0309555Y0133355D02*
X0258945Y0133355D01*
X0259116Y0134153D02*
X0309384Y0134153D01*
X0309213Y0134952D02*
X0259287Y0134952D01*
X0259458Y0135751D02*
X0309042Y0135751D01*
X0308871Y0136549D02*
X0259629Y0136549D01*
X0259950Y0137348D02*
X0308550Y0137348D01*
X0308173Y0138146D02*
X0260327Y0138146D01*
X0260703Y0138945D02*
X0307796Y0138945D01*
X0307420Y0139743D02*
X0261080Y0139743D01*
X0261496Y0140542D02*
X0307004Y0140542D01*
X0306371Y0141340D02*
X0262129Y0141340D01*
X0262762Y0142139D02*
X0305738Y0142139D01*
X0305104Y0142937D02*
X0263396Y0142937D01*
X0264098Y0143736D02*
X0304402Y0143736D01*
X0303395Y0144534D02*
X0265105Y0144534D01*
X0266112Y0145333D02*
X0302388Y0145333D01*
X0301355Y0146131D02*
X0267145Y0146131D01*
X0268838Y0146930D02*
X0299662Y0146930D01*
X0297969Y0147728D02*
X0270530Y0147728D01*
X0274011Y0148527D02*
X0294489Y0148527D01*
X0303078Y0158003D02*
X0305136Y0157150D01*
X0307364Y0157150D01*
X0309422Y0158003D01*
X0309750Y0158330D01*
X0309750Y0154750D01*
X0258750Y0154750D01*
X0258750Y0158330D01*
X0259078Y0158003D01*
X0261136Y0157150D01*
X0263364Y0157150D01*
X0265422Y0158003D01*
X0266997Y0159578D01*
X0267850Y0161636D01*
X0267850Y0163864D01*
X0266997Y0165922D01*
X0265422Y0167497D01*
X0263364Y0168350D01*
X0261136Y0168350D01*
X0259078Y0167497D01*
X0258750Y0167170D01*
X0258750Y0191943D01*
X0258765Y0191959D01*
X0258750Y0192769D01*
X0258750Y0192796D01*
X0258828Y0194811D01*
X0259675Y0198764D01*
X0261400Y0202420D01*
X0263912Y0205588D01*
X0267080Y0208100D01*
X0270736Y0209825D01*
X0274689Y0210672D01*
X0276704Y0210750D01*
X0276731Y0210750D01*
X0277541Y0210735D01*
X0277557Y0210750D01*
X0290943Y0210750D01*
X0290959Y0210735D01*
X0291769Y0210750D01*
X0291796Y0210750D01*
X0293811Y0210672D01*
X0297764Y0209825D01*
X0301420Y0208100D01*
X0304588Y0205588D01*
X0307100Y0202420D01*
X0308825Y0198764D01*
X0309672Y0194811D01*
X0309750Y0192796D01*
X0309750Y0192769D01*
X0309735Y0191959D01*
X0309750Y0191943D01*
X0309750Y0167170D01*
X0309422Y0167497D01*
X0307364Y0168350D01*
X0305136Y0168350D01*
X0303078Y0167497D01*
X0301503Y0165922D01*
X0300650Y0163864D01*
X0300650Y0161636D01*
X0301503Y0159578D01*
X0303078Y0158003D01*
X0302972Y0158109D02*
X0265528Y0158109D01*
X0266327Y0158907D02*
X0302173Y0158907D01*
X0301450Y0159706D02*
X0267050Y0159706D01*
X0267381Y0160504D02*
X0301119Y0160504D01*
X0300788Y0161303D02*
X0267712Y0161303D01*
X0267850Y0162101D02*
X0300650Y0162101D01*
X0300650Y0162900D02*
X0267850Y0162900D01*
X0267850Y0163698D02*
X0300650Y0163698D01*
X0300912Y0164497D02*
X0267588Y0164497D01*
X0267257Y0165295D02*
X0301243Y0165295D01*
X0301674Y0166094D02*
X0266826Y0166094D01*
X0266027Y0166892D02*
X0302473Y0166892D01*
X0303545Y0167691D02*
X0264955Y0167691D01*
X0259545Y0167691D02*
X0258750Y0167691D01*
X0258750Y0168489D02*
X0309750Y0168489D01*
X0309750Y0167691D02*
X0308955Y0167691D01*
X0309750Y0169288D02*
X0258750Y0169288D01*
X0258750Y0170087D02*
X0309750Y0170087D01*
X0309750Y0170885D02*
X0258750Y0170885D01*
X0258750Y0171684D02*
X0309750Y0171684D01*
X0309750Y0172482D02*
X0258750Y0172482D01*
X0258750Y0173281D02*
X0309750Y0173281D01*
X0309750Y0174079D02*
X0258750Y0174079D01*
X0258750Y0174878D02*
X0309750Y0174878D01*
X0309750Y0175676D02*
X0258750Y0175676D01*
X0258750Y0176475D02*
X0309750Y0176475D01*
X0309750Y0177273D02*
X0258750Y0177273D01*
X0258750Y0178072D02*
X0309750Y0178072D01*
X0309750Y0178870D02*
X0258750Y0178870D01*
X0258750Y0179669D02*
X0309750Y0179669D01*
X0309750Y0180467D02*
X0258750Y0180467D01*
X0258750Y0181266D02*
X0309750Y0181266D01*
X0309750Y0182064D02*
X0258750Y0182064D01*
X0258750Y0182863D02*
X0309750Y0182863D01*
X0309750Y0183661D02*
X0258750Y0183661D01*
X0258750Y0184460D02*
X0309750Y0184460D01*
X0309750Y0185258D02*
X0258750Y0185258D01*
X0258750Y0186057D02*
X0309750Y0186057D01*
X0309750Y0186855D02*
X0258750Y0186855D01*
X0258750Y0187654D02*
X0309750Y0187654D01*
X0309750Y0188452D02*
X0258750Y0188452D01*
X0258750Y0189251D02*
X0309750Y0189251D01*
X0309750Y0190049D02*
X0258750Y0190049D01*
X0258750Y0190848D02*
X0309750Y0190848D01*
X0309750Y0191646D02*
X0258750Y0191646D01*
X0258756Y0192445D02*
X0309744Y0192445D01*
X0309733Y0193243D02*
X0258767Y0193243D01*
X0258798Y0194042D02*
X0309702Y0194042D01*
X0309666Y0194840D02*
X0258834Y0194840D01*
X0259005Y0195639D02*
X0309495Y0195639D01*
X0309324Y0196437D02*
X0259176Y0196437D01*
X0259348Y0197236D02*
X0309152Y0197236D01*
X0308981Y0198034D02*
X0259519Y0198034D01*
X0259707Y0198833D02*
X0308793Y0198833D01*
X0308416Y0199631D02*
X0260084Y0199631D01*
X0260461Y0200430D02*
X0308039Y0200430D01*
X0307663Y0201228D02*
X0260837Y0201228D01*
X0261214Y0202027D02*
X0307286Y0202027D01*
X0306779Y0202825D02*
X0261721Y0202825D01*
X0262354Y0203624D02*
X0306146Y0203624D01*
X0305512Y0204422D02*
X0262988Y0204422D01*
X0263621Y0205221D02*
X0304879Y0205221D01*
X0304044Y0206020D02*
X0264456Y0206020D01*
X0265463Y0206818D02*
X0303037Y0206818D01*
X0302030Y0207617D02*
X0266470Y0207617D01*
X0267747Y0208415D02*
X0300753Y0208415D01*
X0299060Y0209214D02*
X0269440Y0209214D01*
X0271609Y0210012D02*
X0296891Y0210012D01*
X0309743Y0229176D02*
X0309750Y0229176D01*
X0325349Y0270699D02*
X0357151Y0270699D01*
X0355459Y0271497D02*
X0327041Y0271497D01*
X0329934Y0272296D02*
X0352566Y0272296D01*
X0366459Y0291460D02*
X0366750Y0291460D01*
X0366750Y0229975D02*
X0365270Y0229975D01*
X0366743Y0229176D02*
X0366750Y0229176D01*
X0366750Y0167691D02*
X0365955Y0167691D01*
X0356662Y0146930D02*
X0325838Y0146930D01*
X0327530Y0147728D02*
X0354969Y0147728D01*
X0351489Y0148527D02*
X0331011Y0148527D01*
X0315972Y0158109D02*
X0315750Y0158109D01*
X0309750Y0158109D02*
X0309528Y0158109D01*
X0309750Y0157310D02*
X0307751Y0157310D01*
X0309750Y0156512D02*
X0258750Y0156512D01*
X0258750Y0157310D02*
X0260749Y0157310D01*
X0258972Y0158109D02*
X0258750Y0158109D01*
X0258750Y0155713D02*
X0309750Y0155713D01*
X0309750Y0154915D02*
X0258750Y0154915D01*
X0263751Y0157310D02*
X0304749Y0157310D01*
X0252750Y0157310D02*
X0250751Y0157310D01*
X0250364Y0157150D02*
X0252422Y0158003D01*
X0252750Y0158330D01*
X0252750Y0154750D01*
X0201750Y0154750D01*
X0201750Y0158330D01*
X0202078Y0158003D01*
X0204136Y0157150D01*
X0206364Y0157150D01*
X0208422Y0158003D01*
X0209997Y0159578D01*
X0210850Y0161636D01*
X0210850Y0163864D01*
X0209997Y0165922D01*
X0208422Y0167497D01*
X0206364Y0168350D01*
X0204136Y0168350D01*
X0202078Y0167497D01*
X0201750Y0167170D01*
X0201750Y0191943D01*
X0201765Y0191959D01*
X0201750Y0192769D01*
X0201750Y0192796D01*
X0201828Y0194811D01*
X0202675Y0198764D01*
X0204400Y0202420D01*
X0206912Y0205588D01*
X0210080Y0208100D01*
X0213736Y0209825D01*
X0217689Y0210672D01*
X0219704Y0210750D01*
X0219731Y0210750D01*
X0220541Y0210735D01*
X0220557Y0210750D01*
X0233943Y0210750D01*
X0233959Y0210735D01*
X0234769Y0210750D01*
X0234796Y0210750D01*
X0236811Y0210672D01*
X0240764Y0209825D01*
X0244420Y0208100D01*
X0247588Y0205588D01*
X0250100Y0202420D01*
X0251825Y0198764D01*
X0252672Y0194811D01*
X0252750Y0192796D01*
X0252750Y0192769D01*
X0252735Y0191959D01*
X0252750Y0191943D01*
X0252750Y0167170D01*
X0252422Y0167497D01*
X0250364Y0168350D01*
X0248136Y0168350D01*
X0246078Y0167497D01*
X0244503Y0165922D01*
X0243650Y0163864D01*
X0243650Y0161636D01*
X0244503Y0159578D01*
X0246078Y0158003D01*
X0248136Y0157150D01*
X0250364Y0157150D01*
X0252528Y0158109D02*
X0252750Y0158109D01*
X0252750Y0156512D02*
X0201750Y0156512D01*
X0201750Y0157310D02*
X0203749Y0157310D01*
X0201972Y0158109D02*
X0201750Y0158109D01*
X0201750Y0155713D02*
X0252750Y0155713D01*
X0252750Y0154915D02*
X0201750Y0154915D01*
X0206751Y0157310D02*
X0247749Y0157310D01*
X0245972Y0158109D02*
X0208528Y0158109D01*
X0209327Y0158907D02*
X0245173Y0158907D01*
X0244450Y0159706D02*
X0210050Y0159706D01*
X0210381Y0160504D02*
X0244119Y0160504D01*
X0243788Y0161303D02*
X0210712Y0161303D01*
X0210850Y0162101D02*
X0243650Y0162101D01*
X0243650Y0162900D02*
X0210850Y0162900D01*
X0210850Y0163698D02*
X0243650Y0163698D01*
X0243912Y0164497D02*
X0210588Y0164497D01*
X0210257Y0165295D02*
X0244243Y0165295D01*
X0244674Y0166094D02*
X0209826Y0166094D01*
X0209027Y0166892D02*
X0245473Y0166892D01*
X0246545Y0167691D02*
X0207955Y0167691D01*
X0202545Y0167691D02*
X0201750Y0167691D01*
X0201750Y0168489D02*
X0252750Y0168489D01*
X0252750Y0167691D02*
X0251955Y0167691D01*
X0252750Y0169288D02*
X0201750Y0169288D01*
X0201750Y0170087D02*
X0252750Y0170087D01*
X0252750Y0170885D02*
X0201750Y0170885D01*
X0201750Y0171684D02*
X0252750Y0171684D01*
X0252750Y0172482D02*
X0201750Y0172482D01*
X0201750Y0173281D02*
X0252750Y0173281D01*
X0252750Y0174079D02*
X0201750Y0174079D01*
X0201750Y0174878D02*
X0252750Y0174878D01*
X0252750Y0175676D02*
X0201750Y0175676D01*
X0201750Y0176475D02*
X0252750Y0176475D01*
X0252750Y0177273D02*
X0201750Y0177273D01*
X0201750Y0178072D02*
X0252750Y0178072D01*
X0252750Y0178870D02*
X0201750Y0178870D01*
X0201750Y0179669D02*
X0252750Y0179669D01*
X0252750Y0180467D02*
X0201750Y0180467D01*
X0201750Y0181266D02*
X0252750Y0181266D01*
X0252750Y0182064D02*
X0201750Y0182064D01*
X0201750Y0182863D02*
X0252750Y0182863D01*
X0252750Y0183661D02*
X0201750Y0183661D01*
X0201750Y0184460D02*
X0252750Y0184460D01*
X0252750Y0185258D02*
X0201750Y0185258D01*
X0201750Y0186057D02*
X0252750Y0186057D01*
X0252750Y0186855D02*
X0201750Y0186855D01*
X0201750Y0187654D02*
X0252750Y0187654D01*
X0252750Y0188452D02*
X0201750Y0188452D01*
X0201750Y0189251D02*
X0252750Y0189251D01*
X0252750Y0190049D02*
X0201750Y0190049D01*
X0201750Y0190848D02*
X0252750Y0190848D01*
X0252750Y0191646D02*
X0201750Y0191646D01*
X0201756Y0192445D02*
X0252744Y0192445D01*
X0252733Y0193243D02*
X0201767Y0193243D01*
X0201798Y0194042D02*
X0252702Y0194042D01*
X0252666Y0194840D02*
X0201834Y0194840D01*
X0202005Y0195639D02*
X0252495Y0195639D01*
X0252324Y0196437D02*
X0202176Y0196437D01*
X0202348Y0197236D02*
X0252152Y0197236D01*
X0251981Y0198034D02*
X0202519Y0198034D01*
X0202707Y0198833D02*
X0251793Y0198833D01*
X0251416Y0199631D02*
X0203084Y0199631D01*
X0203461Y0200430D02*
X0251039Y0200430D01*
X0250663Y0201228D02*
X0203837Y0201228D01*
X0204214Y0202027D02*
X0250286Y0202027D01*
X0249779Y0202825D02*
X0204721Y0202825D01*
X0205354Y0203624D02*
X0249146Y0203624D01*
X0248512Y0204422D02*
X0205988Y0204422D01*
X0206621Y0205221D02*
X0247879Y0205221D01*
X0247044Y0206020D02*
X0207456Y0206020D01*
X0208463Y0206818D02*
X0246037Y0206818D01*
X0245030Y0207617D02*
X0209470Y0207617D01*
X0210747Y0208415D02*
X0243753Y0208415D01*
X0242060Y0209214D02*
X0212440Y0209214D01*
X0214609Y0210012D02*
X0239891Y0210012D01*
X0258750Y0219594D02*
X0260064Y0219594D01*
X0252750Y0229176D02*
X0252743Y0229176D01*
X0252750Y0229975D02*
X0251270Y0229975D01*
X0195750Y0219594D02*
X0194436Y0219594D01*
X0195750Y0218796D02*
X0144750Y0218796D01*
X0144750Y0219594D02*
X0146064Y0219594D01*
X0144750Y0217997D02*
X0195750Y0217997D01*
X0195750Y0217199D02*
X0144750Y0217199D01*
X0138750Y0217199D02*
X0087750Y0217199D01*
X0087750Y0217997D02*
X0138750Y0217997D01*
X0138750Y0218796D02*
X0087750Y0218796D01*
X0087750Y0219594D02*
X0089064Y0219594D01*
X0093436Y0219594D02*
X0133064Y0219594D01*
X0131688Y0220393D02*
X0094812Y0220393D01*
X0095611Y0221191D02*
X0130889Y0221191D01*
X0130332Y0221990D02*
X0096168Y0221990D01*
X0096499Y0222788D02*
X0130001Y0222788D01*
X0129670Y0223587D02*
X0096830Y0223587D01*
X0096850Y0224385D02*
X0129650Y0224385D01*
X0129650Y0225184D02*
X0096850Y0225184D01*
X0096801Y0225982D02*
X0129699Y0225982D01*
X0130030Y0226781D02*
X0096470Y0226781D01*
X0096139Y0227579D02*
X0130361Y0227579D01*
X0130958Y0228378D02*
X0095542Y0228378D01*
X0094743Y0229176D02*
X0131757Y0229176D01*
X0133230Y0229975D02*
X0093270Y0229975D01*
X0089230Y0229975D02*
X0087750Y0229975D01*
X0087750Y0229176D02*
X0087757Y0229176D01*
X0081750Y0219594D02*
X0080436Y0219594D01*
X0081750Y0218796D02*
X0030750Y0218796D01*
X0030750Y0219594D02*
X0032064Y0219594D01*
X0030750Y0217997D02*
X0081750Y0217997D01*
X0081750Y0217199D02*
X0030750Y0217199D01*
X0036436Y0219594D02*
X0076064Y0219594D01*
X0092912Y0205588D02*
X0090400Y0202420D01*
X0088675Y0198764D01*
X0087828Y0194811D01*
X0087750Y0192796D01*
X0087750Y0192769D01*
X0087765Y0191959D01*
X0087750Y0191943D01*
X0087750Y0167170D01*
X0088078Y0167497D01*
X0090136Y0168350D01*
X0092364Y0168350D01*
X0094422Y0167497D01*
X0095997Y0165922D01*
X0096850Y0163864D01*
X0096850Y0161636D01*
X0095997Y0159578D01*
X0094422Y0158003D01*
X0092364Y0157150D01*
X0090136Y0157150D01*
X0088078Y0158003D01*
X0087750Y0158330D01*
X0087750Y0154750D01*
X0138750Y0154750D01*
X0138750Y0158330D01*
X0138422Y0158003D01*
X0136364Y0157150D01*
X0134136Y0157150D01*
X0132078Y0158003D01*
X0130503Y0159578D01*
X0129650Y0161636D01*
X0129650Y0163864D01*
X0130503Y0165922D01*
X0132078Y0167497D01*
X0134136Y0168350D01*
X0136364Y0168350D01*
X0138422Y0167497D01*
X0138750Y0167170D01*
X0138750Y0191943D01*
X0138735Y0191959D01*
X0138750Y0192769D01*
X0138750Y0192796D01*
X0138672Y0194811D01*
X0137825Y0198764D01*
X0136100Y0202420D01*
X0133588Y0205588D01*
X0130420Y0208100D01*
X0126764Y0209825D01*
X0122811Y0210672D01*
X0120796Y0210750D01*
X0120769Y0210750D01*
X0119959Y0210735D01*
X0119943Y0210750D01*
X0106557Y0210750D01*
X0106541Y0210735D01*
X0105731Y0210750D01*
X0105704Y0210750D01*
X0103689Y0210672D01*
X0099736Y0209825D01*
X0096080Y0208100D01*
X0092912Y0205588D01*
X0092621Y0205221D02*
X0133879Y0205221D01*
X0134512Y0204422D02*
X0091988Y0204422D01*
X0091354Y0203624D02*
X0135146Y0203624D01*
X0135779Y0202825D02*
X0090721Y0202825D01*
X0090214Y0202027D02*
X0136286Y0202027D01*
X0136663Y0201228D02*
X0089837Y0201228D01*
X0089461Y0200430D02*
X0137039Y0200430D01*
X0137416Y0199631D02*
X0089084Y0199631D01*
X0088707Y0198833D02*
X0137793Y0198833D01*
X0137981Y0198034D02*
X0088519Y0198034D01*
X0088348Y0197236D02*
X0138152Y0197236D01*
X0138324Y0196437D02*
X0088176Y0196437D01*
X0088005Y0195639D02*
X0138495Y0195639D01*
X0138666Y0194840D02*
X0087834Y0194840D01*
X0087798Y0194042D02*
X0138702Y0194042D01*
X0138733Y0193243D02*
X0087767Y0193243D01*
X0087756Y0192445D02*
X0138744Y0192445D01*
X0138750Y0191646D02*
X0087750Y0191646D01*
X0087750Y0190848D02*
X0138750Y0190848D01*
X0138750Y0190049D02*
X0087750Y0190049D01*
X0087750Y0189251D02*
X0138750Y0189251D01*
X0138750Y0188452D02*
X0087750Y0188452D01*
X0087750Y0187654D02*
X0138750Y0187654D01*
X0138750Y0186855D02*
X0087750Y0186855D01*
X0087750Y0186057D02*
X0138750Y0186057D01*
X0138750Y0185258D02*
X0087750Y0185258D01*
X0087750Y0184460D02*
X0138750Y0184460D01*
X0138750Y0183661D02*
X0087750Y0183661D01*
X0087750Y0182863D02*
X0138750Y0182863D01*
X0138750Y0182064D02*
X0087750Y0182064D01*
X0087750Y0181266D02*
X0138750Y0181266D01*
X0138750Y0180467D02*
X0087750Y0180467D01*
X0087750Y0179669D02*
X0138750Y0179669D01*
X0138750Y0178870D02*
X0087750Y0178870D01*
X0087750Y0178072D02*
X0138750Y0178072D01*
X0138750Y0177273D02*
X0087750Y0177273D01*
X0087750Y0176475D02*
X0138750Y0176475D01*
X0138750Y0175676D02*
X0087750Y0175676D01*
X0087750Y0174878D02*
X0138750Y0174878D01*
X0138750Y0174079D02*
X0087750Y0174079D01*
X0087750Y0173281D02*
X0138750Y0173281D01*
X0138750Y0172482D02*
X0087750Y0172482D01*
X0087750Y0171684D02*
X0138750Y0171684D01*
X0138750Y0170885D02*
X0087750Y0170885D01*
X0087750Y0170087D02*
X0138750Y0170087D01*
X0138750Y0169288D02*
X0087750Y0169288D01*
X0087750Y0168489D02*
X0138750Y0168489D01*
X0138750Y0167691D02*
X0137955Y0167691D01*
X0132545Y0167691D02*
X0093955Y0167691D01*
X0095027Y0166892D02*
X0131473Y0166892D01*
X0130674Y0166094D02*
X0095826Y0166094D01*
X0096257Y0165295D02*
X0130243Y0165295D01*
X0129912Y0164497D02*
X0096588Y0164497D01*
X0096850Y0163698D02*
X0129650Y0163698D01*
X0129650Y0162900D02*
X0096850Y0162900D01*
X0096850Y0162101D02*
X0129650Y0162101D01*
X0129788Y0161303D02*
X0096712Y0161303D01*
X0096381Y0160504D02*
X0130119Y0160504D01*
X0130450Y0159706D02*
X0096050Y0159706D01*
X0095327Y0158907D02*
X0131173Y0158907D01*
X0131972Y0158109D02*
X0094528Y0158109D01*
X0092751Y0157310D02*
X0133749Y0157310D01*
X0136751Y0157310D02*
X0138750Y0157310D01*
X0138750Y0156512D02*
X0087750Y0156512D01*
X0087750Y0157310D02*
X0089749Y0157310D01*
X0087972Y0158109D02*
X0087750Y0158109D01*
X0087750Y0155713D02*
X0138750Y0155713D01*
X0138750Y0154915D02*
X0087750Y0154915D01*
X0081750Y0154915D02*
X0030750Y0154915D01*
X0030750Y0155713D02*
X0081750Y0155713D01*
X0081750Y0156512D02*
X0030750Y0156512D01*
X0030750Y0157310D02*
X0032749Y0157310D01*
X0030972Y0158109D02*
X0030750Y0158109D01*
X0035751Y0157310D02*
X0076749Y0157310D01*
X0079751Y0157310D02*
X0081750Y0157310D01*
X0081750Y0158109D02*
X0081528Y0158109D01*
X0087750Y0167691D02*
X0088545Y0167691D01*
X0097838Y0146930D02*
X0128662Y0146930D01*
X0126969Y0147728D02*
X0099530Y0147728D01*
X0099736Y0147825D02*
X0103689Y0148672D01*
X0105704Y0148750D01*
X0105731Y0148750D01*
X0106541Y0148735D01*
X0106557Y0148750D01*
X0119943Y0148750D01*
X0119959Y0148735D01*
X0120769Y0148750D01*
X0120796Y0148750D01*
X0122811Y0148672D01*
X0126764Y0147825D01*
X0130420Y0146100D01*
X0133588Y0143588D01*
X0136100Y0140420D01*
X0137825Y0136764D01*
X0138672Y0132811D01*
X0138750Y0130796D01*
X0138750Y0130769D01*
X0138735Y0129959D01*
X0138750Y0129943D01*
X0138750Y0105170D01*
X0138422Y0105497D01*
X0136364Y0106350D01*
X0134136Y0106350D01*
X0132078Y0105497D01*
X0130503Y0103922D01*
X0129650Y0101864D01*
X0129650Y0099636D01*
X0130503Y0097578D01*
X0132078Y0096003D01*
X0134136Y0095150D01*
X0136364Y0095150D01*
X0138422Y0096003D01*
X0138750Y0096330D01*
X0138750Y0092750D01*
X0087750Y0092750D01*
X0087750Y0096330D01*
X0088078Y0096003D01*
X0090136Y0095150D01*
X0092364Y0095150D01*
X0094422Y0096003D01*
X0095997Y0097578D01*
X0096850Y0099636D01*
X0096850Y0101864D01*
X0095997Y0103922D01*
X0094422Y0105497D01*
X0092364Y0106350D01*
X0090136Y0106350D01*
X0088078Y0105497D01*
X0087750Y0105170D01*
X0087750Y0129943D01*
X0087765Y0129959D01*
X0087750Y0130769D01*
X0087750Y0130796D01*
X0087828Y0132811D01*
X0088675Y0136764D01*
X0090400Y0140420D01*
X0092912Y0143588D01*
X0096080Y0146100D01*
X0099736Y0147825D01*
X0103011Y0148527D02*
X0123489Y0148527D01*
X0130355Y0146131D02*
X0096145Y0146131D01*
X0095112Y0145333D02*
X0131388Y0145333D01*
X0132395Y0144534D02*
X0094105Y0144534D01*
X0093098Y0143736D02*
X0133402Y0143736D01*
X0134104Y0142937D02*
X0092396Y0142937D01*
X0091762Y0142139D02*
X0134738Y0142139D01*
X0135371Y0141340D02*
X0091129Y0141340D01*
X0090496Y0140542D02*
X0136004Y0140542D01*
X0136420Y0139743D02*
X0090080Y0139743D01*
X0089703Y0138945D02*
X0136796Y0138945D01*
X0137173Y0138146D02*
X0089327Y0138146D01*
X0088950Y0137348D02*
X0137550Y0137348D01*
X0137871Y0136549D02*
X0088629Y0136549D01*
X0088458Y0135751D02*
X0138042Y0135751D01*
X0138213Y0134952D02*
X0088287Y0134952D01*
X0088116Y0134153D02*
X0138384Y0134153D01*
X0138555Y0133355D02*
X0087945Y0133355D01*
X0087818Y0132556D02*
X0138682Y0132556D01*
X0138713Y0131758D02*
X0087787Y0131758D01*
X0087756Y0130959D02*
X0138744Y0130959D01*
X0138739Y0130161D02*
X0087761Y0130161D01*
X0087750Y0129362D02*
X0138750Y0129362D01*
X0138750Y0128564D02*
X0087750Y0128564D01*
X0087750Y0127765D02*
X0138750Y0127765D01*
X0138750Y0126967D02*
X0087750Y0126967D01*
X0087750Y0126168D02*
X0138750Y0126168D01*
X0138750Y0125370D02*
X0087750Y0125370D01*
X0087750Y0124571D02*
X0138750Y0124571D01*
X0138750Y0123773D02*
X0087750Y0123773D01*
X0087750Y0122974D02*
X0138750Y0122974D01*
X0138750Y0122176D02*
X0087750Y0122176D01*
X0087750Y0121377D02*
X0138750Y0121377D01*
X0138750Y0120579D02*
X0087750Y0120579D01*
X0087750Y0119780D02*
X0138750Y0119780D01*
X0138750Y0118982D02*
X0087750Y0118982D01*
X0087750Y0118183D02*
X0138750Y0118183D01*
X0138750Y0117385D02*
X0087750Y0117385D01*
X0087750Y0116586D02*
X0138750Y0116586D01*
X0138750Y0115788D02*
X0087750Y0115788D01*
X0087750Y0114989D02*
X0138750Y0114989D01*
X0138750Y0114191D02*
X0087750Y0114191D01*
X0087750Y0113392D02*
X0138750Y0113392D01*
X0138750Y0112594D02*
X0087750Y0112594D01*
X0087750Y0111795D02*
X0138750Y0111795D01*
X0138750Y0110997D02*
X0087750Y0110997D01*
X0087750Y0110198D02*
X0138750Y0110198D01*
X0138750Y0109400D02*
X0087750Y0109400D01*
X0087750Y0108601D02*
X0138750Y0108601D01*
X0138750Y0107803D02*
X0087750Y0107803D01*
X0087750Y0107004D02*
X0138750Y0107004D01*
X0138750Y0106206D02*
X0136713Y0106206D01*
X0138512Y0105407D02*
X0138750Y0105407D01*
X0133788Y0106206D02*
X0092712Y0106206D01*
X0094512Y0105407D02*
X0131988Y0105407D01*
X0131189Y0104609D02*
X0095311Y0104609D01*
X0096044Y0103810D02*
X0130456Y0103810D01*
X0130125Y0103012D02*
X0096375Y0103012D01*
X0096705Y0102213D02*
X0129795Y0102213D01*
X0129650Y0101415D02*
X0096850Y0101415D01*
X0096850Y0100616D02*
X0129650Y0100616D01*
X0129650Y0099818D02*
X0096850Y0099818D01*
X0096594Y0099019D02*
X0129906Y0099019D01*
X0130236Y0098220D02*
X0096264Y0098220D01*
X0095842Y0097422D02*
X0130658Y0097422D01*
X0131457Y0096623D02*
X0095043Y0096623D01*
X0093993Y0095825D02*
X0132507Y0095825D01*
X0137993Y0095825D02*
X0138750Y0095825D01*
X0138750Y0095026D02*
X0087750Y0095026D01*
X0087750Y0094228D02*
X0138750Y0094228D01*
X0138750Y0093429D02*
X0087750Y0093429D01*
X0087750Y0095825D02*
X0088507Y0095825D01*
X0081750Y0095825D02*
X0080993Y0095825D01*
X0081750Y0095026D02*
X0030750Y0095026D01*
X0030750Y0094228D02*
X0081750Y0094228D01*
X0081750Y0093429D02*
X0030750Y0093429D01*
X0030750Y0095825D02*
X0031507Y0095825D01*
X0030988Y0105407D02*
X0030750Y0105407D01*
X0087750Y0105407D02*
X0087988Y0105407D01*
X0087750Y0106206D02*
X0089787Y0106206D01*
X0099736Y0085825D02*
X0103689Y0086672D01*
X0105704Y0086750D01*
X0105731Y0086750D01*
X0106541Y0086735D01*
X0106557Y0086750D01*
X0119943Y0086750D01*
X0119959Y0086735D01*
X0120769Y0086750D01*
X0120796Y0086750D01*
X0122811Y0086672D01*
X0126764Y0085825D01*
X0130420Y0084100D01*
X0133588Y0081588D01*
X0136100Y0078420D01*
X0137825Y0074764D01*
X0138672Y0070811D01*
X0138750Y0068796D01*
X0138750Y0068769D01*
X0138735Y0067959D01*
X0138750Y0067943D01*
X0138750Y0043170D01*
X0138422Y0043497D01*
X0136364Y0044350D01*
X0134136Y0044350D01*
X0132078Y0043497D01*
X0130503Y0041922D01*
X0129650Y0039864D01*
X0129650Y0037636D01*
X0130503Y0035578D01*
X0132078Y0034003D01*
X0134136Y0033150D01*
X0136364Y0033150D01*
X0138422Y0034003D01*
X0138750Y0034330D01*
X0138750Y0030750D01*
X0087750Y0030750D01*
X0087750Y0034330D01*
X0088078Y0034003D01*
X0090136Y0033150D01*
X0092364Y0033150D01*
X0094422Y0034003D01*
X0095997Y0035578D01*
X0096850Y0037636D01*
X0096850Y0039864D01*
X0095997Y0041922D01*
X0094422Y0043497D01*
X0092364Y0044350D01*
X0090136Y0044350D01*
X0088078Y0043497D01*
X0087750Y0043170D01*
X0087750Y0067943D01*
X0087765Y0067959D01*
X0087750Y0068769D01*
X0087750Y0068796D01*
X0087828Y0070811D01*
X0088675Y0074764D01*
X0090400Y0078420D01*
X0092912Y0081588D01*
X0096080Y0084100D01*
X0099736Y0085825D01*
X0098929Y0085444D02*
X0127571Y0085444D01*
X0129264Y0084646D02*
X0097236Y0084646D01*
X0095761Y0083847D02*
X0130739Y0083847D01*
X0131746Y0083049D02*
X0094754Y0083049D01*
X0093747Y0082250D02*
X0132753Y0082250D01*
X0133696Y0081452D02*
X0092804Y0081452D01*
X0092171Y0080653D02*
X0134329Y0080653D01*
X0134963Y0079855D02*
X0091537Y0079855D01*
X0090904Y0079056D02*
X0135596Y0079056D01*
X0136177Y0078258D02*
X0090323Y0078258D01*
X0089946Y0077459D02*
X0136554Y0077459D01*
X0136930Y0076661D02*
X0089570Y0076661D01*
X0089193Y0075862D02*
X0137307Y0075862D01*
X0137684Y0075064D02*
X0088816Y0075064D01*
X0088568Y0074265D02*
X0137932Y0074265D01*
X0138103Y0073467D02*
X0088397Y0073467D01*
X0088226Y0072668D02*
X0138274Y0072668D01*
X0138445Y0071870D02*
X0088055Y0071870D01*
X0087884Y0071071D02*
X0138616Y0071071D01*
X0138693Y0070273D02*
X0087807Y0070273D01*
X0087776Y0069474D02*
X0138724Y0069474D01*
X0138748Y0068676D02*
X0087752Y0068676D01*
X0087750Y0067877D02*
X0138750Y0067877D01*
X0138750Y0067079D02*
X0087750Y0067079D01*
X0087750Y0066280D02*
X0138750Y0066280D01*
X0138750Y0065482D02*
X0087750Y0065482D01*
X0087750Y0064683D02*
X0138750Y0064683D01*
X0138750Y0063884D02*
X0087750Y0063884D01*
X0087750Y0063086D02*
X0138750Y0063086D01*
X0138750Y0062287D02*
X0087750Y0062287D01*
X0087750Y0061489D02*
X0138750Y0061489D01*
X0138750Y0060690D02*
X0087750Y0060690D01*
X0087750Y0059892D02*
X0138750Y0059892D01*
X0138750Y0059093D02*
X0087750Y0059093D01*
X0087750Y0058295D02*
X0138750Y0058295D01*
X0138750Y0057496D02*
X0087750Y0057496D01*
X0087750Y0056698D02*
X0138750Y0056698D01*
X0138750Y0055899D02*
X0087750Y0055899D01*
X0087750Y0055101D02*
X0138750Y0055101D01*
X0138750Y0054302D02*
X0087750Y0054302D01*
X0087750Y0053504D02*
X0138750Y0053504D01*
X0138750Y0052705D02*
X0087750Y0052705D01*
X0087750Y0051907D02*
X0138750Y0051907D01*
X0138750Y0051108D02*
X0087750Y0051108D01*
X0087750Y0050310D02*
X0138750Y0050310D01*
X0138750Y0049511D02*
X0087750Y0049511D01*
X0087750Y0048713D02*
X0138750Y0048713D01*
X0138750Y0047914D02*
X0087750Y0047914D01*
X0087750Y0047116D02*
X0138750Y0047116D01*
X0138750Y0046317D02*
X0087750Y0046317D01*
X0087750Y0045519D02*
X0138750Y0045519D01*
X0138750Y0044720D02*
X0087750Y0044720D01*
X0087750Y0043922D02*
X0089102Y0043922D01*
X0093398Y0043922D02*
X0133102Y0043922D01*
X0131704Y0043123D02*
X0094796Y0043123D01*
X0095595Y0042325D02*
X0130905Y0042325D01*
X0130339Y0041526D02*
X0096161Y0041526D01*
X0096492Y0040728D02*
X0130008Y0040728D01*
X0129677Y0039929D02*
X0096823Y0039929D01*
X0096850Y0039131D02*
X0129650Y0039131D01*
X0129650Y0038332D02*
X0096850Y0038332D01*
X0096808Y0037534D02*
X0129692Y0037534D01*
X0130023Y0036735D02*
X0096477Y0036735D01*
X0096146Y0035937D02*
X0130354Y0035937D01*
X0130942Y0035138D02*
X0095558Y0035138D01*
X0094759Y0034340D02*
X0131741Y0034340D01*
X0133192Y0033541D02*
X0093308Y0033541D01*
X0089192Y0033541D02*
X0087750Y0033541D01*
X0087750Y0032743D02*
X0138750Y0032743D01*
X0138750Y0033541D02*
X0137308Y0033541D01*
X0138750Y0031944D02*
X0087750Y0031944D01*
X0087750Y0031146D02*
X0138750Y0031146D01*
X0144750Y0031146D02*
X0195750Y0031146D01*
X0195750Y0030750D02*
X0144750Y0030750D01*
X0144750Y0034330D01*
X0145078Y0034003D01*
X0147136Y0033150D01*
X0149364Y0033150D01*
X0151422Y0034003D01*
X0152997Y0035578D01*
X0153850Y0037636D01*
X0153850Y0039864D01*
X0152997Y0041922D01*
X0151422Y0043497D01*
X0149364Y0044350D01*
X0147136Y0044350D01*
X0145078Y0043497D01*
X0144750Y0043170D01*
X0144750Y0067943D01*
X0144765Y0067959D01*
X0144750Y0068769D01*
X0144750Y0068796D01*
X0144828Y0070811D01*
X0145675Y0074764D01*
X0147400Y0078420D01*
X0149912Y0081588D01*
X0153080Y0084100D01*
X0156736Y0085825D01*
X0160689Y0086672D01*
X0162704Y0086750D01*
X0162731Y0086750D01*
X0163541Y0086735D01*
X0163557Y0086750D01*
X0176943Y0086750D01*
X0176959Y0086735D01*
X0177769Y0086750D01*
X0177796Y0086750D01*
X0179811Y0086672D01*
X0183764Y0085825D01*
X0187420Y0084100D01*
X0190588Y0081588D01*
X0193100Y0078420D01*
X0194825Y0074764D01*
X0195672Y0070811D01*
X0195750Y0068796D01*
X0195750Y0068769D01*
X0195735Y0067959D01*
X0195750Y0067943D01*
X0195750Y0043170D01*
X0195422Y0043497D01*
X0193364Y0044350D01*
X0191136Y0044350D01*
X0189078Y0043497D01*
X0187503Y0041922D01*
X0186650Y0039864D01*
X0186650Y0037636D01*
X0187503Y0035578D01*
X0189078Y0034003D01*
X0191136Y0033150D01*
X0193364Y0033150D01*
X0195422Y0034003D01*
X0195750Y0034330D01*
X0195750Y0030750D01*
X0195750Y0031944D02*
X0144750Y0031944D01*
X0144750Y0032743D02*
X0195750Y0032743D01*
X0195750Y0033541D02*
X0194308Y0033541D01*
X0190192Y0033541D02*
X0150308Y0033541D01*
X0151759Y0034340D02*
X0188741Y0034340D01*
X0187942Y0035138D02*
X0152558Y0035138D01*
X0153146Y0035937D02*
X0187354Y0035937D01*
X0187023Y0036735D02*
X0153477Y0036735D01*
X0153808Y0037534D02*
X0186692Y0037534D01*
X0186650Y0038332D02*
X0153850Y0038332D01*
X0153850Y0039131D02*
X0186650Y0039131D01*
X0186677Y0039929D02*
X0153823Y0039929D01*
X0153492Y0040728D02*
X0187008Y0040728D01*
X0187339Y0041526D02*
X0153161Y0041526D01*
X0152595Y0042325D02*
X0187905Y0042325D01*
X0188704Y0043123D02*
X0151796Y0043123D01*
X0150398Y0043922D02*
X0190102Y0043922D01*
X0194398Y0043922D02*
X0195750Y0043922D01*
X0195750Y0044720D02*
X0144750Y0044720D01*
X0144750Y0043922D02*
X0146102Y0043922D01*
X0144750Y0045519D02*
X0195750Y0045519D01*
X0195750Y0046317D02*
X0144750Y0046317D01*
X0144750Y0047116D02*
X0195750Y0047116D01*
X0195750Y0047914D02*
X0144750Y0047914D01*
X0144750Y0048713D02*
X0195750Y0048713D01*
X0195750Y0049511D02*
X0144750Y0049511D01*
X0144750Y0050310D02*
X0195750Y0050310D01*
X0195750Y0051108D02*
X0144750Y0051108D01*
X0144750Y0051907D02*
X0195750Y0051907D01*
X0195750Y0052705D02*
X0144750Y0052705D01*
X0144750Y0053504D02*
X0195750Y0053504D01*
X0195750Y0054302D02*
X0144750Y0054302D01*
X0144750Y0055101D02*
X0195750Y0055101D01*
X0195750Y0055899D02*
X0144750Y0055899D01*
X0144750Y0056698D02*
X0195750Y0056698D01*
X0195750Y0057496D02*
X0144750Y0057496D01*
X0144750Y0058295D02*
X0195750Y0058295D01*
X0195750Y0059093D02*
X0144750Y0059093D01*
X0144750Y0059892D02*
X0195750Y0059892D01*
X0195750Y0060690D02*
X0144750Y0060690D01*
X0144750Y0061489D02*
X0195750Y0061489D01*
X0195750Y0062287D02*
X0144750Y0062287D01*
X0144750Y0063086D02*
X0195750Y0063086D01*
X0195750Y0063884D02*
X0144750Y0063884D01*
X0144750Y0064683D02*
X0195750Y0064683D01*
X0195750Y0065482D02*
X0144750Y0065482D01*
X0144750Y0066280D02*
X0195750Y0066280D01*
X0195750Y0067079D02*
X0144750Y0067079D01*
X0144750Y0067877D02*
X0195750Y0067877D01*
X0195748Y0068676D02*
X0144752Y0068676D01*
X0144776Y0069474D02*
X0195724Y0069474D01*
X0195693Y0070273D02*
X0144807Y0070273D01*
X0144884Y0071071D02*
X0195616Y0071071D01*
X0195445Y0071870D02*
X0145055Y0071870D01*
X0145226Y0072668D02*
X0195274Y0072668D01*
X0195103Y0073467D02*
X0145397Y0073467D01*
X0145568Y0074265D02*
X0194932Y0074265D01*
X0194684Y0075064D02*
X0145816Y0075064D01*
X0146193Y0075862D02*
X0194307Y0075862D01*
X0193930Y0076661D02*
X0146570Y0076661D01*
X0146946Y0077459D02*
X0193554Y0077459D01*
X0193177Y0078258D02*
X0147323Y0078258D01*
X0147904Y0079056D02*
X0192596Y0079056D01*
X0191963Y0079855D02*
X0148537Y0079855D01*
X0149171Y0080653D02*
X0191329Y0080653D01*
X0190696Y0081452D02*
X0149804Y0081452D01*
X0150747Y0082250D02*
X0189753Y0082250D01*
X0188746Y0083049D02*
X0151754Y0083049D01*
X0152761Y0083847D02*
X0187739Y0083847D01*
X0186264Y0084646D02*
X0154236Y0084646D01*
X0155929Y0085444D02*
X0184571Y0085444D01*
X0181814Y0086243D02*
X0158686Y0086243D01*
X0151422Y0096003D02*
X0152997Y0097578D01*
X0153850Y0099636D01*
X0153850Y0101864D01*
X0152997Y0103922D01*
X0151422Y0105497D01*
X0149364Y0106350D01*
X0147136Y0106350D01*
X0145078Y0105497D01*
X0144750Y0105170D01*
X0144750Y0129943D01*
X0144765Y0129959D01*
X0144750Y0130769D01*
X0144750Y0130796D01*
X0144828Y0132811D01*
X0145675Y0136764D01*
X0147400Y0140420D01*
X0149912Y0143588D01*
X0153080Y0146100D01*
X0156736Y0147825D01*
X0160689Y0148672D01*
X0162704Y0148750D01*
X0162731Y0148750D01*
X0163541Y0148735D01*
X0163557Y0148750D01*
X0176943Y0148750D01*
X0176959Y0148735D01*
X0177769Y0148750D01*
X0177796Y0148750D01*
X0179811Y0148672D01*
X0183764Y0147825D01*
X0187420Y0146100D01*
X0190588Y0143588D01*
X0193100Y0140420D01*
X0194825Y0136764D01*
X0195672Y0132811D01*
X0195750Y0130796D01*
X0195750Y0130769D01*
X0195735Y0129959D01*
X0195750Y0129943D01*
X0195750Y0105170D01*
X0195422Y0105497D01*
X0193364Y0106350D01*
X0191136Y0106350D01*
X0189078Y0105497D01*
X0187503Y0103922D01*
X0186650Y0101864D01*
X0186650Y0099636D01*
X0187503Y0097578D01*
X0189078Y0096003D01*
X0191136Y0095150D01*
X0193364Y0095150D01*
X0195422Y0096003D01*
X0195750Y0096330D01*
X0195750Y0092750D01*
X0144750Y0092750D01*
X0144750Y0096330D01*
X0145078Y0096003D01*
X0147136Y0095150D01*
X0149364Y0095150D01*
X0151422Y0096003D01*
X0150993Y0095825D02*
X0189507Y0095825D01*
X0188457Y0096623D02*
X0152043Y0096623D01*
X0152842Y0097422D02*
X0187658Y0097422D01*
X0187236Y0098220D02*
X0153264Y0098220D01*
X0153594Y0099019D02*
X0186906Y0099019D01*
X0186650Y0099818D02*
X0153850Y0099818D01*
X0153850Y0100616D02*
X0186650Y0100616D01*
X0186650Y0101415D02*
X0153850Y0101415D01*
X0153705Y0102213D02*
X0186795Y0102213D01*
X0187125Y0103012D02*
X0153375Y0103012D01*
X0153044Y0103810D02*
X0187456Y0103810D01*
X0188189Y0104609D02*
X0152311Y0104609D01*
X0151512Y0105407D02*
X0188987Y0105407D01*
X0190787Y0106206D02*
X0149713Y0106206D01*
X0146788Y0106206D02*
X0144750Y0106206D01*
X0144750Y0107004D02*
X0195750Y0107004D01*
X0195750Y0106206D02*
X0193712Y0106206D01*
X0195512Y0105407D02*
X0195750Y0105407D01*
X0195750Y0107803D02*
X0144750Y0107803D01*
X0144750Y0108601D02*
X0195750Y0108601D01*
X0195750Y0109400D02*
X0144750Y0109400D01*
X0144750Y0110198D02*
X0195750Y0110198D01*
X0195750Y0110997D02*
X0144750Y0110997D01*
X0144750Y0111795D02*
X0195750Y0111795D01*
X0195750Y0112594D02*
X0144750Y0112594D01*
X0144750Y0113392D02*
X0195750Y0113392D01*
X0195750Y0114191D02*
X0144750Y0114191D01*
X0144750Y0114989D02*
X0195750Y0114989D01*
X0195750Y0115788D02*
X0144750Y0115788D01*
X0144750Y0116586D02*
X0195750Y0116586D01*
X0195750Y0117385D02*
X0144750Y0117385D01*
X0144750Y0118183D02*
X0195750Y0118183D01*
X0195750Y0118982D02*
X0144750Y0118982D01*
X0144750Y0119780D02*
X0195750Y0119780D01*
X0195750Y0120579D02*
X0144750Y0120579D01*
X0144750Y0121377D02*
X0195750Y0121377D01*
X0195750Y0122176D02*
X0144750Y0122176D01*
X0144750Y0122974D02*
X0195750Y0122974D01*
X0195750Y0123773D02*
X0144750Y0123773D01*
X0144750Y0124571D02*
X0195750Y0124571D01*
X0195750Y0125370D02*
X0144750Y0125370D01*
X0144750Y0126168D02*
X0195750Y0126168D01*
X0195750Y0126967D02*
X0144750Y0126967D01*
X0144750Y0127765D02*
X0195750Y0127765D01*
X0195750Y0128564D02*
X0144750Y0128564D01*
X0144750Y0129362D02*
X0195750Y0129362D01*
X0195739Y0130161D02*
X0144761Y0130161D01*
X0144756Y0130959D02*
X0195744Y0130959D01*
X0195713Y0131758D02*
X0144787Y0131758D01*
X0144818Y0132556D02*
X0195682Y0132556D01*
X0195555Y0133355D02*
X0144945Y0133355D01*
X0145116Y0134153D02*
X0195384Y0134153D01*
X0195213Y0134952D02*
X0145287Y0134952D01*
X0145458Y0135751D02*
X0195042Y0135751D01*
X0194871Y0136549D02*
X0145629Y0136549D01*
X0145950Y0137348D02*
X0194550Y0137348D01*
X0194173Y0138146D02*
X0146327Y0138146D01*
X0146703Y0138945D02*
X0193796Y0138945D01*
X0193420Y0139743D02*
X0147080Y0139743D01*
X0147496Y0140542D02*
X0193004Y0140542D01*
X0192371Y0141340D02*
X0148129Y0141340D01*
X0148762Y0142139D02*
X0191738Y0142139D01*
X0191104Y0142937D02*
X0149396Y0142937D01*
X0150098Y0143736D02*
X0190402Y0143736D01*
X0189395Y0144534D02*
X0151105Y0144534D01*
X0152112Y0145333D02*
X0188388Y0145333D01*
X0187355Y0146131D02*
X0153145Y0146131D01*
X0154838Y0146930D02*
X0185662Y0146930D01*
X0183969Y0147728D02*
X0156530Y0147728D01*
X0160011Y0148527D02*
X0180489Y0148527D01*
X0189078Y0158003D02*
X0191136Y0157150D01*
X0193364Y0157150D01*
X0195422Y0158003D01*
X0195750Y0158330D01*
X0195750Y0154750D01*
X0144750Y0154750D01*
X0144750Y0158330D01*
X0145078Y0158003D01*
X0147136Y0157150D01*
X0149364Y0157150D01*
X0151422Y0158003D01*
X0152997Y0159578D01*
X0153850Y0161636D01*
X0153850Y0163864D01*
X0152997Y0165922D01*
X0151422Y0167497D01*
X0149364Y0168350D01*
X0147136Y0168350D01*
X0145078Y0167497D01*
X0144750Y0167170D01*
X0144750Y0191943D01*
X0144765Y0191959D01*
X0144750Y0192769D01*
X0144750Y0192796D01*
X0144828Y0194811D01*
X0145675Y0198764D01*
X0147400Y0202420D01*
X0149912Y0205588D01*
X0153080Y0208100D01*
X0156736Y0209825D01*
X0160689Y0210672D01*
X0162704Y0210750D01*
X0162731Y0210750D01*
X0163541Y0210735D01*
X0163557Y0210750D01*
X0176943Y0210750D01*
X0176959Y0210735D01*
X0177769Y0210750D01*
X0177796Y0210750D01*
X0179811Y0210672D01*
X0183764Y0209825D01*
X0187420Y0208100D01*
X0190588Y0205588D01*
X0193100Y0202420D01*
X0194825Y0198764D01*
X0195672Y0194811D01*
X0195750Y0192796D01*
X0195750Y0192769D01*
X0195735Y0191959D01*
X0195750Y0191943D01*
X0195750Y0167170D01*
X0195422Y0167497D01*
X0193364Y0168350D01*
X0191136Y0168350D01*
X0189078Y0167497D01*
X0187503Y0165922D01*
X0186650Y0163864D01*
X0186650Y0161636D01*
X0187503Y0159578D01*
X0189078Y0158003D01*
X0188972Y0158109D02*
X0151528Y0158109D01*
X0152327Y0158907D02*
X0188173Y0158907D01*
X0187450Y0159706D02*
X0153050Y0159706D01*
X0153381Y0160504D02*
X0187119Y0160504D01*
X0186788Y0161303D02*
X0153712Y0161303D01*
X0153850Y0162101D02*
X0186650Y0162101D01*
X0186650Y0162900D02*
X0153850Y0162900D01*
X0153850Y0163698D02*
X0186650Y0163698D01*
X0186912Y0164497D02*
X0153588Y0164497D01*
X0153257Y0165295D02*
X0187243Y0165295D01*
X0187674Y0166094D02*
X0152826Y0166094D01*
X0152027Y0166892D02*
X0188473Y0166892D01*
X0189545Y0167691D02*
X0150955Y0167691D01*
X0145545Y0167691D02*
X0144750Y0167691D01*
X0144750Y0168489D02*
X0195750Y0168489D01*
X0195750Y0167691D02*
X0194955Y0167691D01*
X0195750Y0169288D02*
X0144750Y0169288D01*
X0144750Y0170087D02*
X0195750Y0170087D01*
X0195750Y0170885D02*
X0144750Y0170885D01*
X0144750Y0171684D02*
X0195750Y0171684D01*
X0195750Y0172482D02*
X0144750Y0172482D01*
X0144750Y0173281D02*
X0195750Y0173281D01*
X0195750Y0174079D02*
X0144750Y0174079D01*
X0144750Y0174878D02*
X0195750Y0174878D01*
X0195750Y0175676D02*
X0144750Y0175676D01*
X0144750Y0176475D02*
X0195750Y0176475D01*
X0195750Y0177273D02*
X0144750Y0177273D01*
X0144750Y0178072D02*
X0195750Y0178072D01*
X0195750Y0178870D02*
X0144750Y0178870D01*
X0144750Y0179669D02*
X0195750Y0179669D01*
X0195750Y0180467D02*
X0144750Y0180467D01*
X0144750Y0181266D02*
X0195750Y0181266D01*
X0195750Y0182064D02*
X0144750Y0182064D01*
X0144750Y0182863D02*
X0195750Y0182863D01*
X0195750Y0183661D02*
X0144750Y0183661D01*
X0144750Y0184460D02*
X0195750Y0184460D01*
X0195750Y0185258D02*
X0144750Y0185258D01*
X0144750Y0186057D02*
X0195750Y0186057D01*
X0195750Y0186855D02*
X0144750Y0186855D01*
X0144750Y0187654D02*
X0195750Y0187654D01*
X0195750Y0188452D02*
X0144750Y0188452D01*
X0144750Y0189251D02*
X0195750Y0189251D01*
X0195750Y0190049D02*
X0144750Y0190049D01*
X0144750Y0190848D02*
X0195750Y0190848D01*
X0195750Y0191646D02*
X0144750Y0191646D01*
X0144756Y0192445D02*
X0195744Y0192445D01*
X0195733Y0193243D02*
X0144767Y0193243D01*
X0144798Y0194042D02*
X0195702Y0194042D01*
X0195666Y0194840D02*
X0144834Y0194840D01*
X0145005Y0195639D02*
X0195495Y0195639D01*
X0195324Y0196437D02*
X0145176Y0196437D01*
X0145348Y0197236D02*
X0195152Y0197236D01*
X0194981Y0198034D02*
X0145519Y0198034D01*
X0145707Y0198833D02*
X0194793Y0198833D01*
X0194416Y0199631D02*
X0146084Y0199631D01*
X0146461Y0200430D02*
X0194039Y0200430D01*
X0193663Y0201228D02*
X0146837Y0201228D01*
X0147214Y0202027D02*
X0193286Y0202027D01*
X0192779Y0202825D02*
X0147721Y0202825D01*
X0148354Y0203624D02*
X0192146Y0203624D01*
X0191512Y0204422D02*
X0148988Y0204422D01*
X0149621Y0205221D02*
X0190879Y0205221D01*
X0190044Y0206020D02*
X0150456Y0206020D01*
X0151463Y0206818D02*
X0189037Y0206818D01*
X0188030Y0207617D02*
X0152470Y0207617D01*
X0153747Y0208415D02*
X0186753Y0208415D01*
X0185060Y0209214D02*
X0155440Y0209214D01*
X0157609Y0210012D02*
X0182891Y0210012D01*
X0188688Y0220393D02*
X0151812Y0220393D01*
X0152611Y0221191D02*
X0187889Y0221191D01*
X0187332Y0221990D02*
X0153168Y0221990D01*
X0153499Y0222788D02*
X0187001Y0222788D01*
X0186670Y0223587D02*
X0153830Y0223587D01*
X0153850Y0224385D02*
X0186650Y0224385D01*
X0186650Y0225184D02*
X0153850Y0225184D01*
X0153801Y0225982D02*
X0186699Y0225982D01*
X0187030Y0226781D02*
X0153470Y0226781D01*
X0153139Y0227579D02*
X0187361Y0227579D01*
X0187958Y0228378D02*
X0152542Y0228378D01*
X0151743Y0229176D02*
X0188757Y0229176D01*
X0190230Y0229975D02*
X0150270Y0229975D01*
X0150436Y0219594D02*
X0190064Y0219594D01*
X0138750Y0219594D02*
X0137436Y0219594D01*
X0129753Y0208415D02*
X0096747Y0208415D01*
X0095470Y0207617D02*
X0131030Y0207617D01*
X0132037Y0206818D02*
X0094463Y0206818D01*
X0093456Y0206020D02*
X0133044Y0206020D01*
X0128060Y0209214D02*
X0098440Y0209214D01*
X0100609Y0210012D02*
X0125891Y0210012D01*
X0138528Y0158109D02*
X0138750Y0158109D01*
X0144750Y0158109D02*
X0144972Y0158109D01*
X0144750Y0157310D02*
X0146749Y0157310D01*
X0144750Y0156512D02*
X0195750Y0156512D01*
X0195750Y0157310D02*
X0193751Y0157310D01*
X0195528Y0158109D02*
X0195750Y0158109D01*
X0195750Y0155713D02*
X0144750Y0155713D01*
X0144750Y0154915D02*
X0195750Y0154915D01*
X0190749Y0157310D02*
X0149751Y0157310D01*
X0202675Y0136764D02*
X0201828Y0132811D01*
X0201750Y0130796D01*
X0201750Y0130769D01*
X0201765Y0129959D01*
X0201750Y0129943D01*
X0201750Y0105170D01*
X0202078Y0105497D01*
X0204136Y0106350D01*
X0206364Y0106350D01*
X0208422Y0105497D01*
X0209997Y0103922D01*
X0210850Y0101864D01*
X0210850Y0099636D01*
X0209997Y0097578D01*
X0208422Y0096003D01*
X0206364Y0095150D01*
X0204136Y0095150D01*
X0202078Y0096003D01*
X0201750Y0096330D01*
X0201750Y0092750D01*
X0252750Y0092750D01*
X0252750Y0096330D01*
X0252422Y0096003D01*
X0250364Y0095150D01*
X0248136Y0095150D01*
X0246078Y0096003D01*
X0244503Y0097578D01*
X0243650Y0099636D01*
X0243650Y0101864D01*
X0244503Y0103922D01*
X0246078Y0105497D01*
X0248136Y0106350D01*
X0250364Y0106350D01*
X0252422Y0105497D01*
X0252750Y0105170D01*
X0252750Y0129943D01*
X0252735Y0129959D01*
X0252750Y0130769D01*
X0252750Y0130796D01*
X0252672Y0132811D01*
X0251825Y0136764D01*
X0250100Y0140420D01*
X0247588Y0143588D01*
X0244420Y0146100D01*
X0240764Y0147825D01*
X0236811Y0148672D01*
X0234796Y0148750D01*
X0234769Y0148750D01*
X0233959Y0148735D01*
X0233943Y0148750D01*
X0220557Y0148750D01*
X0220541Y0148735D01*
X0219731Y0148750D01*
X0219704Y0148750D01*
X0217689Y0148672D01*
X0213736Y0147825D01*
X0210080Y0146100D01*
X0206912Y0143588D01*
X0204400Y0140420D01*
X0202675Y0136764D01*
X0202629Y0136549D02*
X0251871Y0136549D01*
X0252042Y0135751D02*
X0202458Y0135751D01*
X0202287Y0134952D02*
X0252213Y0134952D01*
X0252384Y0134153D02*
X0202116Y0134153D01*
X0201945Y0133355D02*
X0252555Y0133355D01*
X0252682Y0132556D02*
X0201818Y0132556D01*
X0201787Y0131758D02*
X0252713Y0131758D01*
X0252744Y0130959D02*
X0201756Y0130959D01*
X0201761Y0130161D02*
X0252739Y0130161D01*
X0252750Y0129362D02*
X0201750Y0129362D01*
X0201750Y0128564D02*
X0252750Y0128564D01*
X0252750Y0127765D02*
X0201750Y0127765D01*
X0201750Y0126967D02*
X0252750Y0126967D01*
X0252750Y0126168D02*
X0201750Y0126168D01*
X0201750Y0125370D02*
X0252750Y0125370D01*
X0252750Y0124571D02*
X0201750Y0124571D01*
X0201750Y0123773D02*
X0252750Y0123773D01*
X0252750Y0122974D02*
X0201750Y0122974D01*
X0201750Y0122176D02*
X0252750Y0122176D01*
X0252750Y0121377D02*
X0201750Y0121377D01*
X0201750Y0120579D02*
X0252750Y0120579D01*
X0252750Y0119780D02*
X0201750Y0119780D01*
X0201750Y0118982D02*
X0252750Y0118982D01*
X0252750Y0118183D02*
X0201750Y0118183D01*
X0201750Y0117385D02*
X0252750Y0117385D01*
X0252750Y0116586D02*
X0201750Y0116586D01*
X0201750Y0115788D02*
X0252750Y0115788D01*
X0252750Y0114989D02*
X0201750Y0114989D01*
X0201750Y0114191D02*
X0252750Y0114191D01*
X0252750Y0113392D02*
X0201750Y0113392D01*
X0201750Y0112594D02*
X0252750Y0112594D01*
X0252750Y0111795D02*
X0201750Y0111795D01*
X0201750Y0110997D02*
X0252750Y0110997D01*
X0252750Y0110198D02*
X0201750Y0110198D01*
X0201750Y0109400D02*
X0252750Y0109400D01*
X0252750Y0108601D02*
X0201750Y0108601D01*
X0201750Y0107803D02*
X0252750Y0107803D01*
X0252750Y0107004D02*
X0201750Y0107004D01*
X0201750Y0106206D02*
X0203787Y0106206D01*
X0201988Y0105407D02*
X0201750Y0105407D01*
X0206712Y0106206D02*
X0247787Y0106206D01*
X0245987Y0105407D02*
X0208512Y0105407D01*
X0209311Y0104609D02*
X0245189Y0104609D01*
X0244456Y0103810D02*
X0210044Y0103810D01*
X0210375Y0103012D02*
X0244125Y0103012D01*
X0243795Y0102213D02*
X0210705Y0102213D01*
X0210850Y0101415D02*
X0243650Y0101415D01*
X0243650Y0100616D02*
X0210850Y0100616D01*
X0210850Y0099818D02*
X0243650Y0099818D01*
X0243906Y0099019D02*
X0210594Y0099019D01*
X0210264Y0098220D02*
X0244236Y0098220D01*
X0244658Y0097422D02*
X0209842Y0097422D01*
X0209043Y0096623D02*
X0245457Y0096623D01*
X0246507Y0095825D02*
X0207993Y0095825D01*
X0202507Y0095825D02*
X0201750Y0095825D01*
X0201750Y0095026D02*
X0252750Y0095026D01*
X0252750Y0094228D02*
X0201750Y0094228D01*
X0201750Y0093429D02*
X0252750Y0093429D01*
X0252750Y0095825D02*
X0251993Y0095825D01*
X0244420Y0084100D02*
X0240764Y0085825D01*
X0236811Y0086672D01*
X0234796Y0086750D01*
X0234769Y0086750D01*
X0233959Y0086735D01*
X0233943Y0086750D01*
X0220557Y0086750D01*
X0220541Y0086735D01*
X0219731Y0086750D01*
X0219704Y0086750D01*
X0217689Y0086672D01*
X0213736Y0085825D01*
X0210080Y0084100D01*
X0206912Y0081588D01*
X0204400Y0078420D01*
X0202675Y0074764D01*
X0201828Y0070811D01*
X0201750Y0068796D01*
X0201750Y0068769D01*
X0201765Y0067959D01*
X0201750Y0067943D01*
X0201750Y0043170D01*
X0202078Y0043497D01*
X0204136Y0044350D01*
X0206364Y0044350D01*
X0208422Y0043497D01*
X0209997Y0041922D01*
X0210850Y0039864D01*
X0210850Y0037636D01*
X0209997Y0035578D01*
X0208422Y0034003D01*
X0206364Y0033150D01*
X0204136Y0033150D01*
X0202078Y0034003D01*
X0201750Y0034330D01*
X0201750Y0030750D01*
X0252750Y0030750D01*
X0252750Y0034330D01*
X0252422Y0034003D01*
X0250364Y0033150D01*
X0248136Y0033150D01*
X0246078Y0034003D01*
X0244503Y0035578D01*
X0243650Y0037636D01*
X0243650Y0039864D01*
X0244503Y0041922D01*
X0246078Y0043497D01*
X0248136Y0044350D01*
X0250364Y0044350D01*
X0252422Y0043497D01*
X0252750Y0043170D01*
X0252750Y0067943D01*
X0252735Y0067959D01*
X0252750Y0068769D01*
X0252750Y0068796D01*
X0252672Y0070811D01*
X0251825Y0074764D01*
X0250100Y0078420D01*
X0247588Y0081588D01*
X0244420Y0084100D01*
X0244739Y0083847D02*
X0209761Y0083847D01*
X0208754Y0083049D02*
X0245746Y0083049D01*
X0246753Y0082250D02*
X0207747Y0082250D01*
X0206804Y0081452D02*
X0247696Y0081452D01*
X0248329Y0080653D02*
X0206171Y0080653D01*
X0205537Y0079855D02*
X0248963Y0079855D01*
X0249596Y0079056D02*
X0204904Y0079056D01*
X0204323Y0078258D02*
X0250177Y0078258D01*
X0250554Y0077459D02*
X0203946Y0077459D01*
X0203570Y0076661D02*
X0250930Y0076661D01*
X0251307Y0075862D02*
X0203193Y0075862D01*
X0202816Y0075064D02*
X0251684Y0075064D01*
X0251932Y0074265D02*
X0202568Y0074265D01*
X0202397Y0073467D02*
X0252103Y0073467D01*
X0252274Y0072668D02*
X0202226Y0072668D01*
X0202055Y0071870D02*
X0252445Y0071870D01*
X0252616Y0071071D02*
X0201884Y0071071D01*
X0201807Y0070273D02*
X0252693Y0070273D01*
X0252724Y0069474D02*
X0201776Y0069474D01*
X0201752Y0068676D02*
X0252748Y0068676D01*
X0252750Y0067877D02*
X0201750Y0067877D01*
X0201750Y0067079D02*
X0252750Y0067079D01*
X0252750Y0066280D02*
X0201750Y0066280D01*
X0201750Y0065482D02*
X0252750Y0065482D01*
X0252750Y0064683D02*
X0201750Y0064683D01*
X0201750Y0063884D02*
X0252750Y0063884D01*
X0252750Y0063086D02*
X0201750Y0063086D01*
X0201750Y0062287D02*
X0252750Y0062287D01*
X0252750Y0061489D02*
X0201750Y0061489D01*
X0201750Y0060690D02*
X0252750Y0060690D01*
X0252750Y0059892D02*
X0201750Y0059892D01*
X0201750Y0059093D02*
X0252750Y0059093D01*
X0252750Y0058295D02*
X0201750Y0058295D01*
X0201750Y0057496D02*
X0252750Y0057496D01*
X0252750Y0056698D02*
X0201750Y0056698D01*
X0201750Y0055899D02*
X0252750Y0055899D01*
X0252750Y0055101D02*
X0201750Y0055101D01*
X0201750Y0054302D02*
X0252750Y0054302D01*
X0252750Y0053504D02*
X0201750Y0053504D01*
X0201750Y0052705D02*
X0252750Y0052705D01*
X0252750Y0051907D02*
X0201750Y0051907D01*
X0201750Y0051108D02*
X0252750Y0051108D01*
X0252750Y0050310D02*
X0201750Y0050310D01*
X0201750Y0049511D02*
X0252750Y0049511D01*
X0252750Y0048713D02*
X0201750Y0048713D01*
X0201750Y0047914D02*
X0252750Y0047914D01*
X0252750Y0047116D02*
X0201750Y0047116D01*
X0201750Y0046317D02*
X0252750Y0046317D01*
X0252750Y0045519D02*
X0201750Y0045519D01*
X0201750Y0044720D02*
X0252750Y0044720D01*
X0252750Y0043922D02*
X0251398Y0043922D01*
X0247102Y0043922D02*
X0207398Y0043922D01*
X0208796Y0043123D02*
X0245704Y0043123D01*
X0244905Y0042325D02*
X0209595Y0042325D01*
X0210161Y0041526D02*
X0244339Y0041526D01*
X0244008Y0040728D02*
X0210492Y0040728D01*
X0210823Y0039929D02*
X0243677Y0039929D01*
X0243650Y0039131D02*
X0210850Y0039131D01*
X0210850Y0038332D02*
X0243650Y0038332D01*
X0243692Y0037534D02*
X0210808Y0037534D01*
X0210477Y0036735D02*
X0244023Y0036735D01*
X0244354Y0035937D02*
X0210146Y0035937D01*
X0209558Y0035138D02*
X0244942Y0035138D01*
X0245741Y0034340D02*
X0208759Y0034340D01*
X0207308Y0033541D02*
X0247192Y0033541D01*
X0251308Y0033541D02*
X0252750Y0033541D01*
X0252750Y0032743D02*
X0201750Y0032743D01*
X0201750Y0033541D02*
X0203192Y0033541D01*
X0201750Y0031944D02*
X0252750Y0031944D01*
X0252750Y0031146D02*
X0201750Y0031146D01*
X0201750Y0043922D02*
X0203102Y0043922D01*
X0211236Y0084646D02*
X0243264Y0084646D01*
X0241571Y0085444D02*
X0212929Y0085444D01*
X0215686Y0086243D02*
X0238814Y0086243D01*
X0260193Y0075862D02*
X0308307Y0075862D01*
X0308684Y0075064D02*
X0259816Y0075064D01*
X0259675Y0074764D02*
X0261400Y0078420D01*
X0263912Y0081588D01*
X0267080Y0084100D01*
X0270736Y0085825D01*
X0274689Y0086672D01*
X0276704Y0086750D01*
X0276731Y0086750D01*
X0277541Y0086735D01*
X0277557Y0086750D01*
X0290943Y0086750D01*
X0290959Y0086735D01*
X0291769Y0086750D01*
X0291796Y0086750D01*
X0293811Y0086672D01*
X0297764Y0085825D01*
X0301420Y0084100D01*
X0304588Y0081588D01*
X0307100Y0078420D01*
X0308825Y0074764D01*
X0309672Y0070811D01*
X0309750Y0068796D01*
X0309750Y0068769D01*
X0309735Y0067959D01*
X0309750Y0067943D01*
X0309750Y0043170D01*
X0309422Y0043497D01*
X0307364Y0044350D01*
X0305136Y0044350D01*
X0303078Y0043497D01*
X0301503Y0041922D01*
X0300650Y0039864D01*
X0300650Y0037636D01*
X0301503Y0035578D01*
X0303078Y0034003D01*
X0305136Y0033150D01*
X0307364Y0033150D01*
X0309422Y0034003D01*
X0309750Y0034330D01*
X0309750Y0030750D01*
X0258750Y0030750D01*
X0258750Y0034330D01*
X0259078Y0034003D01*
X0261136Y0033150D01*
X0263364Y0033150D01*
X0265422Y0034003D01*
X0266997Y0035578D01*
X0267850Y0037636D01*
X0267850Y0039864D01*
X0266997Y0041922D01*
X0265422Y0043497D01*
X0263364Y0044350D01*
X0261136Y0044350D01*
X0259078Y0043497D01*
X0258750Y0043170D01*
X0258750Y0067943D01*
X0258765Y0067959D01*
X0258750Y0068769D01*
X0258750Y0068796D01*
X0258828Y0070811D01*
X0259675Y0074764D01*
X0259568Y0074265D02*
X0308932Y0074265D01*
X0309103Y0073467D02*
X0259397Y0073467D01*
X0259226Y0072668D02*
X0309274Y0072668D01*
X0309445Y0071870D02*
X0259055Y0071870D01*
X0258884Y0071071D02*
X0309616Y0071071D01*
X0309693Y0070273D02*
X0258807Y0070273D01*
X0258776Y0069474D02*
X0309724Y0069474D01*
X0309748Y0068676D02*
X0258752Y0068676D01*
X0258750Y0067877D02*
X0309750Y0067877D01*
X0309750Y0067079D02*
X0258750Y0067079D01*
X0258750Y0066280D02*
X0309750Y0066280D01*
X0309750Y0065482D02*
X0258750Y0065482D01*
X0258750Y0064683D02*
X0309750Y0064683D01*
X0309750Y0063884D02*
X0258750Y0063884D01*
X0258750Y0063086D02*
X0309750Y0063086D01*
X0309750Y0062287D02*
X0258750Y0062287D01*
X0258750Y0061489D02*
X0309750Y0061489D01*
X0309750Y0060690D02*
X0258750Y0060690D01*
X0258750Y0059892D02*
X0309750Y0059892D01*
X0309750Y0059093D02*
X0258750Y0059093D01*
X0258750Y0058295D02*
X0309750Y0058295D01*
X0309750Y0057496D02*
X0258750Y0057496D01*
X0258750Y0056698D02*
X0309750Y0056698D01*
X0309750Y0055899D02*
X0258750Y0055899D01*
X0258750Y0055101D02*
X0309750Y0055101D01*
X0309750Y0054302D02*
X0258750Y0054302D01*
X0258750Y0053504D02*
X0309750Y0053504D01*
X0309750Y0052705D02*
X0258750Y0052705D01*
X0258750Y0051907D02*
X0309750Y0051907D01*
X0309750Y0051108D02*
X0258750Y0051108D01*
X0258750Y0050310D02*
X0309750Y0050310D01*
X0309750Y0049511D02*
X0258750Y0049511D01*
X0258750Y0048713D02*
X0309750Y0048713D01*
X0309750Y0047914D02*
X0258750Y0047914D01*
X0258750Y0047116D02*
X0309750Y0047116D01*
X0309750Y0046317D02*
X0258750Y0046317D01*
X0258750Y0045519D02*
X0309750Y0045519D01*
X0309750Y0044720D02*
X0258750Y0044720D01*
X0258750Y0043922D02*
X0260102Y0043922D01*
X0264398Y0043922D02*
X0304102Y0043922D01*
X0302704Y0043123D02*
X0265796Y0043123D01*
X0266595Y0042325D02*
X0301905Y0042325D01*
X0301339Y0041526D02*
X0267161Y0041526D01*
X0267492Y0040728D02*
X0301008Y0040728D01*
X0300677Y0039929D02*
X0267823Y0039929D01*
X0267850Y0039131D02*
X0300650Y0039131D01*
X0300650Y0038332D02*
X0267850Y0038332D01*
X0267808Y0037534D02*
X0300692Y0037534D01*
X0301023Y0036735D02*
X0267477Y0036735D01*
X0267146Y0035937D02*
X0301354Y0035937D01*
X0301942Y0035138D02*
X0266558Y0035138D01*
X0265759Y0034340D02*
X0302741Y0034340D01*
X0304192Y0033541D02*
X0264308Y0033541D01*
X0260192Y0033541D02*
X0258750Y0033541D01*
X0258750Y0032743D02*
X0309750Y0032743D01*
X0309750Y0033541D02*
X0308308Y0033541D01*
X0309750Y0031944D02*
X0258750Y0031944D01*
X0258750Y0031146D02*
X0309750Y0031146D01*
X0315750Y0031146D02*
X0366750Y0031146D01*
X0366750Y0030750D02*
X0315750Y0030750D01*
X0315750Y0034330D01*
X0316078Y0034003D01*
X0318136Y0033150D01*
X0320364Y0033150D01*
X0322422Y0034003D01*
X0323997Y0035578D01*
X0324850Y0037636D01*
X0324850Y0039864D01*
X0323997Y0041922D01*
X0322422Y0043497D01*
X0320364Y0044350D01*
X0318136Y0044350D01*
X0316078Y0043497D01*
X0315750Y0043170D01*
X0315750Y0067943D01*
X0315765Y0067959D01*
X0315750Y0068769D01*
X0315750Y0068796D01*
X0315828Y0070811D01*
X0316675Y0074764D01*
X0318400Y0078420D01*
X0320912Y0081588D01*
X0324080Y0084100D01*
X0327736Y0085825D01*
X0331689Y0086672D01*
X0333704Y0086750D01*
X0333731Y0086750D01*
X0334541Y0086735D01*
X0334557Y0086750D01*
X0347943Y0086750D01*
X0347959Y0086735D01*
X0348769Y0086750D01*
X0348796Y0086750D01*
X0350811Y0086672D01*
X0354764Y0085825D01*
X0358420Y0084100D01*
X0361588Y0081588D01*
X0364100Y0078420D01*
X0365825Y0074764D01*
X0366672Y0070811D01*
X0366750Y0068796D01*
X0366750Y0068769D01*
X0366735Y0067959D01*
X0366750Y0067943D01*
X0366750Y0043170D01*
X0366422Y0043497D01*
X0364364Y0044350D01*
X0362136Y0044350D01*
X0360078Y0043497D01*
X0358503Y0041922D01*
X0357650Y0039864D01*
X0357650Y0037636D01*
X0358503Y0035578D01*
X0360078Y0034003D01*
X0362136Y0033150D01*
X0364364Y0033150D01*
X0366422Y0034003D01*
X0366750Y0034330D01*
X0366750Y0030750D01*
X0366750Y0031944D02*
X0315750Y0031944D01*
X0315750Y0032743D02*
X0366750Y0032743D01*
X0366750Y0033541D02*
X0365308Y0033541D01*
X0361192Y0033541D02*
X0321308Y0033541D01*
X0322759Y0034340D02*
X0359741Y0034340D01*
X0358942Y0035138D02*
X0323558Y0035138D01*
X0324146Y0035937D02*
X0358354Y0035937D01*
X0358023Y0036735D02*
X0324477Y0036735D01*
X0324808Y0037534D02*
X0357692Y0037534D01*
X0357650Y0038332D02*
X0324850Y0038332D01*
X0324850Y0039131D02*
X0357650Y0039131D01*
X0357677Y0039929D02*
X0324823Y0039929D01*
X0324492Y0040728D02*
X0358008Y0040728D01*
X0358339Y0041526D02*
X0324161Y0041526D01*
X0323595Y0042325D02*
X0358905Y0042325D01*
X0359704Y0043123D02*
X0322796Y0043123D01*
X0321398Y0043922D02*
X0361102Y0043922D01*
X0365398Y0043922D02*
X0366750Y0043922D01*
X0366750Y0044720D02*
X0315750Y0044720D01*
X0315750Y0043922D02*
X0317102Y0043922D01*
X0315750Y0045519D02*
X0366750Y0045519D01*
X0366750Y0046317D02*
X0315750Y0046317D01*
X0315750Y0047116D02*
X0366750Y0047116D01*
X0366750Y0047914D02*
X0315750Y0047914D01*
X0315750Y0048713D02*
X0366750Y0048713D01*
X0366750Y0049511D02*
X0315750Y0049511D01*
X0315750Y0050310D02*
X0366750Y0050310D01*
X0366750Y0051108D02*
X0315750Y0051108D01*
X0315750Y0051907D02*
X0366750Y0051907D01*
X0366750Y0052705D02*
X0315750Y0052705D01*
X0315750Y0053504D02*
X0366750Y0053504D01*
X0366750Y0054302D02*
X0315750Y0054302D01*
X0315750Y0055101D02*
X0366750Y0055101D01*
X0366750Y0055899D02*
X0315750Y0055899D01*
X0315750Y0056698D02*
X0366750Y0056698D01*
X0366750Y0057496D02*
X0315750Y0057496D01*
X0315750Y0058295D02*
X0366750Y0058295D01*
X0366750Y0059093D02*
X0315750Y0059093D01*
X0315750Y0059892D02*
X0366750Y0059892D01*
X0366750Y0060690D02*
X0315750Y0060690D01*
X0315750Y0061489D02*
X0366750Y0061489D01*
X0366750Y0062287D02*
X0315750Y0062287D01*
X0315750Y0063086D02*
X0366750Y0063086D01*
X0366750Y0063884D02*
X0315750Y0063884D01*
X0315750Y0064683D02*
X0366750Y0064683D01*
X0366750Y0065482D02*
X0315750Y0065482D01*
X0315750Y0066280D02*
X0366750Y0066280D01*
X0366750Y0067079D02*
X0315750Y0067079D01*
X0315750Y0067877D02*
X0366750Y0067877D01*
X0366748Y0068676D02*
X0315752Y0068676D01*
X0315776Y0069474D02*
X0366724Y0069474D01*
X0366693Y0070273D02*
X0315807Y0070273D01*
X0315884Y0071071D02*
X0366616Y0071071D01*
X0366445Y0071870D02*
X0316055Y0071870D01*
X0316226Y0072668D02*
X0366274Y0072668D01*
X0366103Y0073467D02*
X0316397Y0073467D01*
X0316568Y0074265D02*
X0365932Y0074265D01*
X0365684Y0075064D02*
X0316816Y0075064D01*
X0317193Y0075862D02*
X0365307Y0075862D01*
X0364930Y0076661D02*
X0317570Y0076661D01*
X0317946Y0077459D02*
X0364554Y0077459D01*
X0364177Y0078258D02*
X0318323Y0078258D01*
X0318904Y0079056D02*
X0363596Y0079056D01*
X0362963Y0079855D02*
X0319537Y0079855D01*
X0320171Y0080653D02*
X0362329Y0080653D01*
X0361696Y0081452D02*
X0320804Y0081452D01*
X0321747Y0082250D02*
X0360753Y0082250D01*
X0359746Y0083049D02*
X0322754Y0083049D01*
X0323761Y0083847D02*
X0358739Y0083847D01*
X0357264Y0084646D02*
X0325236Y0084646D01*
X0326929Y0085444D02*
X0355571Y0085444D01*
X0352814Y0086243D02*
X0329686Y0086243D01*
X0317788Y0106206D02*
X0315750Y0106206D01*
X0315750Y0105407D02*
X0315988Y0105407D01*
X0298571Y0085444D02*
X0269929Y0085444D01*
X0268236Y0084646D02*
X0300264Y0084646D01*
X0301739Y0083847D02*
X0266761Y0083847D01*
X0265754Y0083049D02*
X0302746Y0083049D01*
X0303753Y0082250D02*
X0264747Y0082250D01*
X0263804Y0081452D02*
X0304696Y0081452D01*
X0305329Y0080653D02*
X0263171Y0080653D01*
X0262537Y0079855D02*
X0305963Y0079855D01*
X0306596Y0079056D02*
X0261904Y0079056D01*
X0261323Y0078258D02*
X0307177Y0078258D01*
X0307554Y0077459D02*
X0260946Y0077459D01*
X0260570Y0076661D02*
X0307930Y0076661D01*
X0295814Y0086243D02*
X0272686Y0086243D01*
X0258988Y0105407D02*
X0258750Y0105407D01*
X0252750Y0105407D02*
X0252512Y0105407D01*
X0252750Y0106206D02*
X0250712Y0106206D01*
X0251550Y0137348D02*
X0202950Y0137348D01*
X0203327Y0138146D02*
X0251173Y0138146D01*
X0250796Y0138945D02*
X0203703Y0138945D01*
X0204080Y0139743D02*
X0250420Y0139743D01*
X0250004Y0140542D02*
X0204496Y0140542D01*
X0205129Y0141340D02*
X0249371Y0141340D01*
X0248738Y0142139D02*
X0205762Y0142139D01*
X0206396Y0142937D02*
X0248104Y0142937D01*
X0247402Y0143736D02*
X0207098Y0143736D01*
X0208105Y0144534D02*
X0246395Y0144534D01*
X0245388Y0145333D02*
X0209112Y0145333D01*
X0210145Y0146131D02*
X0244355Y0146131D01*
X0242662Y0146930D02*
X0211838Y0146930D01*
X0213530Y0147728D02*
X0240969Y0147728D01*
X0237489Y0148527D02*
X0217011Y0148527D01*
X0195750Y0095825D02*
X0194993Y0095825D01*
X0195750Y0095026D02*
X0144750Y0095026D01*
X0144750Y0094228D02*
X0195750Y0094228D01*
X0195750Y0093429D02*
X0144750Y0093429D01*
X0144750Y0095825D02*
X0145507Y0095825D01*
X0144988Y0105407D02*
X0144750Y0105407D01*
X0124814Y0086243D02*
X0101686Y0086243D01*
X0137398Y0043922D02*
X0138750Y0043922D01*
X0144750Y0033541D02*
X0146192Y0033541D01*
X0032192Y0033541D02*
X0030750Y0033541D01*
X0030750Y0229176D02*
X0030757Y0229176D01*
X0089218Y0261915D02*
X0137282Y0261915D01*
X0136905Y0262714D02*
X0089595Y0262714D01*
X0089971Y0263512D02*
X0136529Y0263512D01*
X0136152Y0264311D02*
X0090348Y0264311D01*
X0090946Y0265109D02*
X0135554Y0265109D01*
X0134921Y0265908D02*
X0091579Y0265908D01*
X0092213Y0266706D02*
X0134287Y0266706D01*
X0133654Y0267505D02*
X0092846Y0267505D01*
X0093814Y0268303D02*
X0132686Y0268303D01*
X0131679Y0269102D02*
X0094821Y0269102D01*
X0095828Y0269900D02*
X0130672Y0269900D01*
X0129151Y0270699D02*
X0097349Y0270699D01*
X0099041Y0271497D02*
X0127459Y0271497D01*
X0124566Y0272296D02*
X0101934Y0272296D01*
X0136584Y0292259D02*
X0138750Y0292259D01*
X0138750Y0291460D02*
X0138459Y0291460D01*
X0144750Y0281878D02*
X0145378Y0281878D01*
X0195459Y0291460D02*
X0195750Y0291460D01*
X0201750Y0281878D02*
X0202378Y0281878D01*
X0308398Y0043922D02*
X0309750Y0043922D01*
X0315750Y0033541D02*
X0317192Y0033541D01*
D11*
X0323750Y0048750D03*
X0318750Y0073750D03*
X0328750Y0083750D03*
X0350750Y0073750D03*
X0323750Y0110750D03*
X0318750Y0135750D03*
X0328750Y0145750D03*
X0350750Y0135750D03*
X0323750Y0172750D03*
X0318750Y0197750D03*
X0328750Y0207750D03*
X0350750Y0197750D03*
X0323750Y0234750D03*
X0318750Y0259750D03*
X0328750Y0269750D03*
X0350750Y0259750D03*
X0323750Y0296750D03*
X0318750Y0321750D03*
X0328750Y0331750D03*
X0350750Y0321750D03*
X0293750Y0321750D03*
X0271750Y0331750D03*
X0261750Y0321750D03*
X0236750Y0321750D03*
X0214750Y0331750D03*
X0204750Y0321750D03*
X0179750Y0321750D03*
X0157750Y0331750D03*
X0147750Y0321750D03*
X0122750Y0321750D03*
X0100750Y0331750D03*
X0090750Y0321750D03*
X0065750Y0321750D03*
X0043750Y0331750D03*
X0033750Y0321750D03*
X0038750Y0296750D03*
X0043750Y0269750D03*
X0033750Y0259750D03*
X0038750Y0234750D03*
X0065750Y0259750D03*
X0090750Y0259750D03*
X0100750Y0269750D03*
X0122750Y0259750D03*
X0147750Y0259750D03*
X0157750Y0269750D03*
X0179750Y0259750D03*
X0204750Y0259750D03*
X0214750Y0269750D03*
X0236750Y0259750D03*
X0261750Y0259750D03*
X0271750Y0269750D03*
X0293750Y0259750D03*
X0266750Y0234750D03*
X0271750Y0207750D03*
X0261750Y0197750D03*
X0236750Y0197750D03*
X0214750Y0207750D03*
X0204750Y0197750D03*
X0179750Y0197750D03*
X0157750Y0207750D03*
X0147750Y0197750D03*
X0122750Y0197750D03*
X0100750Y0207750D03*
X0090750Y0197750D03*
X0065750Y0197750D03*
X0043750Y0207750D03*
X0033750Y0197750D03*
X0038750Y0172750D03*
X0043750Y0145750D03*
X0033750Y0135750D03*
X0038750Y0110750D03*
X0065750Y0135750D03*
X0090750Y0135750D03*
X0100750Y0145750D03*
X0122750Y0135750D03*
X0147750Y0135750D03*
X0157750Y0145750D03*
X0179750Y0135750D03*
X0204750Y0135750D03*
X0214750Y0145750D03*
X0236750Y0135750D03*
X0261750Y0135750D03*
X0271750Y0145750D03*
X0293750Y0135750D03*
X0266750Y0110750D03*
X0271750Y0083750D03*
X0261750Y0073750D03*
X0236750Y0073750D03*
X0214750Y0083750D03*
X0204750Y0073750D03*
X0179750Y0073750D03*
X0157750Y0083750D03*
X0147750Y0073750D03*
X0122750Y0073750D03*
X0100750Y0083750D03*
X0090750Y0073750D03*
X0065750Y0073750D03*
X0043750Y0083750D03*
X0033750Y0073750D03*
X0038750Y0048750D03*
X0095750Y0048750D03*
X0152750Y0048750D03*
X0209750Y0048750D03*
X0266750Y0048750D03*
X0293750Y0073750D03*
X0209750Y0110750D03*
X0152750Y0110750D03*
X0095750Y0110750D03*
X0095750Y0172750D03*
X0152750Y0172750D03*
X0209750Y0172750D03*
X0266750Y0172750D03*
X0293750Y0197750D03*
X0209750Y0234750D03*
X0152750Y0234750D03*
X0095750Y0234750D03*
X0095750Y0296750D03*
X0152750Y0296750D03*
X0209750Y0296750D03*
X0266750Y0296750D03*
M02*
