G75*
%MOIN*%
%OFA0B0*%
%FSLAX25Y25*%
%IPPOS*%
%LPD*%
%AMOC8*
5,1,8,0,0,1.08239X$1,22.5*
%
%ADD10C,0.08800*%
D10*
X0034250Y0038750D03*
X0078250Y0038750D03*
X0091250Y0038750D03*
X0135250Y0038750D03*
X0148250Y0038750D03*
X0192250Y0038750D03*
X0205250Y0038750D03*
X0249250Y0038750D03*
X0262250Y0038750D03*
X0306250Y0038750D03*
X0319250Y0038750D03*
X0363250Y0038750D03*
X0363250Y0100750D03*
X0319250Y0100750D03*
X0306250Y0100750D03*
X0262250Y0100750D03*
X0249250Y0100750D03*
X0205250Y0100750D03*
X0192250Y0100750D03*
X0148250Y0100750D03*
X0135250Y0100750D03*
X0091250Y0100750D03*
X0078250Y0100750D03*
X0034250Y0100750D03*
X0034250Y0162750D03*
X0078250Y0162750D03*
X0091250Y0162750D03*
X0135250Y0162750D03*
X0148250Y0162750D03*
X0192250Y0162750D03*
X0205250Y0162750D03*
X0249250Y0162750D03*
X0262250Y0162750D03*
X0306250Y0162750D03*
X0319250Y0162750D03*
X0363250Y0162750D03*
X0363250Y0224750D03*
X0319250Y0224750D03*
X0306250Y0224750D03*
X0262250Y0224750D03*
X0249250Y0224750D03*
X0205250Y0224750D03*
X0192250Y0224750D03*
X0148250Y0224750D03*
X0135250Y0224750D03*
X0091250Y0224750D03*
X0078250Y0224750D03*
X0034250Y0224750D03*
X0034250Y0286750D03*
X0078250Y0286750D03*
X0091250Y0286750D03*
X0135250Y0286750D03*
X0148250Y0286750D03*
X0192250Y0286750D03*
X0205250Y0286750D03*
X0249250Y0286750D03*
X0262250Y0286750D03*
X0306250Y0286750D03*
X0319250Y0286750D03*
X0363250Y0286750D03*
M02*
