%
M48
M72
T01C0.0120
T02C0.0800
%
T01
X6496Y6893
X8443Y7593
X9246Y7893
X9496Y8393
X9996Y8393
X9396Y9343
X8996Y9125
X6996Y10393
X5996Y9393
X6496Y13093
X8443Y13793
X9246Y14093
X9496Y14593
X9996Y14593
X9396Y15543
X8996Y15325
X6996Y16593
X5996Y15593
X6496Y19293
X8443Y19993
X9246Y20293
X9496Y20793
X9996Y20793
X8996Y21525
X9396Y21743
X6996Y22793
X5996Y21793
X6496Y25493
X8443Y26193
X9246Y26493
X9496Y26993
X9996Y26993
X9396Y27943
X8996Y27725
X6996Y28993
X5996Y27993
X6496Y31693
X8443Y32393
X9246Y32693
X9496Y33193
X9996Y33193
X9396Y34143
X8996Y33925
X6996Y35193
X5996Y34193
X11696Y34193
X12696Y35193
X14696Y33925
X15096Y34143
X15196Y33193
X15696Y33193
X14946Y32693
X14143Y32393
X12196Y31693
X12696Y28993
X11696Y27993
X14143Y26193
X14946Y26493
X15196Y26993
X15696Y26993
X15096Y27943
X14696Y27725
X17396Y27993
X18396Y28993
X20396Y27725
X20796Y27943
X20896Y26993
X21396Y26993
X20646Y26493
X19843Y26193
X17896Y25493
X18396Y22793
X17396Y21793
X15696Y20793
X15196Y20793
X14946Y20293
X14143Y19993
X14696Y21525
X15096Y21743
X12696Y22793
X11696Y21793
X12196Y19293
X12696Y16593
X11696Y15593
X14143Y13793
X14946Y14093
X15196Y14593
X15696Y14593
X15096Y15543
X14696Y15325
X17396Y15593
X18396Y16593
X20396Y15325
X20796Y15543
X20896Y14593
X21396Y14593
X20646Y14093
X19843Y13793
X17896Y13093
X18396Y10393
X17396Y9393
X15696Y8393
X15196Y8393
X14946Y7893
X14143Y7593
X14696Y9125
X15096Y9343
X12696Y10393
X11696Y9393
X12196Y6893
X17896Y6893
X19843Y7593
X20646Y7893
X20896Y8393
X21396Y8393
X20796Y9343
X20396Y9125
X23096Y9393
X24096Y10393
X26096Y9125
X26496Y9343
X26596Y8393
X27096Y8393
X26346Y7893
X25543Y7593
X23596Y6893
X28796Y9393
X29796Y10393
X31796Y9125
X32196Y9343
X32296Y8393
X32796Y8393
X32046Y7893
X31243Y7593
X29296Y6893
X34496Y9393
X35496Y10393
X37496Y9125
X37896Y9343
X37996Y8393
X38496Y8393
X37746Y7893
X36943Y7593
X34996Y6893
X34996Y13093
X36943Y13793
X37746Y14093
X37996Y14593
X38496Y14593
X37896Y15543
X37496Y15325
X35496Y16593
X34496Y15593
X32796Y14593
X32296Y14593
X32046Y14093
X31243Y13793
X31796Y15325
X32196Y15543
X29796Y16593
X28796Y15593
X27096Y14593
X26596Y14593
X26346Y14093
X25543Y13793
X26096Y15325
X26496Y15543
X24096Y16593
X23096Y15593
X23596Y13093
X29296Y13093
X29296Y19293
X31243Y19993
X32046Y20293
X32296Y20793
X32796Y20793
X31796Y21525
X32196Y21743
X34496Y21793
X35496Y22793
X37496Y21525
X37896Y21743
X37996Y20793
X38496Y20793
X37746Y20293
X36943Y19993
X34996Y19293
X29796Y22793
X28796Y21793
X27096Y20793
X26596Y20793
X26346Y20293
X25543Y19993
X26096Y21525
X26496Y21743
X24096Y22793
X23096Y21793
X21396Y20793
X20896Y20793
X20646Y20293
X19843Y19993
X20396Y21525
X20796Y21743
X23596Y19293
X17896Y19293
X12196Y25493
X17896Y31693
X19843Y32393
X20646Y32693
X20896Y33193
X21396Y33193
X20796Y34143
X20396Y33925
X18396Y35193
X17396Y34193
X23096Y34193
X24096Y35193
X26096Y33925
X26496Y34143
X26596Y33193
X27096Y33193
X26346Y32693
X25543Y32393
X23596Y31693
X24096Y28993
X23096Y27993
X25543Y26193
X26346Y26493
X26596Y26993
X27096Y26993
X26496Y27943
X26096Y27725
X28796Y27993
X29796Y28993
X31796Y27725
X32196Y27943
X32296Y26993
X32796Y26993
X32046Y26493
X31243Y26193
X29296Y25493
X23596Y25493
X29296Y31693
X31243Y32393
X32046Y32693
X32296Y33193
X32796Y33193
X32196Y34143
X31796Y33925
X29796Y35193
X28796Y34193
X34496Y34193
X35496Y35193
X37496Y33925
X37896Y34143
X37996Y33193
X38496Y33193
X37746Y32693
X36943Y32393
X34996Y31693
X35496Y28993
X34496Y27993
X36943Y26193
X37746Y26493
X37996Y26993
X38496Y26993
X37896Y27943
X37496Y27725
X34996Y25493
X12196Y13093
T02
X6046Y5893
X10446Y5893
X11746Y5893
X16146Y5893
X17446Y5893
X21846Y5893
X23146Y5893
X27546Y5893
X28846Y5893
X33246Y5893
X34546Y5893
X38946Y5893
X38946Y12093
X34546Y12093
X33246Y12093
X28846Y12093
X27546Y12093
X23146Y12093
X21846Y12093
X17446Y12093
X16146Y12093
X11746Y12093
X10446Y12093
X6046Y12093
X6046Y18293
X10446Y18293
X11746Y18293
X16146Y18293
X17446Y18293
X21846Y18293
X23146Y18293
X27546Y18293
X28846Y18293
X33246Y18293
X34546Y18293
X38946Y18293
X38946Y24493
X34546Y24493
X33246Y24493
X28846Y24493
X27546Y24493
X23146Y24493
X21846Y24493
X17446Y24493
X16146Y24493
X11746Y24493
X10446Y24493
X6046Y24493
X6046Y30693
X10446Y30693
X11746Y30693
X16146Y30693
X17446Y30693
X21846Y30693
X23146Y30693
X27546Y30693
X28846Y30693
X33246Y30693
X34546Y30693
X38946Y30693
M30
