%
M48
M72
T01C0.0120
T02C0.0800
%
T01
X3875Y4875
X3375Y7375
X4375Y8375
X6575Y7375
X9075Y7375
X10075Y8375
X12275Y7375
X14775Y7375
X15775Y8375
X17975Y7375
X20475Y7375
X21475Y8375
X23675Y7375
X26175Y7375
X27175Y8375
X29375Y7375
X31875Y7375
X32875Y8375
X35075Y7375
X32375Y4875
X26675Y4875
X20975Y4875
X15275Y4875
X9575Y4875
X9575Y11075
X9075Y13575
X10075Y14575
X12275Y13575
X14775Y13575
X15775Y14575
X17975Y13575
X20475Y13575
X21475Y14575
X23675Y13575
X26175Y13575
X27175Y14575
X29375Y13575
X31875Y13575
X32875Y14575
X35075Y13575
X32375Y11075
X26675Y11075
X20975Y11075
X15275Y11075
X15275Y17275
X14775Y19775
X15775Y20775
X17975Y19775
X20475Y19775
X21475Y20775
X23675Y19775
X26175Y19775
X27175Y20775
X29375Y19775
X31875Y19775
X32875Y20775
X35075Y19775
X32375Y17275
X26675Y17275
X20975Y17275
X20975Y23475
X20475Y25975
X21475Y26975
X23675Y25975
X26175Y25975
X27175Y26975
X29375Y25975
X31875Y25975
X32875Y26975
X35075Y25975
X32375Y23475
X26675Y23475
X26675Y29675
X26175Y32175
X27175Y33175
X29375Y32175
X31875Y32175
X32875Y33175
X35075Y32175
X32375Y29675
X23675Y32175
X21475Y33175
X20475Y32175
X17975Y32175
X15775Y33175
X14775Y32175
X12275Y32175
X10075Y33175
X9075Y32175
X6575Y32175
X4375Y33175
X3375Y32175
X3875Y29675
X4375Y26975
X3375Y25975
X3875Y23475
X6575Y25975
X9075Y25975
X10075Y26975
X12275Y25975
X14775Y25975
X15775Y26975
X17975Y25975
X15275Y23475
X12275Y19775
X10075Y20775
X9075Y19775
X6575Y19775
X4375Y20775
X3375Y19775
X3875Y17275
X4375Y14575
X3375Y13575
X3875Y11075
X6575Y13575
X9575Y17275
X9575Y23475
X9575Y29675
X15275Y29675
X20975Y29675
T02
X3425Y3875
X7825Y3875
X9125Y3875
X13525Y3875
X14825Y3875
X19225Y3875
X20525Y3875
X24925Y3875
X26225Y3875
X30625Y3875
X31925Y3875
X36325Y3875
X36325Y10075
X31925Y10075
X30625Y10075
X26225Y10075
X24925Y10075
X20525Y10075
X19225Y10075
X14825Y10075
X13525Y10075
X9125Y10075
X7825Y10075
X3425Y10075
X3425Y16275
X7825Y16275
X9125Y16275
X13525Y16275
X14825Y16275
X19225Y16275
X20525Y16275
X24925Y16275
X26225Y16275
X30625Y16275
X31925Y16275
X36325Y16275
X36325Y22475
X31925Y22475
X30625Y22475
X26225Y22475
X24925Y22475
X20525Y22475
X19225Y22475
X14825Y22475
X13525Y22475
X9125Y22475
X7825Y22475
X3425Y22475
X3425Y28675
X7825Y28675
X9125Y28675
X13525Y28675
X14825Y28675
X19225Y28675
X20525Y28675
X24925Y28675
X26225Y28675
X30625Y28675
X31925Y28675
X36325Y28675
M30
